<svg width="724" height="604" viewBox="0 0 724 604" fill="none" xmlns="http://www.w3.org/2000/svg">
<path d="M671.18 585.825C678.386 585.821 685.36 582.521 690.87 576.508C696.381 570.494 700.074 562.153 701.299 552.957C707.253 508.463 702.092 424.988 610.103 341.583C521.411 261.166 561.414 29.6366 372.965 45.6123C184.516 61.5879 202.484 232.694 86.9324 311.118C4.66296 366.954 -2.3197 482.533 0.483564 544.481C0.980906 555.657 4.75861 566.164 11.0431 573.85C17.3276 581.536 25.6433 585.82 34.2874 585.825H671.18Z" fill="#F3F5FD"/>
<path d="M720.867 584.41H560.199C548.412 575.004 547.599 553.81 559.816 544.349C569.232 537.056 583.467 539.007 592.316 546.593C590.66 540.946 590.626 534.947 592.216 529.281C595.095 519.081 601.491 508.713 611.258 504.587C636.183 494.07 653.894 516.106 657.443 528.427C663.824 519.042 678.1 514.082 687.06 520.4C698.411 528.4 697.898 541.015 688.843 550.069C700.907 547.82 709.993 549.555 718.361 558.537C724.737 565.373 725.712 577.025 720.867 584.41Z" fill="#DEE8F5"/>
<path d="M462.893 8.823H217.494C198.702 8.823 183.468 24.057 183.468 42.849V543.569C183.468 562.361 198.702 577.595 217.494 577.595H462.893C481.685 577.595 496.919 562.361 496.919 543.569V42.849C496.919 24.057 481.685 8.823 462.893 8.823Z" fill="white"/>
<path d="M462.893 586.418H217.493C206.132 586.405 195.241 581.886 187.208 573.853C179.175 565.82 174.656 554.928 174.643 543.568V42.849C174.656 31.4887 179.175 20.5976 187.208 12.5647C195.241 4.53188 206.132 0.0132324 217.493 0H462.893C474.253 0.0132324 485.144 4.53188 493.177 12.5647C501.21 20.5976 505.729 31.4887 505.743 42.849V543.568C505.729 554.928 501.211 565.82 493.177 573.853C485.144 581.886 474.253 586.405 462.893 586.418ZM217.493 17.646C210.812 17.6545 204.407 20.3122 199.683 25.0363C194.959 29.7603 192.301 36.1651 192.293 42.846V543.568C192.301 550.249 194.959 556.654 199.683 561.378C204.407 566.102 210.812 568.76 217.493 568.768H462.893C469.574 568.76 475.978 566.102 480.703 561.378C485.427 556.654 488.084 550.249 488.093 543.568V42.849C488.084 36.1681 485.426 29.7633 480.702 25.0393C475.978 20.3152 469.573 17.6575 462.893 17.649L217.493 17.646Z" fill="#DEE8F5"/>
<path d="M286.462 8.82495H393.924V29.674C393.924 33.8132 392.28 37.7829 389.353 40.7098C386.426 43.6366 382.457 45.2809 378.317 45.2809H302.067C297.928 45.2809 293.958 43.6366 291.032 40.7098C288.105 37.7829 286.46 33.8132 286.46 29.674V8.82495H286.462Z" fill="#DEE8F5"/>
<path d="M70.8334 200.225C70.8334 200.225 60.3894 190.82 59.8074 187.637C59.2254 184.454 67.3414 178.771 67.3414 178.771C67.3414 178.771 65.2634 176.399 63.2504 173.719C60.9284 170.627 58.6934 167.126 59.8424 166.389C60.9494 165.678 63.6804 168.309 66.4004 171.489C69.9004 175.579 73.3744 180.581 73.3744 180.581C73.3744 180.581 72.0234 175.05 74.1464 174.825C75.0194 174.733 75.6464 175.625 76.7644 179.546C78.0334 184.017 80.7034 190.791 80.7034 190.791L70.8334 200.225Z" fill="#FFBF9D"/>
<path d="M91.7351 252.365C89.5661 252.365 87.4464 251.718 85.6472 250.507C83.8479 249.295 82.451 247.575 81.6352 245.565L62.0352 197.299L82.2351 189.099L88.1692 203.712L92.8261 180.434L114.207 184.711L102.423 243.605C101.964 245.904 100.775 247.993 99.0336 249.563C97.2923 251.133 95.0913 252.1 92.7571 252.32C92.4201 252.349 92.0761 252.365 91.7351 252.365Z" fill="#367CFF"/>
<path d="M56.3545 213.234L68.4755 211.3C68.9524 211.224 69.4077 211.048 69.8119 210.784C70.216 210.519 70.5597 210.172 70.8204 209.766C71.0812 209.359 71.2531 208.903 71.325 208.425C71.3969 207.947 71.3671 207.46 71.2375 206.995L63.6105 179.625C63.3845 178.814 62.868 178.115 62.1595 177.66C61.4509 177.205 60.5998 177.027 59.7685 177.16L47.6475 179.094C47.1706 179.17 46.7152 179.346 46.3111 179.61C45.907 179.875 45.5633 180.222 45.3025 180.628C45.0418 181.034 44.8698 181.491 44.7979 181.969C44.7261 182.446 44.7559 182.934 44.8855 183.399L52.5125 210.771C52.7389 211.582 53.2555 212.281 53.964 212.735C54.6726 213.189 55.5234 213.367 56.3545 213.234Z" fill="#C1D8ED"/>
<path d="M166.185 459.345C148.008 454.753 146.22 454.068 145.632 453.845L153.14 434.233C153.081 434.21 153.004 434.181 152.91 434.149C154.388 434.637 163.621 437.039 171.328 438.985L166.185 459.345Z" fill="#FFBF9D"/>
<path d="M165.368 486.773C165.186 487.308 164.896 487.799 164.515 488.216C164.135 488.634 163.672 488.968 163.156 489.198C162.641 489.429 162.083 489.551 161.518 489.556C160.954 489.561 160.394 489.45 159.874 489.229C159.153 488.923 158.535 488.418 158.092 487.772C157.649 487.127 157.4 486.368 157.374 485.586L157.388 459.809C157.39 459.31 157.499 458.818 157.709 458.365C157.919 457.913 158.224 457.511 158.604 457.188C161.884 454.744 164.293 451.312 165.477 447.397C166.275 444.306 166.189 441.054 165.228 438.01C165.124 437.736 165.1 437.438 165.159 437.15C165.218 436.863 165.357 436.598 165.561 436.387C165.765 436.176 166.024 436.027 166.309 435.958C166.594 435.889 166.893 435.902 167.171 435.996L178.502 439.796C178.836 439.908 179.145 440.085 179.41 440.317C179.676 440.549 179.893 440.831 180.05 441.146C180.206 441.462 180.299 441.806 180.322 442.158C180.345 442.509 180.299 442.862 180.186 443.196L165.368 486.773Z" fill="#C1D8ED"/>
<path d="M116.425 576.778C116.425 576.778 116.354 555.03 116.354 553.104H137.354C137.354 555.024 137.425 576.71 137.425 576.71L116.425 576.778Z" fill="#FFBF9D"/>
<path d="M171.449 275.654C157.974 262.18 95.3716 280.349 95.3716 280.349L95.3135 280.74L94.0316 280.02C78.1086 312.027 55.5636 359.92 39.9596 392.546C38.768 394.789 38.0501 397.253 37.8504 399.785C37.6506 402.317 37.9734 404.863 38.7985 407.266C39.6237 409.668 40.9336 411.875 42.6471 413.75C44.3606 415.625 46.4411 417.128 48.7596 418.165L116.91 448.486C113.41 486.925 109.393 525.332 106.047 563.711L142.762 568.293C149.434 522.507 156.295 476.774 162.422 430.931L163.422 428.683L162.764 428.39C166.521 400.147 169.992 371.861 172.958 343.49C173.529 337.721 174.031 331.447 174.278 325.348C174.276 325.351 178.701 282.903 171.449 275.654ZM82.8835 392.854C96.0215 370.954 111.478 345.145 124.86 323.24C124.174 352.003 122.469 380.746 120.229 409.469L82.8835 392.854Z" fill="#262626"/>
<path d="M147.361 174.21C147.361 174.21 139.628 170.11 141.355 149.054L125.378 146.091C125.378 146.091 127.178 164.97 119.091 170.963L147.361 174.21Z" fill="#FFBF9D"/>
<g opacity="0.15">
<path d="M122.365 167.017L135.637 156.863L125.213 156.755C124.911 160.323 123.945 163.803 122.365 167.017Z" fill="black"/>
</g>
<path d="M150.42 140.889C149.314 147.277 145.827 153.327 140.192 155.389C133.503 157.839 128.548 158.005 120.835 158.005C110.309 158.005 110.657 147.028 110.362 135.966C110.062 124.866 110.948 112.948 115.108 109.078C123.408 101.354 147.781 106.245 150.745 119.165C152.279 125.848 151.472 134.808 150.42 140.889Z" fill="#FFBF9D"/>
<path d="M140.609 154.784C140.941 155.847 141.173 156.31 142.13 155.741C145.886 153.51 154.339 148.653 157.219 130.459C159.8 114.159 149.743 107.433 141.719 105.034C134.806 102.966 118.672 102.54 111.1 107.104C104.575 111.037 111.1 120.185 111.1 120.185C113.984 120.318 114.565 122.797 121.369 122.797C126.629 122.797 130.049 120.446 134.974 120.653C139.482 120.843 140.408 123.591 140.248 125.353C139.282 136.035 139.435 151.025 140.609 154.784Z" fill="#0F1011"/>
<path d="M125.401 135.968C126.201 135.968 126.85 135.319 126.85 134.519C126.85 133.719 126.201 133.07 125.401 133.07C124.601 133.07 123.952 133.719 123.952 134.519C123.952 135.319 124.601 135.968 125.401 135.968Z" fill="#0F1011"/>
<path d="M113.97 135.03C114.77 135.03 115.419 134.381 115.419 133.581C115.419 132.781 114.77 132.132 113.97 132.132C113.17 132.132 112.521 132.781 112.521 133.581C112.521 134.381 113.17 135.03 113.97 135.03Z" fill="#0F1011"/>
<path d="M111.459 130.493C111.283 130.487 111.116 130.414 110.993 130.288C110.87 130.161 110.801 129.993 110.8 129.816C110.799 129.64 110.866 129.471 110.987 129.343C111.109 129.215 111.275 129.14 111.451 129.132L115.289 129.084C115.379 129.081 115.468 129.097 115.552 129.129C115.636 129.162 115.712 129.211 115.776 129.274C115.84 129.337 115.891 129.412 115.926 129.494C115.961 129.577 115.978 129.666 115.978 129.756C115.979 129.845 115.963 129.934 115.93 130.017C115.896 130.1 115.847 130.176 115.785 130.24C115.722 130.304 115.648 130.355 115.566 130.39C115.484 130.425 115.395 130.444 115.306 130.445L111.467 130.493H111.459Z" fill="#0F1011"/>
<path d="M128.528 131.892C128.474 131.892 128.421 131.886 128.369 131.874L124.584 130.964C124.41 130.92 124.261 130.809 124.169 130.656C124.076 130.502 124.048 130.319 124.09 130.145C124.132 129.97 124.241 129.82 124.393 129.725C124.545 129.631 124.728 129.6 124.903 129.64L128.687 130.55C128.849 130.588 128.992 130.685 129.088 130.822C129.184 130.959 129.226 131.126 129.207 131.292C129.187 131.458 129.107 131.611 128.982 131.722C128.856 131.832 128.695 131.893 128.528 131.892Z" fill="#0F1011"/>
<path d="M132.939 138.064C132.831 139.674 133.36 141.263 134.414 142.486C135.467 143.709 136.959 144.469 138.568 144.6C140.177 144.731 141.773 144.224 143.011 143.188C144.249 142.152 145.029 140.671 145.183 139.064C145.263 138.257 145.18 137.443 144.939 136.669C144.697 135.895 144.303 135.178 143.778 134.56C143.254 133.942 142.61 133.436 141.886 133.072C141.162 132.707 140.372 132.493 139.563 132.44C135.185 132.301 133.216 134.683 132.939 138.064Z" fill="#FFBF9D"/>
<g opacity="0.15">
<path d="M118.969 142.556C118.919 142.556 118.869 142.548 118.822 142.533L115.334 141.462C115.266 141.441 115.204 141.406 115.15 141.359C115.097 141.312 115.055 141.255 115.025 141.19C114.996 141.126 114.981 141.056 114.981 140.985C114.981 140.914 114.996 140.844 115.025 140.779L117.318 135.672C117.373 135.553 117.474 135.46 117.597 135.414C117.72 135.368 117.856 135.373 117.976 135.427C118.096 135.481 118.19 135.58 118.238 135.702C118.285 135.825 118.282 135.961 118.23 136.082L116.169 140.673L119.116 141.573C119.23 141.608 119.329 141.683 119.392 141.785C119.456 141.886 119.482 142.007 119.464 142.125C119.446 142.244 119.386 142.352 119.295 142.43C119.205 142.508 119.089 142.551 118.969 142.551V142.556Z" fill="black"/>
</g>
<path d="M124.731 145.93C124.731 145.93 119.382 146.494 115.631 145.184C115.631 145.184 115.661 148.707 119.893 149.054C124.125 149.401 124.731 145.93 124.731 145.93Z" fill="white"/>
<path d="M75.8756 206.06L68.7266 215.76C68.7266 215.76 49.5106 211.908 47.7086 197.105C47.5006 195.405 47.6805 190.685 49.7915 191.317C55.2915 192.966 62.1355 201.405 66.9345 202.527C65.8405 200.566 64.5035 197.797 65.3655 197.291C67.6315 195.959 73.7266 203.995 75.8756 206.06Z" fill="#FFBF9D"/>
<path d="M172.518 175.595C167.948 171.025 160.058 168.075 150.438 168.065C149.718 173.675 115.658 173.695 115.398 168.195C114.098 168.215 113.088 168.235 112.458 168.265C89.3403 169.265 89.4083 187.894 91.6833 208.486L72.6613 200.097L63.8613 220.046L94.1353 233.398C94.1543 233.998 94.1703 234.598 94.1773 235.198C94.5673 267.658 85.7973 273.778 90.1173 283.698C94.3073 293.328 176.637 297.328 177.737 280.388C178.437 269.608 168.937 260.198 168.937 239.188C168.937 218.178 188.268 191.345 172.518 175.595Z" fill="#367CFF"/>
<path d="M90.9205 585.325C90.3558 585.322 89.7977 585.203 89.2811 584.975C88.7644 584.747 88.3004 584.415 87.9179 583.999C87.5354 583.584 87.2427 583.094 87.058 582.56C86.8733 582.027 86.8006 581.461 86.8444 580.898C86.905 580.117 87.1874 579.371 87.6583 578.745C88.1293 578.12 88.7691 577.643 89.5025 577.369L113.945 569.182C114.419 569.025 114.921 568.972 115.416 569.027C115.912 569.082 116.39 569.244 116.817 569.501C120.177 571.833 124.197 573.025 128.285 572.901C131.469 572.675 134.525 571.558 137.105 569.679C137.332 569.493 137.607 569.375 137.898 569.339C138.19 569.304 138.485 569.352 138.75 569.477C139.015 569.603 139.239 569.802 139.395 570.05C139.551 570.298 139.634 570.586 139.633 570.879V582.831C139.633 583.183 139.564 583.533 139.429 583.858C139.293 584.184 139.095 584.479 138.845 584.728C138.595 584.977 138.299 585.174 137.973 585.308C137.646 585.442 137.297 585.51 136.944 585.509L90.9205 585.325Z" fill="#C1D8ED"/>
<path d="M512.474 579.28C510.574 578.961 489.142 575.301 489.142 575.301L492.678 554.601C492.678 554.601 514.057 558.254 515.951 558.571L512.474 579.28Z" fill="#FFBF9D"/>
<path d="M476.914 599.136C476.823 599.693 476.849 600.264 476.988 600.811C477.128 601.358 477.379 601.871 477.725 602.317C478.072 602.763 478.507 603.132 479.002 603.403C479.498 603.673 480.045 603.838 480.607 603.888C481.387 603.957 482.17 603.801 482.865 603.44C483.559 603.079 484.136 602.527 484.527 601.849L496.639 579.094C496.872 578.653 497.007 578.167 497.034 577.669C497.062 577.171 496.981 576.673 496.798 576.209C495.053 572.51 494.541 568.349 495.338 564.337C496.087 561.234 497.693 558.404 499.973 556.17C500.194 555.977 500.356 555.725 500.439 555.444C500.523 555.163 500.524 554.863 500.444 554.581C500.363 554.299 500.204 554.045 499.985 553.85C499.766 553.655 499.496 553.526 499.206 553.479L487.418 551.504C487.07 551.446 486.715 551.457 486.371 551.537C486.027 551.616 485.703 551.763 485.416 551.968C485.13 552.174 484.886 552.433 484.7 552.733C484.514 553.033 484.389 553.366 484.332 553.714L476.914 599.136Z" fill="#C1D8ED"/>
<path d="M578.833 523.293C596.647 524.025 616.463 524.405 634.42 524.718C640.036 524.825 645.402 527.057 649.438 530.964C653.473 534.872 655.877 540.163 656.166 545.773C656.455 551.382 654.607 556.892 650.994 561.193C647.381 565.494 642.272 568.266 636.697 568.949L502.297 585.269L496.821 545.548L630.621 524.894L634.253 569.15C616.218 570.322 596.901 571.55 578.831 572.293L578.833 523.293Z" fill="#262626"/>
<path d="M612.737 570.582C594.184 567.882 592.337 567.388 591.727 567.224L597.177 546.943C597.116 546.928 597.037 546.906 596.94 546.885C598.46 547.217 607.892 548.656 615.758 549.801L612.737 570.582Z" fill="#FFBF9D"/>
<path d="M635.915 588.633C636.11 589.163 636.193 589.727 636.16 590.291C636.127 590.855 635.977 591.406 635.722 591.909C635.466 592.413 635.11 592.858 634.674 593.218C634.239 593.577 633.734 593.843 633.191 593.999C632.439 594.215 631.64 594.211 630.89 593.988C630.139 593.765 629.468 593.332 628.955 592.741L612.744 572.699C612.433 572.31 612.21 571.858 612.089 571.375C611.968 570.892 611.953 570.388 612.044 569.899C613.055 565.936 612.767 561.753 611.224 557.966C609.9 555.061 607.786 552.588 605.124 550.827C604.871 550.679 604.664 550.463 604.529 550.202C604.394 549.942 604.336 549.648 604.361 549.356C604.387 549.064 604.495 548.785 604.672 548.552C604.85 548.318 605.091 548.141 605.366 548.039L616.566 543.863C616.897 543.74 617.248 543.683 617.6 543.696C617.953 543.709 618.299 543.792 618.62 543.939C618.94 544.086 619.228 544.295 619.468 544.554C619.707 544.813 619.893 545.116 620.015 545.447L635.915 588.633Z" fill="#C1D8ED"/>
<path d="M548.991 568.692C526.612 566.911 503.906 566.203 481.465 565.801L483.414 525.392C525.37 531.092 567.9 536.492 610.075 540.399L605.427 580.23C563.482 574.317 520.858 569.782 478.714 565.668C454.193 563.468 455.021 526.589 479.414 525.33C502.243 524.03 525.314 522.415 548.025 519.702L548.991 568.692Z" fill="#262626"/>
<path d="M599.268 517.158L602.228 566.863L516.738 565.859L523.191 521.854L599.268 517.158Z" fill="#262626"/>
<path d="M494.512 510.565C492.811 510.563 491.136 510.149 489.631 509.356C488.126 508.564 486.837 507.418 485.872 506.017C484.908 504.616 484.299 503.002 484.097 501.313C483.895 499.625 484.106 497.912 484.712 496.323L505.388 442.1L519.971 447.661L528.579 435.937L545.5 448.365L502.981 506.278C502.005 507.607 500.73 508.688 499.258 509.433C497.787 510.178 496.161 510.566 494.512 510.565Z" fill="#367CFF"/>
<path d="M575.086 422.139C575.086 422.139 567.044 418.685 567.044 397.557L550.879 395.91C550.879 395.91 554.211 414.579 546.645 421.21L575.086 422.139Z" fill="#FFBF9D"/>
<g opacity="0.15">
<path d="M549.585 417.012L561.985 405.812L551.585 406.556C551.575 410.135 550.897 413.682 549.585 417.012Z" fill="black"/>
</g>
<path d="M575.411 388.679C574.831 395.136 571.851 401.451 566.403 403.968C560.48 406.9 553.93 408.337 547.324 408.156C529.776 408.156 529.974 368.239 537.618 359.862C545.262 351.485 569.951 354.368 573.961 367.003C576.035 373.537 575.964 382.533 575.411 388.679Z" fill="#FFBF9D"/>
<path d="M549.956 385.824C550.757 385.824 551.405 385.175 551.405 384.375C551.405 383.575 550.757 382.926 549.956 382.926C549.156 382.926 548.507 383.575 548.507 384.375C548.507 385.175 549.156 385.824 549.956 385.824Z" fill="#0F1011"/>
<path d="M538.486 385.824C539.286 385.824 539.935 385.175 539.935 384.375C539.935 383.575 539.286 382.926 538.486 382.926C537.686 382.926 537.037 383.575 537.037 384.375C537.037 385.175 537.686 385.824 538.486 385.824Z" fill="#0F1011"/>
<path d="M535.675 381.505C535.5 381.505 535.332 381.437 535.206 381.316C535.079 381.195 535.004 381.03 534.996 380.856C534.988 380.681 535.047 380.509 535.162 380.377C535.277 380.245 535.438 380.162 535.612 380.146L539.434 379.785C539.523 379.777 539.613 379.786 539.698 379.812C539.784 379.839 539.863 379.881 539.932 379.938C540.001 379.995 540.058 380.066 540.099 380.145C540.141 380.224 540.167 380.31 540.175 380.399C540.184 380.488 540.174 380.578 540.148 380.663C540.122 380.748 540.079 380.828 540.022 380.897C539.965 380.965 539.895 381.022 539.816 381.064C539.737 381.106 539.65 381.132 539.561 381.14L535.74 381.502L535.675 381.505Z" fill="#0F1011"/>
<path d="M552.8 381.505C552.765 381.505 552.73 381.503 552.695 381.497L548.849 380.897C548.759 380.886 548.671 380.857 548.592 380.812C548.512 380.766 548.443 380.705 548.387 380.632C548.332 380.56 548.292 380.476 548.27 380.388C548.247 380.299 548.243 380.207 548.257 380.116C548.271 380.026 548.303 379.939 548.351 379.862C548.4 379.784 548.463 379.717 548.538 379.664C548.613 379.611 548.697 379.574 548.787 379.555C548.876 379.536 548.969 379.535 549.058 379.552L552.904 380.152C553.074 380.178 553.227 380.267 553.333 380.401C553.44 380.535 553.492 380.704 553.48 380.875C553.467 381.046 553.39 381.206 553.265 381.323C553.14 381.44 552.976 381.505 552.804 381.506L552.8 381.505Z" fill="#0F1011"/>
<path d="M550.22 395.803C550.22 395.803 544.936 396.803 541.092 395.803C541.092 395.803 541.409 399.312 545.656 399.312C549.903 399.312 550.22 395.803 550.22 395.803Z" fill="white"/>
<path d="M562.33 373.144C563.192 402.318 567.425 404.99 567.425 404.99C567.425 404.99 581.225 395.07 581.688 377.47C582.124 360.97 569.281 352.303 560.988 351.15C529.48 346.768 528.374 375.218 528.374 375.218C544.187 377.929 565.726 373.45 565.726 373.45" fill="#0F1011"/>
<path d="M557.758 387.293C557.778 388.909 558.435 390.451 559.584 391.586C560.734 392.721 562.285 393.358 563.9 393.358C565.516 393.358 567.067 392.721 568.216 391.586C569.366 390.451 570.022 388.909 570.043 387.293C570.057 386.483 569.907 385.678 569.603 384.926C569.3 384.175 568.848 383.492 568.275 382.919C567.702 382.346 567.019 381.894 566.268 381.59C565.516 381.286 564.711 381.136 563.901 381.15C559.526 381.365 557.758 383.9 557.758 387.293Z" fill="#FFBF9D"/>
<path d="M577.406 377.47C585.141 377.47 591.412 371.199 591.412 363.464C591.412 355.729 585.141 349.458 577.406 349.458C569.671 349.458 563.4 355.729 563.4 363.464C563.4 371.199 569.671 377.47 577.406 377.47Z" fill="#0F1011"/>
<g opacity="0.15">
<path d="M544.162 392.912C544.126 392.912 544.09 392.908 544.054 392.9L540.49 392.118C540.421 392.103 540.356 392.073 540.299 392.031C540.242 391.988 540.195 391.934 540.161 391.872C540.126 391.811 540.105 391.742 540.099 391.671C540.093 391.601 540.103 391.53 540.126 391.463L541.994 386.185C542.042 386.064 542.134 385.966 542.252 385.913C542.37 385.859 542.505 385.853 542.627 385.896C542.749 385.94 542.85 386.029 542.908 386.145C542.965 386.261 542.976 386.395 542.936 386.519L541.257 391.263L544.269 391.924C544.389 391.951 544.495 392.021 544.567 392.121C544.638 392.221 544.671 392.344 544.657 392.466C544.644 392.588 544.586 392.701 544.495 392.783C544.404 392.866 544.285 392.911 544.162 392.912Z" fill="black"/>
</g>
<path d="M621.151 499.298L605.37 436.65C604.567 432.61 602.523 428.922 599.522 426.101C594.952 421.531 587.062 418.581 577.442 418.571C576.722 424.181 542.662 424.201 542.402 418.701C541.102 418.721 540.092 418.741 539.462 418.771C506.282 420.201 520.862 448.961 521.182 476.701C521.572 509.161 512.802 515.281 517.123 525.201C521.312 534.831 603.642 538.831 604.742 521.891C605.001 517.907 603.865 514.108 602.332 509.843L605.265 511.48C607.124 512.519 609.246 512.99 611.37 512.837C613.493 512.683 615.526 511.91 617.215 510.615C618.905 509.319 620.178 507.557 620.877 505.546C621.577 503.535 621.672 501.363 621.151 499.298Z" fill="#367CFF"/>
<path d="M542.4 418.701C542.66 424.201 545.65 432.291 554.88 432.901C567.18 433.711 576.72 424.181 577.44 418.571H577.41C565.3 418.571 549.462 418.591 542.4 418.701Z" fill="#FFBF9D"/>
<path d="M530.252 437.439C530.772 438.139 530.332 439.139 527.522 442.099C525.772 443.949 523.633 446.519 522.052 448.459L507.742 442.999C508.762 438.779 510.393 432.959 511.913 431.639C514.353 429.519 523.383 433.599 523.383 433.599C523.383 433.599 524.363 430.599 525.643 427.499C527.113 423.929 528.982 420.219 530.203 420.829C531.383 421.419 530.512 425.109 529.163 429.069C527.433 434.169 524.903 439.709 524.903 439.709C524.903 439.709 528.972 435.725 530.252 437.439Z" fill="#FFBF9D"/>
<path d="M531.713 468.88L543.834 466.946C544.31 466.87 544.765 466.694 545.169 466.43C545.573 466.166 545.916 465.82 546.177 465.414C546.437 465.008 546.609 464.551 546.682 464.075C546.754 463.598 546.725 463.111 546.596 462.646L538.969 435.274C538.743 434.463 538.227 433.764 537.518 433.309C536.81 432.855 535.959 432.677 535.128 432.809L523.006 434.743C522.53 434.819 522.075 434.995 521.671 435.259C521.267 435.523 520.924 435.869 520.663 436.275C520.403 436.681 520.231 437.137 520.158 437.614C520.086 438.091 520.115 438.578 520.244 439.043L527.871 466.415C528.097 467.226 528.613 467.926 529.322 468.38C530.03 468.835 530.882 469.013 531.713 468.88Z" fill="#C1D8ED"/>
<path d="M551.234 461.706L544.085 471.406C544.085 471.406 524.869 467.554 523.067 452.751C522.859 451.046 523.039 446.331 525.15 446.964C530.65 448.612 537.494 457.051 542.294 458.173C541.194 456.212 539.863 453.443 540.724 452.937C542.991 451.605 549.085 459.641 551.234 461.706Z" fill="#FFBF9D"/>
<path d="M413.062 493.391H232.573L212.323 510.391V380.812H413.062V493.391Z" fill="#C1D8ED"/>
<path d="M468.062 353.352L448.573 338.579H267.323V219.1H468.062V353.352Z" fill="#DEE8F5"/>
<path d="M212.323 194.599L234.085 178.599H377.085V76.0249H212.323V194.599Z" fill="#C1D8ED"/>
<path d="M115.4 168.195C115.66 173.695 118.65 181.785 127.88 182.395C140.18 183.205 149.72 173.675 150.44 168.065H150.41C138.3 168.065 122.458 168.085 115.4 168.195Z" fill="#FFBF9D"/>
</svg>
