<svg width="459" height="543" viewBox="0 0 459 543" fill="none" xmlns="http://www.w3.org/2000/svg">
<path d="M390.704 13.876H293.707V140.317H390.704V13.876Z" fill="#F4F4F4"/>
<path d="M390.704 140.317H393.851V13.8764H390.704V140.317Z" fill="#F4F4F4"/>
<path opacity="0.05" d="M390.704 140.317H393.851V13.8764H390.704V140.317Z" fill="#292A2E"/>
<path opacity="0.05" d="M373.035 36.9087H311.376V117.284H373.035V36.9087Z" fill="#292A2E"/>
<path opacity="0.03" d="M373.035 36.9087H369.822V117.284H373.035V36.9087Z" fill="#292A2E"/>
<path d="M458.603 171.136H379.275V251.311H458.603V171.136Z" fill="#F4F4F4"/>
<path opacity="0.05" d="M444.153 185.741H393.726V236.707H444.153V185.741Z" fill="#292A2E"/>
<path opacity="0.03" d="M455.581 186.016H452.368V236.981H455.581V186.016Z" fill="#292A2E"/>
<path d="M190.25 0H7.28857V264.647H190.25V0Z" fill="#F4F4F4"/>
<path d="M192.347 0H190.25V264.647H192.347V0Z" fill="#F4F4F4"/>
<path opacity="0.05" d="M192.347 0H190.25V264.647H192.347V0Z" fill="#292A2E"/>
<path opacity="0.05" d="M145.927 182.364V113.123H106.715V153.35H45.9762V224.578H20.1614V264.647H45.9762H50.9496H181.449V182.364H145.927Z" fill="#292A2E"/>
<path opacity="0.34" d="M140.303 120.641H111.749V128.159H140.303V120.641Z" fill="#FFFFFA"/>
<path opacity="0.34" d="M140.303 136.22H111.749V143.738H140.303V136.22Z" fill="#FFFFFA"/>
<path opacity="0.34" d="M140.303 151.799H111.749V159.317H140.303V151.799Z" fill="#FFFFFA"/>
<path opacity="0.34" d="M176.386 189.661H171.123V197.179H176.386V189.661Z" fill="#FFFFFA"/>
<path opacity="0.34" d="M176.386 205.24H171.123V212.758H176.386V205.24Z" fill="#FFFFFA"/>
<path opacity="0.34" d="M176.386 220.819H171.123V228.337H176.386V220.819Z" fill="#FFFFFA"/>
<path opacity="0.34" d="M166.649 189.661H161.386V197.179H166.649V189.661Z" fill="#FFFFFA"/>
<path opacity="0.34" d="M166.649 205.24H161.386V212.758H166.649V205.24Z" fill="#FFFFFA"/>
<path opacity="0.34" d="M166.649 220.819H161.386V228.337H166.649V220.819Z" fill="#FFFFFA"/>
<path opacity="0.34" d="M157.176 189.661H151.913V197.179H157.176V189.661Z" fill="#FFFFFA"/>
<path opacity="0.34" d="M157.176 205.24H151.913V212.758H157.176V205.24Z" fill="#FFFFFA"/>
<path opacity="0.34" d="M157.176 220.819H151.913V228.337H157.176V220.819Z" fill="#FFFFFA"/>
<path d="M190.25 130.839H153.435V0H150.391V130.839H50.9497V0H47.9049V130.839H7.28857V135.243H47.9049V264.647H50.9497V135.243H150.391V264.647H153.435V135.243H190.25V130.839Z" fill="white"/>
<path d="M197.539 264.328H0V273.13H197.539V264.328Z" fill="#F4F4F4"/>
<path opacity="0.1" d="M197.539 264.328H0V273.13H197.539V264.328Z" fill="#292A2E"/>
<path opacity="0.1" d="M200.391 264.328H197.539V273.13H200.391V264.328Z" fill="#292A2E"/>
<path opacity="0.1" d="M200.391 264.328H197.539V273.13H200.391V264.328Z" fill="#292A2E"/>
<path opacity="0.05" d="M341.545 531.126H326.866V540.944H341.545V531.126Z" fill="#292A2E"/>
<path opacity="0.05" d="M433.695 531.126H419.016V540.944H433.695V531.126Z" fill="#292A2E"/>
<path d="M447.15 381.543H313.41V531.126H447.15V381.543Z" fill="#F4F4F4"/>
<path opacity="0.03" d="M447.15 381.543H313.41V531.126H447.15V381.543Z" fill="#292A2E"/>
<path d="M411.631 381.543H277.891V531.126H411.631V381.543Z" fill="#F4F4F4"/>
<path opacity="0.05" d="M306.026 531.126H291.347V540.944H306.026V531.126Z" fill="#292A2E"/>
<path opacity="0.05" d="M398.175 531.126H383.496V540.944H398.175V531.126Z" fill="#292A2E"/>
<path opacity="0.7" d="M404.435 390.792H285.085V428.73H404.435V390.792Z" fill="white"/>
<path opacity="0.7" d="M404.435 438.016H285.085V475.954H404.435V438.016Z" fill="white"/>
<path opacity="0.7" d="M404.435 485.24H285.085V523.178H404.435V485.24Z" fill="white"/>
<path opacity="0.05" d="M344.761 415.07C347.688 415.07 350.062 412.693 350.062 409.761C350.062 406.829 347.688 404.452 344.761 404.452C341.833 404.452 339.46 406.829 339.46 409.761C339.46 412.693 341.833 415.07 344.761 415.07Z" fill="#292A2E"/>
<path opacity="0.05" d="M344.761 462.294C347.688 462.294 350.062 459.917 350.062 456.985C350.062 454.054 347.688 451.677 344.761 451.677C341.833 451.677 339.46 454.054 339.46 456.985C339.46 459.917 341.833 462.294 344.761 462.294Z" fill="#292A2E"/>
<path opacity="0.05" d="M344.761 509.518C347.688 509.518 350.062 507.142 350.062 504.21C350.062 501.278 347.688 498.901 344.761 498.901C341.833 498.901 339.46 501.278 339.46 504.21C339.46 507.142 341.833 509.518 344.761 509.518Z" fill="#292A2E"/>
<path d="M258.335 28.7596H87.3659C82.4368 28.7596 78.4409 36.3427 78.4409 45.6968V403.622C78.4409 412.976 82.4368 420.559 87.3659 420.559H258.335C263.264 420.559 267.26 412.976 267.26 403.622V45.6968C267.26 36.3427 263.264 28.7596 258.335 28.7596Z" fill="white"/>
<path d="M258.166 420.645H87.1956C84.7505 420.639 82.4064 418.794 80.6775 415.513C78.9485 412.232 77.976 407.783 77.9731 403.143V45.2181C77.976 40.578 78.9485 36.1294 80.6775 32.8484C82.4064 29.5673 84.7505 27.7217 87.1956 27.7163H258.166C260.611 27.7215 262.955 29.5671 264.684 32.8482C266.413 36.1293 267.385 40.5779 267.388 45.2181V403.143C267.385 407.783 266.413 412.232 264.684 415.513C262.955 418.794 260.611 420.64 258.166 420.645ZM87.1956 28.8455C84.9083 28.8505 82.7154 30.5771 81.098 33.6465C79.4806 36.7158 78.5708 40.8773 78.5681 45.2181V403.143C78.5707 407.484 79.4805 411.645 81.0979 414.715C82.7153 417.784 84.9083 419.511 87.1956 419.516H258.166C260.453 419.511 262.646 417.784 264.263 414.715C265.881 411.645 266.79 407.484 266.793 403.143V45.2181C266.79 40.8773 265.881 36.7158 264.263 33.6465C262.646 30.5771 260.453 28.8505 258.166 28.8455H87.1956Z" fill="#292A2E"/>
<path d="M267.09 45.2159V58.3072H78.2727V45.2159C78.2727 40.7238 79.213 36.4158 80.8868 33.2395C82.5605 30.0631 84.8306 28.2787 87.1977 28.2787H258.165C260.532 28.2787 262.802 30.0631 264.476 33.2395C266.15 36.4158 267.09 40.7238 267.09 45.2159Z" fill="#292A2E"/>
<path opacity="0.1" d="M127.489 162.282C149.334 162.282 167.043 143.743 167.043 120.874C167.043 98.0043 149.334 79.4651 127.489 79.4651C105.644 79.4651 87.9351 98.0043 87.9351 120.874C87.9351 143.743 105.644 162.282 127.489 162.282Z" fill="#367CFF"/>
<path opacity="0.2" d="M127.489 119.092C135.077 119.092 141.227 112.653 141.227 104.709C141.227 96.7662 135.077 90.3269 127.489 90.3269C119.902 90.3269 113.751 96.7662 113.751 104.709C113.751 112.653 119.902 119.092 127.489 119.092Z" fill="#367CFF"/>
<path opacity="0.2" d="M157.225 148.179C153.512 152.61 148.939 156.161 143.811 158.593C138.682 161.025 133.117 162.283 127.487 162.282C121.857 162.282 116.292 161.023 111.164 158.59C106.036 156.157 101.463 152.605 97.752 148.173C99.6533 141.461 103.576 135.572 108.935 131.385C114.294 127.197 120.803 124.935 127.49 124.935C134.178 124.936 140.686 127.199 146.044 131.388C151.403 135.577 155.324 141.467 157.225 148.179Z" fill="#367CFF"/>
<path opacity="0.2" d="M120.062 190.531H90.486C89.4187 190.531 88.5535 192.173 88.5535 194.198C88.5535 196.224 89.4187 197.866 90.486 197.866H120.062C121.129 197.866 121.994 196.224 121.994 194.198C121.994 192.173 121.129 190.531 120.062 190.531Z" fill="#367CFF"/>
<path opacity="0.1" d="M231.461 82.373H175.347C173.252 82.373 171.553 85.0409 171.553 88.3318V100.691C171.553 103.982 173.252 106.65 175.347 106.65H231.461C233.557 106.65 235.255 103.982 235.255 100.691V88.3318C235.255 85.0409 233.557 82.373 231.461 82.373Z" fill="#367CFF"/>
<path opacity="0.2" d="M257.143 120.199H173.342C172.354 120.199 171.553 121.463 171.553 123.022C171.553 124.581 172.354 125.845 173.342 125.845H257.143C258.131 125.845 258.932 124.581 258.932 123.022C258.932 121.463 258.131 120.199 257.143 120.199Z" fill="#367CFF"/>
<path opacity="0.2" d="M257.143 137.137H173.342C172.354 137.137 171.553 138.401 171.553 139.96C171.553 141.519 172.354 142.782 173.342 142.782H257.143C258.131 142.782 258.932 141.519 258.932 139.96C258.932 138.401 258.131 137.137 257.143 137.137Z" fill="#367CFF"/>
<path opacity="0.2" d="M242.494 154.074H173.334C172.35 154.074 171.553 155.338 171.553 156.897C171.553 158.456 172.35 159.72 173.334 159.72H242.494C243.478 159.72 244.275 158.456 244.275 156.897C244.275 155.338 243.478 154.074 242.494 154.074Z" fill="#367CFF"/>
<path opacity="0.1" d="M163.983 208.446H91.3473C89.8043 208.446 88.5535 210.819 88.5535 213.747V226.847C88.5535 229.775 89.8043 232.149 91.3473 232.149H163.983C165.526 232.149 166.777 229.775 166.777 226.847V213.747C166.777 210.819 165.526 208.446 163.983 208.446Z" fill="#367CFF"/>
<path opacity="0.2" d="M209.12 190.531H179.544C178.477 190.531 177.612 192.173 177.612 194.198C177.612 196.224 178.477 197.866 179.544 197.866H209.12C210.187 197.866 211.052 196.224 211.052 194.198C211.052 192.173 210.187 190.531 209.12 190.531Z" fill="#367CFF"/>
<path opacity="0.1" d="M253.041 208.446H180.405C178.862 208.446 177.612 210.819 177.612 213.747V226.847C177.612 229.775 178.862 232.149 180.405 232.149H253.041C254.584 232.149 255.835 229.775 255.835 226.847V213.747C255.835 210.819 254.584 208.446 253.041 208.446Z" fill="#367CFF"/>
<path opacity="0.2" d="M120.062 251.745H90.486C89.4187 251.745 88.5535 253.387 88.5535 255.412C88.5535 257.438 89.4187 259.08 90.486 259.08H120.062C121.129 259.08 121.994 257.438 121.994 255.412C121.994 253.387 121.129 251.745 120.062 251.745Z" fill="#367CFF"/>
<path opacity="0.1" d="M163.983 269.66H91.3473C89.8043 269.66 88.5535 272.034 88.5535 274.962V288.061C88.5535 290.989 89.8043 293.363 91.3473 293.363H163.983C165.526 293.363 166.777 290.989 166.777 288.061V274.962C166.777 272.034 165.526 269.66 163.983 269.66Z" fill="#367CFF"/>
<path opacity="0.2" d="M209.12 251.745H179.544C178.477 251.745 177.612 253.387 177.612 255.412C177.612 257.438 178.477 259.08 179.544 259.08H209.12C210.187 259.08 211.052 257.438 211.052 255.412C211.052 253.387 210.187 251.745 209.12 251.745Z" fill="#367CFF"/>
<path opacity="0.1" d="M253.041 269.66H180.405C178.862 269.66 177.612 272.034 177.612 274.962V288.061C177.612 290.989 178.862 293.363 180.405 293.363H253.041C254.584 293.363 255.835 290.989 255.835 288.061V274.962C255.835 272.034 254.584 269.66 253.041 269.66Z" fill="#367CFF"/>
<path opacity="0.2" d="M120.062 312.959H90.486C89.4187 312.959 88.5535 314.601 88.5535 316.627C88.5535 318.652 89.4187 320.294 90.486 320.294H120.062C121.129 320.294 121.994 318.652 121.994 316.627C121.994 314.601 121.129 312.959 120.062 312.959Z" fill="#367CFF"/>
<path opacity="0.1" d="M163.983 330.874H91.3473C89.8043 330.874 88.5535 333.248 88.5535 336.176V349.275C88.5535 352.204 89.8043 354.577 91.3473 354.577H163.983C165.526 354.577 166.777 352.204 166.777 349.275V336.176C166.777 333.248 165.526 330.874 163.983 330.874Z" fill="#367CFF"/>
<path opacity="0.2" d="M209.12 312.959H179.544C178.477 312.959 177.612 314.601 177.612 316.627C177.612 318.652 178.477 320.294 179.544 320.294H209.12C210.187 320.294 211.052 318.652 211.052 316.627C211.052 314.601 210.187 312.959 209.12 312.959Z" fill="#367CFF"/>
<path opacity="0.1" d="M253.041 330.874H180.405C178.862 330.874 177.612 333.248 177.612 336.176V349.275C177.612 352.204 178.862 354.577 180.405 354.577H253.041C254.584 354.577 255.835 352.204 255.835 349.275V336.176C255.835 333.248 254.584 330.874 253.041 330.874Z" fill="#367CFF"/>
<path opacity="0.2" d="M195.382 373.045H149.98C148.148 373.045 146.663 375.863 146.663 379.34V390.961C146.663 394.438 148.148 397.256 149.98 397.256H195.382C197.214 397.256 198.699 394.438 198.699 390.961V379.34C198.699 375.863 197.214 373.045 195.382 373.045Z" fill="#367CFF"/>
<path d="M187.827 98.9083L196.937 109.684L196.374 107.834C196.203 107.233 196.267 106.59 196.552 106.034C196.837 105.479 197.322 105.052 197.909 104.841C198.216 104.743 198.54 104.708 198.86 104.739C199.181 104.77 199.492 104.866 199.774 105.022C200.056 105.177 200.304 105.388 200.502 105.642C200.7 105.897 200.844 106.189 200.926 106.501L205.091 122.207C205.616 124.189 205.348 126.299 204.342 128.086C203.336 129.873 201.673 131.196 199.708 131.772C197.425 132.441 194.996 132.412 192.73 131.689C190.464 130.966 188.465 129.582 186.99 127.715L180.321 119.24C179.966 118.806 179.772 118.263 179.771 117.702C179.769 117.142 179.962 116.598 180.315 116.163C180.643 115.776 181.085 115.505 181.577 115.388C182.07 115.271 182.586 115.315 183.052 115.514C183.062 115.476 183.081 115.442 183.108 115.415C183.136 115.391 183.169 115.375 183.204 115.367C183.239 115.359 183.276 115.359 183.311 115.369L182.076 113.805C181.697 113.347 181.497 112.767 181.512 112.172C181.528 111.577 181.757 111.008 182.159 110.57C182.57 110.149 183.122 109.897 183.709 109.861C184.296 109.825 184.875 110.009 185.334 110.377C185.337 110.352 185.345 110.328 185.357 110.306L184.849 109.665C184.518 109.225 184.337 108.691 184.333 108.141C184.328 107.59 184.501 107.053 184.825 106.609C185.221 106.13 185.789 105.826 186.406 105.762C187.023 105.697 187.641 105.877 188.127 106.264L188.16 106.231L184.332 101.704C184.135 101.472 183.988 101.202 183.9 100.911C183.811 100.62 183.782 100.314 183.816 100.012C183.849 99.7094 183.943 99.417 184.093 99.1523C184.243 98.8876 184.445 98.6563 184.687 98.4725C185.168 98.1329 185.76 97.9889 186.343 98.0699C186.926 98.1508 187.456 98.4505 187.827 98.9083Z" fill="#E98862"/>
<path opacity="0.2" d="M188.034 106.518C188.044 106.542 188.057 106.565 188.074 106.584L191.846 110.941C191.865 110.963 191.889 110.981 191.915 110.994C191.941 111.007 191.97 111.015 191.999 111.018C192.028 111.02 192.057 111.016 192.085 111.007C192.113 110.998 192.139 110.983 192.161 110.964C192.183 110.945 192.202 110.921 192.215 110.895C192.228 110.869 192.236 110.84 192.238 110.811C192.24 110.782 192.237 110.752 192.227 110.725C192.218 110.697 192.204 110.671 192.185 110.649L188.416 106.294C188.381 106.258 188.334 106.234 188.284 106.228C188.233 106.221 188.182 106.232 188.138 106.258C188.095 106.284 188.061 106.324 188.043 106.372C188.025 106.419 188.024 106.471 188.039 106.52L188.034 106.518Z" fill="#0C0C0C"/>
<path opacity="0.2" d="M185.34 110.482C185.349 110.505 185.362 110.527 185.378 110.546L188.314 113.99C188.353 114.032 188.407 114.056 188.464 114.059C188.521 114.062 188.576 114.043 188.62 114.006C188.663 113.969 188.69 113.917 188.696 113.86C188.703 113.803 188.687 113.747 188.652 113.701L185.716 110.257C185.682 110.217 185.635 110.19 185.583 110.181C185.531 110.173 185.477 110.183 185.432 110.21C185.387 110.237 185.353 110.28 185.336 110.33C185.319 110.38 185.32 110.434 185.339 110.483L185.34 110.482Z" fill="#0C0C0C"/>
<path opacity="0.2" d="M183.048 115.663C183.058 115.689 183.072 115.712 183.09 115.733L184.518 117.327C184.537 117.349 184.561 117.367 184.587 117.379C184.613 117.392 184.642 117.399 184.671 117.401C184.7 117.403 184.729 117.398 184.757 117.389C184.785 117.379 184.81 117.364 184.832 117.345C184.853 117.325 184.871 117.301 184.884 117.275C184.896 117.249 184.904 117.22 184.905 117.191C184.907 117.162 184.903 117.132 184.893 117.105C184.884 117.077 184.869 117.052 184.849 117.03L183.425 115.435C183.39 115.397 183.343 115.373 183.292 115.365C183.241 115.358 183.189 115.368 183.145 115.395C183.101 115.422 183.068 115.463 183.051 115.511C183.034 115.56 183.034 115.613 183.051 115.661L183.048 115.663Z" fill="#0C0C0C"/>
<path d="M298.175 206.984L218.64 201.41C215.77 201.209 213.016 200.198 210.697 198.493C208.378 196.789 206.589 194.462 205.536 191.781L180.389 127.714L208.72 116.561L230.35 171.669L300.298 176.572L298.175 206.984Z" fill="#367CFF"/>
<path d="M344.356 516.646C344.356 516.646 341.811 529.857 329.457 530.596C317.104 531.335 319.783 541.188 319.783 541.188H366.99V517.568L344.356 516.646Z" fill="#367CFF"/>
<path d="M358.917 275.613C358.917 275.613 358.768 271.641 358.8 280.652C358.917 314.26 359.499 352.649 360.922 375.113C363.21 411.225 369.074 525.079 369.074 525.079L338.053 524.819L307.988 274.248L358.917 275.613Z" fill="#262626"/>
<path d="M289.132 516.646C289.132 516.646 286.586 529.857 274.233 530.596C261.88 531.335 264.559 541.188 264.559 541.188H311.766V517.568L289.132 516.646Z" fill="#367CFF"/>
<path d="M274.112 278.223C274.112 278.223 271.365 393.089 271.767 398.703L283.303 524.208L313.81 524.772L310.838 394.162C310.838 394.162 312.935 358.133 321.627 324.678C326.074 307.508 328.751 289.926 329.614 272.208L274.112 278.223Z" fill="#262626"/>
<path d="M359.254 275.61L359.355 275.616C359.355 275.616 359.282 273.657 359.254 275.61Z" fill="#333333"/>
<path d="M269.745 214.465C270.385 221.992 273.497 268.952 274.112 278.223H358.881C359.36 269.861 361.51 233.297 363.326 216.945C365.059 201.342 368.46 193.529 365.968 188.916C361.894 181.377 350.762 177.02 343.172 175.991C338.537 175.363 331.567 174.912 331.567 174.912C331.567 174.912 330.977 186.87 316.902 187.536C297.744 188.439 299.023 174.912 298.928 174.912C295.824 174.912 277.751 176.374 273.756 179.455C266.767 184.843 268.387 198.514 269.745 214.465Z" fill="#367CFF"/>
<path d="M268.575 205.033C268.503 205.033 268.434 205.006 268.381 204.956C268.329 204.907 268.297 204.839 268.293 204.767L267.612 192.815C267.608 192.74 267.633 192.667 267.683 192.611C267.733 192.555 267.803 192.521 267.877 192.517C267.952 192.513 268.025 192.539 268.08 192.589C268.136 192.639 268.17 192.708 268.175 192.783L268.859 204.735C268.863 204.809 268.838 204.883 268.788 204.939C268.738 204.994 268.668 205.028 268.594 205.033L268.575 205.033Z" fill="#0C0C0C"/>
<path d="M377.209 277.731C379.703 277.731 382.159 277.127 384.369 275.972C386.579 274.816 388.478 273.143 389.904 271.094C391.33 269.046 392.24 266.683 392.558 264.206C392.875 261.729 392.591 259.212 391.728 256.87C390.853 254.491 370.321 200.042 366.413 189.954L337.471 201.697C339.67 207.37 347.631 228.871 354.028 246.191L343.401 245.034L340.056 275.852L375.534 277.64C376.091 277.7 376.65 277.731 377.209 277.731Z" fill="#367CFF"/>
<path d="M288.83 173.881C288.925 173.869 291.525 183.669 311.818 182.144C325.866 181.09 329.294 171.513 329.614 171.513C328.099 171.191 325.64 170.856 324.967 170.497C322.755 169.307 321.143 167.857 320.332 164.748C319.698 162.316 319.374 152.953 319.374 148.256L297.756 153.121C298.057 158.42 300.166 170.703 292.775 172.878C291.546 173.237 290.221 173.567 288.83 173.881Z" fill="#E98862"/>
<path d="M298.505 163.538C307.028 164.211 317.975 160.608 320.054 149.221L321.93 138.946C324.01 127.559 319.724 117.234 309.021 115.273C298.316 113.312 288.628 121.077 286.549 132.464L285.718 137.013C284.919 141.383 283.3 162.336 298.505 163.538Z" fill="#E98862"/>
<path d="M290.603 153.083C292.133 145.386 292.834 140.25 292.753 134.831C290.598 131.049 291.165 126.702 291.654 124.825C290.171 125.769 288.426 126.217 286.672 126.105C286.672 126.105 290.235 111.783 302.344 107.929C304.571 107.061 310.257 105.964 317.807 107.001C324.229 107.883 340.058 112.692 342.32 130.54V130.55C342.395 131.142 343.915 147.586 346.943 155.476C351.016 166.083 356.735 169.378 356.59 181.616C356.403 197.357 327.508 199.452 310.082 198.275C292.656 197.098 282.925 191.358 282.797 180.014C282.664 167.303 287.543 168.484 290.603 153.083Z" fill="#0A0A0A"/>
<path d="M360.693 217.262L358.61 278.216L359.174 278.235L361.257 217.281L360.693 217.262Z" fill="#0C0C0C"/>
<path d="M16.5622 542.317H449.438C449.486 542.32 449.534 542.307 449.58 542.28C449.625 542.252 449.666 542.21 449.701 542.156C449.736 542.102 449.764 542.037 449.783 541.966C449.802 541.894 449.811 541.817 449.811 541.74C449.811 541.662 449.802 541.585 449.783 541.513C449.764 541.442 449.736 541.377 449.701 541.323C449.666 541.269 449.625 541.227 449.58 541.199C449.534 541.172 449.486 541.159 449.438 541.162H16.5622C16.5138 541.159 16.4655 541.172 16.4202 541.199C16.375 541.227 16.3337 541.269 16.2988 541.323C16.2639 541.377 16.2362 541.442 16.2172 541.513C16.1982 541.585 16.1885 541.662 16.1885 541.74C16.1885 541.817 16.1982 541.894 16.2172 541.966C16.2362 542.037 16.2639 542.102 16.2988 542.156C16.3337 542.21 16.375 542.252 16.4202 542.28C16.4655 542.307 16.5138 542.32 16.5622 542.317Z" fill="#292A2E"/>
<path d="M323.888 315.245C323.888 315.245 322.602 339.635 322.365 345.361C321.814 358.603 321.623 372.313 321.623 387.858L316.733 347.107C316.733 347.107 320.309 334.336 323.888 315.245Z" fill="#0A0A0A"/>
</svg>
