<svg width="469" height="518" viewBox="0 0 469 518" fill="none" xmlns="http://www.w3.org/2000/svg">
<path d="M194.376 1.08765H21.1154C16.1202 1.08765 12.0708 8.99389 12.0708 18.7467V391.927C12.0708 401.68 16.1202 409.587 21.1154 409.587H194.376C199.372 409.587 203.421 401.68 203.421 391.927V18.7467C203.421 8.99389 199.372 1.08765 194.376 1.08765Z" fill="white"/>
<path d="M194.205 409.676H20.9428C18.4649 409.671 16.0894 407.746 14.3373 404.325C12.5852 400.904 11.5996 396.266 11.5967 391.428V18.2477C11.5996 13.4099 12.5852 8.77173 14.3373 5.35083C16.0894 1.92993 18.4649 0.00560841 20.9428 0H194.205C196.683 0.00545294 199.058 1.92973 200.811 5.35066C202.563 8.77159 203.548 13.4098 203.551 18.2477V391.428C203.548 396.266 202.563 400.905 200.811 404.325C199.058 407.746 196.683 409.671 194.205 409.676ZM20.9428 1.17727C18.6248 1.18257 16.4025 2.98276 14.7635 6.18294C13.1244 9.38313 12.2024 13.722 12.1997 18.2477V391.428C12.2023 395.954 13.1243 400.293 14.7634 403.493C16.4024 406.694 18.6248 408.494 20.9428 408.499H194.205C196.523 408.494 198.745 406.694 200.384 403.493C202.023 400.293 202.945 395.954 202.948 391.428V18.2477C202.945 13.722 202.023 9.38313 200.384 6.18294C198.745 2.98276 196.523 1.18257 194.205 1.17727H20.9428Z" fill="#292A2E"/>
<path d="M203.249 18.2454V31.8947H11.9004V18.2454C11.9004 13.5619 12.8533 9.07025 14.5495 5.75853C16.2457 2.44681 18.5462 0.586304 20.945 0.586304H194.205C196.604 0.586304 198.904 2.44681 200.6 5.75853C202.296 9.07025 203.249 13.5619 203.249 18.2454Z" fill="#292A2E"/>
<path opacity="0.1" d="M64.6479 140.301C88.3716 140.301 107.603 120.972 107.603 97.1279C107.603 73.2838 88.3716 53.9543 64.6479 53.9543C40.9242 53.9543 21.6924 73.2838 21.6924 97.1279C21.6924 120.972 40.9242 140.301 64.6479 140.301Z" fill="#367CFF"/>
<path opacity="0.2" d="M64.6478 95.2701C72.8878 95.2701 79.5676 88.5564 79.5676 80.2746C79.5676 71.9928 72.8878 65.2791 64.6478 65.2791C56.4078 65.2791 49.728 71.9928 49.728 80.2746C49.728 88.5564 56.4078 95.2701 64.6478 95.2701Z" fill="#367CFF"/>
<path opacity="0.2" d="M96.941 125.597C92.9094 130.217 87.9429 133.919 82.3736 136.455C76.8042 138.991 70.7604 140.302 64.6462 140.301C58.532 140.301 52.4884 138.988 46.9195 136.452C41.3506 133.915 36.3847 130.212 32.354 125.591C34.4189 118.593 38.6789 112.453 44.4989 108.087C50.3189 103.721 57.3872 101.362 64.6497 101.363C71.9122 101.363 78.98 103.723 84.7992 108.091C90.6185 112.458 94.8774 118.599 96.941 125.597Z" fill="#367CFF"/>
<path opacity="0.2" d="M54.2493 169.754H24.2773C23.1957 169.754 22.3188 171.466 22.3188 173.578C22.3188 175.69 23.1957 177.401 24.2773 177.401H54.2493C55.331 177.401 56.2078 175.69 56.2078 173.578C56.2078 171.466 55.331 169.754 54.2493 169.754Z" fill="#367CFF"/>
<path opacity="0.1" d="M168.495 57.5751H121.384C119.625 57.5751 118.199 60.3594 118.199 63.794V76.6928C118.199 80.1274 119.625 82.9117 121.384 82.9117H168.495C170.254 82.9117 171.68 80.1274 171.68 76.6928V63.794C171.68 60.3594 170.254 57.5751 168.495 57.5751Z" fill="#367CFF"/>
<path opacity="0.2" d="M190.319 96.9191H119.707C118.874 96.9191 118.199 98.2368 118.199 99.8622C118.199 101.488 118.874 102.805 119.707 102.805H190.319C191.152 102.805 191.827 101.488 191.827 99.8622C191.827 98.2368 191.152 96.9191 190.319 96.9191Z" fill="#367CFF"/>
<path opacity="0.2" d="M190.319 114.578H119.707C118.874 114.578 118.199 115.896 118.199 117.521C118.199 119.147 118.874 120.464 119.707 120.464H190.319C191.152 120.464 191.827 119.147 191.827 117.521C191.827 115.896 191.152 114.578 190.319 114.578Z" fill="#367CFF"/>
<path opacity="0.2" d="M178.26 132.237H119.707C118.874 132.237 118.199 133.555 118.199 135.18C118.199 136.806 118.874 138.124 119.707 138.124H178.26C179.092 138.124 179.767 136.806 179.767 135.18C179.767 133.555 179.092 132.237 178.26 132.237Z" fill="#367CFF"/>
<path opacity="0.1" d="M98.7599 188.432H25.1501C23.5864 188.432 22.3188 190.907 22.3188 193.96V207.618C22.3188 210.671 23.5864 213.146 25.1501 213.146H98.7599C100.324 213.146 101.591 210.671 101.591 207.618V193.96C101.591 190.907 100.324 188.432 98.7599 188.432Z" fill="#367CFF"/>
<path opacity="0.2" d="M144.502 169.754H114.53C113.448 169.754 112.571 171.466 112.571 173.578C112.571 175.69 113.448 177.401 114.53 177.401H144.502C145.583 177.401 146.46 175.69 146.46 173.578C146.46 171.466 145.583 169.754 144.502 169.754Z" fill="#367CFF"/>
<path opacity="0.1" d="M189.012 188.432H115.403C113.839 188.432 112.571 190.907 112.571 193.96V207.618C112.571 210.671 113.839 213.146 115.403 213.146H189.012C190.576 213.146 191.844 210.671 191.844 207.618V193.96C191.844 190.907 190.576 188.432 189.012 188.432Z" fill="#367CFF"/>
<path opacity="0.2" d="M54.2493 233.577H24.2773C23.1957 233.577 22.3188 235.289 22.3188 237.401C22.3188 239.513 23.1957 241.225 24.2773 241.225H54.2493C55.331 241.225 56.2078 239.513 56.2078 237.401C56.2078 235.289 55.331 233.577 54.2493 233.577Z" fill="#367CFF"/>
<path opacity="0.1" d="M98.7599 252.256H25.1501C23.5864 252.256 22.3188 254.731 22.3188 257.784V271.441C22.3188 274.494 23.5864 276.969 25.1501 276.969H98.7599C100.324 276.969 101.591 274.494 101.591 271.441V257.784C101.591 254.731 100.324 252.256 98.7599 252.256Z" fill="#367CFF"/>
<path opacity="0.2" d="M144.502 233.577H114.53C113.448 233.577 112.571 235.289 112.571 237.401C112.571 239.513 113.448 241.225 114.53 241.225H144.502C145.583 241.225 146.46 239.513 146.46 237.401C146.46 235.289 145.583 233.577 144.502 233.577Z" fill="#367CFF"/>
<path opacity="0.1" d="M189.012 252.256H115.403C113.839 252.256 112.571 254.731 112.571 257.784V271.441C112.571 274.494 113.839 276.969 115.403 276.969H189.012C190.576 276.969 191.844 274.494 191.844 271.441V257.784C191.844 254.731 190.576 252.256 189.012 252.256Z" fill="#367CFF"/>
<path opacity="0.2" d="M54.2493 297.401H24.2773C23.1957 297.401 22.3188 299.113 22.3188 301.225C22.3188 303.336 23.1957 305.048 24.2773 305.048H54.2493C55.331 305.048 56.2078 303.336 56.2078 301.225C56.2078 299.113 55.331 297.401 54.2493 297.401Z" fill="#367CFF"/>
<path opacity="0.1" d="M98.7599 316.079H25.1501C23.5864 316.079 22.3188 318.554 22.3188 321.607V335.265C22.3188 338.318 23.5864 340.793 25.1501 340.793H98.7599C100.324 340.793 101.591 338.318 101.591 335.265V321.607C101.591 318.554 100.324 316.079 98.7599 316.079Z" fill="#367CFF"/>
<path opacity="0.2" d="M144.502 297.401H114.53C113.448 297.401 112.571 299.113 112.571 301.225C112.571 303.336 113.448 305.048 114.53 305.048H144.502C145.583 305.048 146.46 303.336 146.46 301.225C146.46 299.113 145.583 297.401 144.502 297.401Z" fill="#367CFF"/>
<path opacity="0.1" d="M189.012 316.079H115.403C113.839 316.079 112.571 318.554 112.571 321.607V335.265C112.571 338.318 113.839 340.793 115.403 340.793H189.012C190.576 340.793 191.844 338.318 191.844 335.265V321.607C191.844 318.554 190.576 316.079 189.012 316.079Z" fill="#367CFF"/>
<path opacity="0.2" d="M130.579 360.048H84.5686C82.7121 360.048 81.207 362.986 81.207 366.611V378.727C81.207 382.352 82.7121 385.291 84.5686 385.291H130.579C132.436 385.291 133.941 382.352 133.941 378.727V366.611C133.941 362.986 132.436 360.048 130.579 360.048Z" fill="#367CFF"/>
<path d="M115.286 433.485H15.7229L0.124023 445.168V383.325C0.124023 381.015 1.04188 378.799 2.67566 377.165C4.30944 375.531 6.52532 374.613 8.83584 374.613H115.286C117.597 374.613 119.812 375.531 121.446 377.165C123.08 378.799 123.998 381.015 123.998 383.325V424.772C123.998 425.916 123.773 427.049 123.335 428.106C122.897 429.163 122.256 430.123 121.447 430.933C120.638 431.742 119.677 432.383 118.62 432.821C117.563 433.259 116.43 433.485 115.286 433.485Z" fill="#F4F4F4"/>
<path d="M112.989 387.714H11.1352C11.0863 387.716 11.0374 387.708 10.9916 387.691C10.9458 387.673 10.9039 387.647 10.8686 387.613C10.8333 387.579 10.8051 387.538 10.7859 387.493C10.7667 387.448 10.7568 387.399 10.7568 387.35C10.7568 387.301 10.7667 387.253 10.7859 387.208C10.8051 387.163 10.8333 387.122 10.8686 387.088C10.9039 387.054 10.9458 387.028 10.9916 387.01C11.0374 386.993 11.0863 386.985 11.1352 386.987H112.989C113.038 386.985 113.087 386.993 113.133 387.01C113.179 387.028 113.221 387.054 113.256 387.088C113.291 387.122 113.319 387.163 113.339 387.208C113.358 387.253 113.368 387.301 113.368 387.35C113.368 387.399 113.358 387.448 113.339 387.493C113.319 387.538 113.291 387.579 113.256 387.613C113.221 387.647 113.179 387.673 113.133 387.691C113.087 387.708 113.038 387.716 112.989 387.714Z" fill="white"/>
<path d="M112.989 399.438H11.1352C11.0863 399.44 11.0374 399.432 10.9916 399.415C10.9458 399.398 10.9039 399.371 10.8686 399.337C10.8333 399.303 10.8051 399.263 10.7859 399.218C10.7667 399.172 10.7568 399.124 10.7568 399.075C10.7568 399.026 10.7667 398.977 10.7859 398.932C10.8051 398.887 10.8333 398.847 10.8686 398.813C10.9039 398.779 10.9458 398.752 10.9916 398.735C11.0374 398.717 11.0863 398.71 11.1352 398.711H112.989C113.038 398.71 113.087 398.717 113.133 398.735C113.179 398.752 113.221 398.779 113.256 398.813C113.291 398.847 113.319 398.887 113.339 398.932C113.358 398.977 113.368 399.026 113.368 399.075C113.368 399.124 113.358 399.172 113.339 399.218C113.319 399.263 113.291 399.303 113.256 399.337C113.221 399.371 113.179 399.398 113.133 399.415C113.087 399.432 113.038 399.44 112.989 399.438Z" fill="white"/>
<path d="M112.989 411.162H11.1352C11.0388 411.162 10.9465 411.124 10.8784 411.056C10.8102 410.988 10.772 410.895 10.772 410.799C10.772 410.703 10.8102 410.61 10.8784 410.542C10.9465 410.474 11.0388 410.436 11.1352 410.436H112.989C113.086 410.436 113.178 410.474 113.246 410.542C113.314 410.61 113.352 410.703 113.352 410.799C113.352 410.895 113.314 410.988 113.246 411.056C113.178 411.124 113.086 411.162 112.989 411.162Z" fill="white"/>
<path d="M91.1845 422.887H11.1352C11.0863 422.889 11.0374 422.881 10.9916 422.863C10.9458 422.846 10.9039 422.82 10.8686 422.786C10.8333 422.752 10.8051 422.711 10.7859 422.666C10.7667 422.621 10.7568 422.572 10.7568 422.523C10.7568 422.474 10.7667 422.426 10.7859 422.381C10.8051 422.336 10.8333 422.295 10.8686 422.261C10.9039 422.227 10.9458 422.2 10.9916 422.183C11.0374 422.166 11.0863 422.158 11.1352 422.16H91.1845C91.2334 422.158 91.2823 422.166 91.3281 422.183C91.3739 422.2 91.4158 422.227 91.4511 422.261C91.4865 422.295 91.5146 422.336 91.5338 422.381C91.553 422.426 91.5629 422.474 91.5629 422.523C91.5629 422.572 91.553 422.621 91.5338 422.666C91.5146 422.711 91.4865 422.752 91.4511 422.786C91.4158 422.82 91.3739 422.846 91.3281 422.863C91.2823 422.881 91.2334 422.889 91.1845 422.887Z" fill="white"/>
<path d="M119.476 321.572H300.55L323.493 338.76V247.797C323.493 244.398 322.142 241.139 319.739 238.736C317.335 236.334 314.076 234.984 310.677 234.984H119.476C116.077 234.984 112.819 236.334 110.416 238.737C108.013 241.14 106.662 244.399 106.662 247.797V308.757C106.662 312.156 108.012 315.415 110.415 317.818C112.818 320.221 116.077 321.571 119.476 321.572Z" fill="#F4F4F4"/>
<path d="M122.854 254.252H307.298C307.437 254.247 307.568 254.189 307.665 254.089C307.761 253.989 307.815 253.856 307.815 253.717C307.815 253.578 307.761 253.445 307.665 253.345C307.568 253.245 307.437 253.187 307.298 253.182H122.854C122.715 253.187 122.584 253.245 122.487 253.345C122.391 253.445 122.337 253.578 122.337 253.717C122.337 253.856 122.391 253.989 122.487 254.089C122.584 254.189 122.715 254.247 122.854 254.252Z" fill="white"/>
<path d="M122.854 271.497H307.298C307.437 271.492 307.568 271.434 307.665 271.334C307.761 271.234 307.815 271.101 307.815 270.962C307.815 270.823 307.761 270.69 307.665 270.59C307.568 270.49 307.437 270.432 307.298 270.427H122.854C122.715 270.432 122.584 270.49 122.487 270.59C122.391 270.69 122.337 270.823 122.337 270.962C122.337 271.101 122.391 271.234 122.487 271.334C122.584 271.434 122.715 271.492 122.854 271.497Z" fill="white"/>
<path d="M122.854 288.741H307.298C307.437 288.737 307.568 288.678 307.665 288.579C307.761 288.479 307.815 288.345 307.815 288.207C307.815 288.068 307.761 287.934 307.665 287.835C307.568 287.735 307.437 287.676 307.298 287.672H122.854C122.715 287.676 122.584 287.735 122.487 287.835C122.391 287.934 122.337 288.068 122.337 288.207C122.337 288.345 122.391 288.479 122.487 288.579C122.584 288.678 122.715 288.737 122.854 288.741Z" fill="white"/>
<path d="M154.926 305.986H307.298C307.437 305.981 307.568 305.923 307.665 305.823C307.762 305.724 307.815 305.59 307.815 305.451C307.815 305.312 307.762 305.179 307.665 305.079C307.568 304.979 307.437 304.921 307.298 304.917H154.926C154.787 304.921 154.655 304.979 154.559 305.079C154.462 305.179 154.408 305.312 154.408 305.451C154.408 305.59 154.462 305.724 154.559 305.823C154.655 305.923 154.787 305.981 154.926 305.986Z" fill="white"/>
<path d="M264.51 165.747H416.381L435.624 180.16V103.868C435.624 101.017 434.492 98.2838 432.477 96.268C430.462 94.2523 427.729 93.1194 424.878 93.1187H264.51C261.659 93.1191 258.925 94.2518 256.91 96.2676C254.894 98.2833 253.762 101.017 253.762 103.868V154.997C253.762 157.848 254.894 160.582 256.91 162.598C258.925 164.614 261.659 165.746 264.51 165.747Z" fill="#F4F4F4"/>
<path d="M267.343 109.282H422.042C422.161 109.282 422.275 109.235 422.359 109.151C422.443 109.066 422.491 108.952 422.491 108.833C422.491 108.714 422.443 108.6 422.359 108.516C422.275 108.432 422.161 108.385 422.042 108.385H267.343C267.224 108.385 267.11 108.432 267.026 108.516C266.942 108.6 266.895 108.714 266.895 108.833C266.895 108.952 266.942 109.066 267.026 109.151C267.11 109.235 267.224 109.282 267.343 109.282Z" fill="white"/>
<path d="M267.342 123.745H422.041C422.157 123.741 422.267 123.692 422.348 123.608C422.429 123.525 422.474 123.413 422.474 123.297C422.474 123.181 422.429 123.069 422.348 122.986C422.267 122.902 422.157 122.853 422.041 122.849H267.342C267.226 122.853 267.116 122.902 267.036 122.986C266.955 123.069 266.91 123.181 266.91 123.297C266.91 123.413 266.955 123.525 267.036 123.608C267.116 123.692 267.226 123.741 267.342 123.745Z" fill="white"/>
<path d="M267.342 138.212H422.041C422.157 138.207 422.267 138.158 422.348 138.075C422.429 137.991 422.474 137.88 422.474 137.763C422.474 137.647 422.429 137.536 422.348 137.452C422.267 137.368 422.157 137.319 422.041 137.315H267.342C267.226 137.319 267.116 137.368 267.036 137.452C266.955 137.536 266.91 137.647 266.91 137.763C266.91 137.88 266.955 137.991 267.036 138.075C267.116 138.158 267.226 138.207 267.342 138.212Z" fill="white"/>
<path d="M294.242 152.673H422.042C422.158 152.669 422.268 152.62 422.348 152.536C422.429 152.452 422.474 152.341 422.474 152.225C422.474 152.109 422.429 151.997 422.348 151.913C422.268 151.83 422.158 151.781 422.042 151.776H294.242C294.182 151.774 294.122 151.784 294.066 151.806C294.009 151.827 293.958 151.86 293.915 151.902C293.871 151.944 293.837 151.994 293.813 152.049C293.79 152.105 293.777 152.164 293.777 152.225C293.777 152.285 293.79 152.345 293.813 152.4C293.837 152.456 293.871 152.506 293.915 152.548C293.958 152.589 294.009 152.622 294.066 152.644C294.122 152.665 294.182 152.675 294.242 152.673Z" fill="white"/>
<path d="M453.354 518H12.494C12.4122 518 12.3337 517.969 12.2759 517.914C12.218 517.859 12.1855 517.784 12.1855 517.706C12.1855 517.628 12.218 517.553 12.2759 517.498C12.3337 517.442 12.4122 517.411 12.494 517.411H453.354C453.436 517.411 453.515 517.442 453.572 517.498C453.63 517.553 453.663 517.628 453.663 517.706C453.663 517.784 453.63 517.859 453.572 517.914C453.515 517.969 453.436 518 453.354 518Z" fill="#292A2E"/>
<path d="M369.97 272.131C340.66 272.131 316.9 280.127 316.9 289.99V311.253H423.04V289.99C423.04 280.127 399.28 272.131 369.97 272.131Z" fill="#367CFF"/>
<path opacity="0.49" d="M369.97 272.131C340.66 272.131 316.9 280.127 316.9 289.99V311.253H423.04V289.99C423.04 280.127 399.28 272.131 369.97 272.131Z" fill="white"/>
<path opacity="0.49" d="M408.584 289.993V311.251H316.9V289.993C316.9 280.951 336.855 273.482 362.742 272.301C388.631 273.48 408.584 280.951 408.584 289.993Z" fill="white"/>
<path d="M423.04 517.849L424.806 516.067L423.04 309.367L421.275 311.147L422.534 456.778L359.66 457.847L358.392 311.132L356.626 311.147L357.894 457.877L319.94 458.522L318.666 311.132L316.9 309.381L318.666 516.083L320.432 517.833L319.955 460.288L357.91 459.643L358.392 517.849L360.158 517.833L359.676 459.613L422.55 458.544L423.04 517.849Z" fill="#292A2E"/>
<path d="M260.903 486.628C260.903 486.628 257.747 502.989 242.429 503.901C227.111 504.813 230.432 517.016 230.432 517.016H288.969V487.77L260.903 486.628Z" fill="#367CFF"/>
<path d="M294.3 437.421C294.3 437.421 298.69 453.495 285.347 461.075C272.005 468.655 280.372 478.137 280.372 478.137L332.897 452.296L319.988 426.055L294.3 437.421Z" fill="#367CFF"/>
<path d="M288.743 448.044L249.164 298.714C246.162 282.217 250.682 275.066 257.647 268.12C269.882 255.915 320.582 229.939 320.582 229.939L381.405 229.774C397.534 229.774 413.388 245.677 413.388 261.805C413.388 277.932 396.992 291.61 380.865 291.61L305.965 299.086L326.268 435.819L288.743 448.044Z" fill="#262626"/>
<path d="M326.268 435.816L318.276 381.987L277.782 406.688L288.743 448.045L326.268 435.816Z" fill="#0C0C0C"/>
<path d="M335.447 260.158C335.447 260.158 309.879 265.857 284.556 291.179C269.202 306.533 270.461 334.317 272.764 387.755L297.915 350.606L325.501 300.852L335.447 260.158Z" fill="#0C0C0C"/>
<path d="M423.977 229.756L382.67 229.561L382.654 230.105H370.147C370.147 230.105 338.817 258.936 313.592 277.103C295.244 290.317 284.051 302.915 283.082 316.645C280.721 350.116 254.093 492.865 254.093 492.865L294.168 498.934L329.335 328.34C329.335 328.34 384.328 302.989 397.048 294.166C409.026 285.858 417.486 282.647 421.45 273.581C428.295 257.92 423.977 229.756 423.977 229.756Z" fill="#262626"/>
<path d="M345.945 48.9575C345.945 48.9575 339.457 41.925 339.958 28.5318C340.346 18.1618 348.486 26.3992 348.486 26.3992C348.486 26.3992 348.84 18.9347 354.016 20.6188C359.193 22.3029 360.785 30.499 360.785 30.499" fill="#0C0C0C"/>
<path d="M381.313 26.4391C381.313 26.4391 407.155 34.0325 391.164 68.018L388.804 67.7519L384.014 67.2127" fill="#0C0C0C"/>
<path d="M344.692 103.268C344.81 103.253 346.116 124.93 371.302 123.043C388.737 121.736 394.954 103.238 395.353 103.238C393.474 102.838 391.15 102.232 390.227 102.024C388.215 101.557 386.393 100.488 385.003 98.9602C383.613 97.4322 382.721 95.5173 382.446 93.4701C381.935 90.3968 382.799 74.6761 382.535 71.5669L355.772 77.5404C356.146 84.1066 358.764 99.3299 349.592 102.024C348.061 102.47 346.418 102.879 344.692 103.268Z" fill="#FFBF9D"/>
<path opacity="0.52" d="M355.396 95.8028C355.816 94.4517 356.085 93.0587 356.201 91.6488C356.495 88.4316 356.436 85.1918 356.025 81.9875C361.464 81.2532 366.589 79.0081 370.816 75.5072C371.313 77.3426 374.046 85.3616 373.289 87.1033C371.861 90.4032 365.14 95.8028 355.396 95.8028Z" fill="#0C0C0C"/>
<path d="M359.765 88.9005C370.323 89.8494 383.947 85.5352 386.679 71.4645L389.144 58.7682C391.876 44.6998 386.701 31.8563 373.452 29.284C360.204 26.7116 348.087 36.1952 345.355 50.2659L344.263 55.8868C343.922 57.8233 343.713 59.7807 343.638 61.7455C343.403 66.9367 343.063 74.8333 345.56 80.669C347.917 86.1763 353.019 88.2954 359.765 88.9005Z" fill="#FFBF9D"/>
<path d="M351.916 73.7796C355.847 74.2335 359.817 73.3646 363.199 71.3103C363.316 71.2396 363.451 71.2038 363.588 71.207C363.725 71.2102 363.858 71.2524 363.971 71.3285C364.085 71.4047 364.175 71.5117 364.23 71.637C364.285 71.7623 364.304 71.9007 364.283 72.0361C363.906 74.3529 362.546 78.5805 357.631 78.8878C354.459 79.0862 352.291 76.5515 351.215 74.8851C351.14 74.7694 351.1 74.6348 351.1 74.4971C351.099 74.3594 351.138 74.2244 351.211 74.1081C351.285 73.9918 351.391 73.899 351.516 73.8408C351.64 73.7826 351.779 73.7613 351.916 73.7796Z" fill="white"/>
<path d="M348.525 59.4322C349.443 59.4322 350.187 58.6879 350.187 57.7699C350.187 56.8518 349.443 56.1075 348.525 56.1075C347.607 56.1075 346.863 56.8518 346.863 57.7699C346.863 58.6879 347.607 59.4322 348.525 59.4322Z" fill="#0C0C0C"/>
<path d="M364.687 61.3217C365.605 61.3217 366.349 60.5775 366.349 59.6594C366.349 58.7413 365.605 57.9971 364.687 57.9971C363.769 57.9971 363.024 58.7413 363.024 59.6594C363.024 60.5775 363.769 61.3217 364.687 61.3217Z" fill="#0C0C0C"/>
<path d="M385.024 75.5914C389.05 76.3731 393.15 72.7 393.932 68.6738C394.714 64.6475 391.881 61.7938 387.855 61.0115L385.256 63.3072L381.562 74.9204L385.024 75.5914Z" fill="#FFBF9D"/>
<path d="M382.183 68.3807C382.183 68.3807 384.432 48.1775 378.604 45.8501C374.722 44.3002 363.914 48.2476 355.176 44.8829C351.35 43.4113 347.415 43.7104 346.694 45.5116C346.409 46.225 345.87 35.1345 353.532 28.1786C359.634 22.6407 376.122 23.7491 383.091 27.1891C402.39 36.7133 388.529 62.0417 388.529 62.0417L386.376 68.7574L382.183 68.3807Z" fill="#0C0C0C"/>
<g opacity="0.52">
<path d="M355.691 69.9888L355.665 69.9846C354.37 69.7362 352.217 69.1747 352.402 68.2034C352.557 67.3988 356.422 59.1349 356.862 58.1966C356.88 58.1552 356.906 58.1178 356.939 58.0866C356.972 58.0554 357.01 58.0311 357.052 58.0151C357.095 57.9992 357.139 57.9918 357.185 57.9935C357.23 57.9953 357.274 58.006 357.315 58.0252C357.356 58.0444 357.392 58.0716 357.422 58.1052C357.452 58.1387 357.475 58.178 357.49 58.2207C357.505 58.2634 357.511 58.3086 357.508 58.3536C357.504 58.3986 357.492 58.4425 357.472 58.4827C355.757 62.1417 353.168 67.7831 353.063 68.3312C353.147 68.5849 354.447 69.067 355.791 69.3248C355.876 69.3417 355.951 69.3906 356.001 69.4614C356.051 69.5323 356.071 69.6195 356.058 69.7051C356.045 69.7906 356 69.868 355.932 69.921C355.863 69.9741 355.777 69.9987 355.691 69.9899V69.9888Z" fill="#0C0C0C"/>
</g>
<path d="M354.772 49.7397C353.473 49.1172 352.03 48.8567 350.595 48.9856C349.891 49.0449 349.2 49.2094 348.545 49.4736C347.898 49.7317 347.286 50.0705 346.724 50.482C346.615 50.5522 346.538 50.663 346.51 50.7899C346.483 50.9169 346.507 51.0496 346.577 51.1589C346.647 51.2682 346.758 51.3451 346.885 51.3727C347.012 51.4003 347.144 51.3763 347.254 51.306L347.288 51.2854C347.798 50.9601 348.347 50.7001 348.921 50.5114C349.487 50.3226 350.077 50.2206 350.673 50.2088C351.848 50.1767 353.01 50.4548 354.042 51.0153L354.086 51.04C354.17 51.0879 354.263 51.1189 354.359 51.1311C354.455 51.1433 354.552 51.1364 354.645 51.1109C354.739 51.0855 354.826 51.0419 354.902 50.9826C354.979 50.9234 355.043 50.8497 355.091 50.7657C355.139 50.6817 355.17 50.5891 355.182 50.4931C355.194 50.3972 355.187 50.2998 355.162 50.2065C355.136 50.1132 355.093 50.0258 355.034 49.9493C354.974 49.8729 354.901 49.8088 354.817 49.7609C354.802 49.7556 354.787 49.7473 354.772 49.7397Z" fill="#0C0C0C"/>
<path d="M364.302 52.3132C365.434 51.9963 366.629 51.9837 367.767 52.2767C368.345 52.4208 368.898 52.6516 369.407 52.9613C369.926 53.2731 370.403 53.6488 370.827 54.0797L370.855 54.1056C370.946 54.1967 371.07 54.2481 371.199 54.2487C371.328 54.2492 371.452 54.1989 371.544 54.1086C371.636 54.0183 371.689 53.8953 371.691 53.7664C371.693 53.6374 371.644 53.5129 371.554 53.4198C371.098 52.8938 370.577 52.4273 370.003 52.0312C369.423 51.6281 368.786 51.314 368.113 51.0994C366.743 50.6548 365.279 50.5875 363.875 50.9046C363.684 50.9491 363.52 51.0673 363.416 51.2333C363.313 51.3993 363.281 51.5994 363.325 51.7896C363.37 51.9798 363.488 52.1446 363.654 52.2476C363.82 52.3507 364.02 52.3836 364.21 52.3391C364.225 52.3356 364.239 52.332 364.254 52.3273L364.302 52.3132Z" fill="#0C0C0C"/>
<path d="M367.514 30.8045C369.228 26.5743 368.288 22.2009 365.414 21.0362C362.54 19.8714 358.82 22.3564 357.106 26.5866C355.392 30.8167 356.332 35.1902 359.206 36.3549C362.08 37.5197 365.799 35.0347 367.514 30.8045Z" fill="#0C0C0C"/>
<path d="M313.401 150.997C314.195 160.316 319.817 218.461 320.583 229.94H423.932C424.525 219.586 427.192 174.313 429.444 154.067C431.593 134.748 434.606 125.956 432.13 119.952C427.763 109.363 413.865 104.634 404.453 103.36C398.705 102.582 390.061 102.024 390.061 102.024C390.061 102.024 389.329 116.83 371.877 117.654C348.12 118.772 349.707 102.024 349.589 102.024C345.74 102.024 324.791 104.823 319.552 108.237C312.154 113.059 309.967 119.631 309.881 125.669C309.782 132.62 312.5 140.427 313.401 150.997Z" fill="#367CFF"/>
<path d="M222.371 101.149C222.201 100.815 221.965 100.519 221.677 100.279C221.389 100.04 221.055 99.8611 220.696 99.7546C220.337 99.648 219.96 99.6158 219.588 99.6598C219.216 99.7038 218.857 99.8232 218.532 100.011C217.917 100.395 217.471 100.999 217.284 101.7C217.097 102.401 217.183 103.147 217.524 103.787L219.212 107.107L209.077 99.0746C207.966 98.1622 206.017 97.7531 205.075 99.067C204.68 99.5488 204.46 100.15 204.451 100.773C204.442 101.396 204.644 102.004 205.025 102.497C205.013 102.506 205.002 102.516 204.992 102.527C204.987 102.536 204.982 102.546 204.978 102.556L203.264 101.148C202.948 100.889 202.578 100.703 202.182 100.604C201.786 100.505 201.373 100.495 200.972 100.575C200.572 100.655 200.194 100.823 199.866 101.067C199.538 101.31 199.269 101.624 199.077 101.984C198.782 102.565 198.698 103.23 198.837 103.866C198.976 104.502 199.331 105.071 199.842 105.475L200.571 106.075C200.563 106.105 200.561 106.136 200.564 106.167C199.984 105.878 199.32 105.804 198.69 105.957C198.06 106.109 197.504 106.479 197.12 107.001C196.711 107.6 196.544 108.332 196.655 109.049C196.765 109.767 197.143 110.415 197.713 110.864L199.505 112.336C199.465 112.333 199.424 112.339 199.387 112.355C199.35 112.371 199.317 112.396 199.291 112.427C199.262 112.465 199.244 112.511 199.241 112.56C198.663 112.449 198.064 112.527 197.533 112.781C197.002 113.035 196.567 113.453 196.29 113.972C195.996 114.553 195.911 115.218 196.05 115.854C196.19 116.491 196.545 117.059 197.055 117.464L212.337 130.015C214.475 131.77 217.089 132.847 219.843 133.108C222.597 133.369 225.367 132.801 227.796 131.478L235.619 127.217L222.371 101.149Z" fill="#FFBF9D"/>
<g opacity="0.2">
<path d="M215.017 110.499C214.975 110.55 214.914 110.583 214.848 110.589C214.782 110.596 214.716 110.577 214.664 110.536L205.036 102.884C205.009 102.863 204.988 102.837 204.971 102.808C204.955 102.779 204.945 102.747 204.941 102.713C204.937 102.68 204.94 102.647 204.949 102.614C204.958 102.582 204.974 102.552 204.995 102.526C205.015 102.5 205.041 102.478 205.07 102.462C205.1 102.446 205.132 102.435 205.165 102.432C205.198 102.428 205.232 102.431 205.264 102.44C205.296 102.449 205.326 102.464 205.352 102.485L214.981 110.137C215.007 110.158 215.029 110.184 215.045 110.213C215.061 110.242 215.071 110.274 215.075 110.308C215.079 110.341 215.076 110.374 215.067 110.406C215.058 110.439 215.043 110.469 215.022 110.495L215.017 110.499Z" fill="#0C0C0C"/>
</g>
<g opacity="0.2">
<path d="M211.76 114.839C211.717 114.89 211.657 114.922 211.591 114.929C211.525 114.936 211.459 114.916 211.407 114.875L200.661 106.337C200.634 106.316 200.613 106.29 200.596 106.261C200.58 106.232 200.57 106.2 200.566 106.166C200.562 106.133 200.565 106.1 200.574 106.068C200.584 106.035 200.599 106.005 200.62 105.979C200.663 105.928 200.724 105.896 200.791 105.888C200.857 105.881 200.924 105.898 200.977 105.938L211.723 114.477C211.749 114.498 211.771 114.523 211.787 114.553C211.803 114.582 211.814 114.614 211.817 114.647C211.821 114.68 211.818 114.714 211.809 114.746C211.8 114.778 211.784 114.808 211.763 114.834L211.76 114.839Z" fill="#0C0C0C"/>
</g>
<g opacity="0.2">
<path d="M208.26 119.56C208.217 119.61 208.157 119.643 208.091 119.649C208.025 119.656 207.959 119.637 207.907 119.596L199.334 112.783C199.281 112.741 199.247 112.679 199.239 112.612C199.232 112.545 199.251 112.478 199.293 112.425C199.335 112.372 199.396 112.338 199.463 112.331C199.53 112.323 199.598 112.342 199.651 112.384L208.222 119.195C208.275 119.237 208.309 119.298 208.317 119.365C208.324 119.432 208.305 119.5 208.263 119.553L208.26 119.56Z" fill="#0C0C0C"/>
</g>
<path d="M368.738 251.569C368.373 251.655 368.03 251.814 367.728 252.037C367.427 252.26 367.175 252.542 366.986 252.865C366.797 253.189 366.677 253.548 366.631 253.92C366.586 254.291 366.616 254.669 366.722 255.028C366.949 255.717 367.43 256.294 368.066 256.642C368.703 256.99 369.448 257.084 370.151 256.903L373.776 256.051L363.569 263.991C362.419 264.854 361.559 266.649 362.612 267.876C362.987 268.375 363.519 268.731 364.122 268.887C364.725 269.044 365.363 268.991 365.933 268.738C365.938 268.752 365.945 268.765 365.954 268.778C365.962 268.785 365.97 268.792 365.978 268.799L364.205 270.13C363.878 270.375 363.61 270.69 363.42 271.051C363.229 271.413 363.122 271.812 363.104 272.22C363.087 272.628 363.16 273.035 363.319 273.411C363.478 273.787 363.719 274.124 364.023 274.396C364.518 274.819 365.144 275.059 365.795 275.075C366.446 275.09 367.082 274.88 367.596 274.48L368.352 273.914C368.379 273.929 368.408 273.938 368.439 273.942C368.021 274.438 367.792 275.065 367.791 275.713C367.789 276.361 368.017 276.989 368.433 277.486C368.918 278.026 369.59 278.361 370.312 278.424C371.035 278.488 371.755 278.274 372.327 277.827L374.182 276.435C374.169 276.473 374.166 276.514 374.173 276.554C374.179 276.594 374.195 276.632 374.219 276.665C374.25 276.702 374.291 276.73 374.337 276.744C374.092 277.28 374.026 277.879 374.146 278.455C374.267 279.032 374.569 279.554 375.007 279.946C375.502 280.37 376.128 280.61 376.779 280.625C377.43 280.641 378.066 280.431 378.58 280.031L394.399 268.162C396.612 266.502 398.278 264.218 399.185 261.605C400.092 258.991 400.197 256.166 399.488 253.492L397.205 244.882L368.738 251.569Z" fill="#FFBF9D"/>
<g opacity="0.2">
<path d="M376.077 260.931C376.116 260.985 376.133 261.052 376.124 261.118C376.115 261.184 376.081 261.244 376.028 261.284L366.309 268.822C366.282 268.842 366.252 268.857 366.22 268.866C366.188 268.875 366.154 268.877 366.121 268.873C366.088 268.869 366.056 268.858 366.027 268.842C365.998 268.825 365.972 268.803 365.952 268.777C365.931 268.75 365.916 268.72 365.907 268.688C365.899 268.656 365.896 268.622 365.9 268.589C365.905 268.556 365.915 268.524 365.932 268.495C365.948 268.466 365.971 268.44 365.997 268.42L375.716 260.883C375.769 260.842 375.837 260.824 375.904 260.832C375.971 260.841 376.032 260.875 376.073 260.929L376.077 260.931Z" fill="#0C0C0C"/>
</g>
<g opacity="0.2">
<path d="M379.52 265.125C379.56 265.179 379.577 265.246 379.568 265.312C379.559 265.378 379.524 265.438 379.471 265.478L368.627 273.892C368.574 273.934 368.506 273.952 368.439 273.944C368.372 273.935 368.312 273.901 368.27 273.848C368.231 273.793 368.214 273.726 368.222 273.66C368.231 273.594 368.264 273.533 368.315 273.49L379.159 265.078C379.213 265.036 379.28 265.018 379.347 265.026C379.414 265.035 379.475 265.069 379.516 265.122L379.52 265.125Z" fill="#0C0C0C"/>
</g>
<g opacity="0.2">
<path d="M383.274 269.645C383.314 269.699 383.332 269.766 383.323 269.832C383.314 269.898 383.279 269.958 383.226 269.999L374.573 276.709C374.52 276.747 374.453 276.763 374.388 276.754C374.323 276.744 374.264 276.71 374.224 276.658C374.184 276.606 374.165 276.54 374.172 276.474C374.179 276.409 374.211 276.349 374.261 276.306L382.914 269.595C382.967 269.554 383.035 269.535 383.102 269.544C383.169 269.552 383.23 269.587 383.271 269.64L383.274 269.645Z" fill="#0C0C0C"/>
</g>
<path d="M466.377 191.221L466.183 190.82L431.807 119.754L397.363 136.415L425.83 195.265L376.703 244.554L400.418 269.335L462.187 212.971C465.131 210.278 467.128 206.708 467.883 202.79C468.638 198.872 468.11 194.815 466.377 191.221Z" fill="#367CFF"/>
<path d="M391.267 230.234C391.209 230.234 391.152 230.216 391.103 230.184C391.055 230.151 391.017 230.105 390.995 230.051C390.973 229.997 390.967 229.938 390.979 229.881C390.991 229.824 391.019 229.772 391.06 229.731L426.055 195.206L400.038 143.024C400.018 142.99 400.005 142.951 400.001 142.911C399.997 142.872 400.001 142.832 400.012 142.793C400.024 142.755 400.043 142.72 400.069 142.689C400.095 142.659 400.127 142.634 400.163 142.616C400.198 142.598 400.237 142.588 400.277 142.586C400.317 142.584 400.357 142.589 400.395 142.603C400.432 142.617 400.466 142.638 400.496 142.665C400.525 142.693 400.548 142.726 400.564 142.762L426.68 195.133C426.707 195.189 426.716 195.251 426.705 195.312C426.695 195.374 426.665 195.43 426.621 195.473L391.471 230.147C391.417 230.202 391.344 230.233 391.267 230.234Z" fill="#0C0C0C"/>
<path d="M316.963 110.023L268.877 154.395L233.481 110.154L209.877 133.894L249.406 188.669C252.961 195.775 260.617 200.076 268.482 198.948C271.528 198.511 274.418 197.323 276.891 195.492L277.783 194.833L342.292 140.849L316.963 110.023Z" fill="#367CFF"/>
<path d="M314.79 163.881C314.718 163.882 314.649 163.856 314.595 163.809C314.54 163.762 314.505 163.697 314.496 163.626L312.259 146.849C312.25 146.773 312.271 146.695 312.319 146.634C312.366 146.573 312.435 146.533 312.512 146.523C312.589 146.513 312.666 146.533 312.728 146.579C312.79 146.626 312.831 146.695 312.842 146.771L315.079 163.547C315.084 163.586 315.082 163.625 315.072 163.662C315.062 163.7 315.045 163.735 315.021 163.766C314.998 163.796 314.968 163.822 314.935 163.842C314.901 163.861 314.864 163.874 314.826 163.879C314.814 163.88 314.802 163.881 314.79 163.881Z" fill="#0C0C0C"/>
<path d="M274.813 163.321C274.761 163.321 274.709 163.307 274.663 163.28C274.618 163.253 274.58 163.214 274.555 163.168L268.619 154.536C268.581 154.468 268.572 154.387 268.594 154.312C268.615 154.237 268.666 154.174 268.734 154.136C268.803 154.099 268.883 154.09 268.958 154.111C269.033 154.133 269.097 154.184 269.134 154.252L275.07 162.884C275.095 162.929 275.107 162.98 275.106 163.031C275.106 163.082 275.092 163.132 275.066 163.176C275.04 163.22 275.003 163.256 274.958 163.282C274.914 163.307 274.865 163.321 274.813 163.321Z" fill="#0C0C0C"/>
<path d="M139.601 48.8735C139.65 48.6846 139.737 48.5077 139.857 48.3535C139.977 48.1994 140.127 48.0713 140.298 47.9771C140.469 47.8829 140.658 47.8245 140.852 47.8055C141.046 47.7866 141.242 47.8074 141.428 47.8668C141.784 47.994 142.079 48.2517 142.252 48.5876C142.425 48.9236 142.465 49.3128 142.362 49.6766L141.871 51.5549L146.135 46.3373C146.599 45.7489 147.546 45.3235 148.17 45.8879C148.425 46.0892 148.604 46.3709 148.678 46.6871C148.752 47.0032 148.717 47.335 148.578 47.6284C148.585 47.6315 148.592 47.6354 148.598 47.6401C148.602 47.6442 148.605 47.6485 148.609 47.653L149.324 46.7456C149.456 46.5785 149.623 46.4428 149.814 46.3483C150.005 46.2537 150.214 46.2027 150.427 46.1988C150.64 46.1949 150.851 46.2383 151.045 46.3259C151.239 46.4134 151.411 46.543 151.549 46.7051C151.764 46.968 151.881 47.297 151.881 47.6364C151.881 47.9758 151.764 48.3048 151.549 48.5677L151.244 48.9539C151.252 48.9682 151.257 48.9838 151.258 48.9999C151.522 48.7886 151.851 48.6769 152.189 48.6844C152.526 48.692 152.851 48.8184 153.104 49.0413C153.379 49.3007 153.546 49.6549 153.57 50.0322C153.593 50.4096 153.473 50.7819 153.233 51.0739L152.484 52.023C152.5 52.0174 152.517 52.0151 152.534 52.0164C152.551 52.0177 152.568 52.0225 152.582 52.0304C152.597 52.0384 152.611 52.0494 152.621 52.0626C152.632 52.0759 152.639 52.0912 152.644 52.1076C152.926 51.9869 153.239 51.9596 153.537 52.0297C153.836 52.0998 154.104 52.2636 154.303 52.4972C154.518 52.7601 154.635 53.0891 154.635 53.4285C154.635 53.7679 154.518 54.0969 154.303 54.3598L147.92 62.451C147.027 63.5827 145.817 64.4221 144.444 64.8615C143.071 65.3009 141.598 65.3203 140.214 64.9173L135.757 63.6188L139.601 48.8735Z" fill="#FFBF9D"/>
<g opacity="0.2">
<path d="M144.385 52.815C144.412 52.8362 144.447 52.8458 144.481 52.8419C144.515 52.8381 144.547 52.8209 144.569 52.7941L148.618 47.8269C148.64 47.7997 148.651 47.7647 148.647 47.7297C148.643 47.6947 148.626 47.6626 148.599 47.6404C148.572 47.6182 148.537 47.6077 148.502 47.6113C148.467 47.6148 148.435 47.6322 148.412 47.6594L144.363 52.6267C144.341 52.6539 144.331 52.6889 144.334 52.7238C144.338 52.7588 144.355 52.7909 144.382 52.8132L144.385 52.815Z" fill="#0C0C0C"/>
</g>
<g opacity="0.2">
<path d="M146.527 54.6618C146.554 54.683 146.589 54.6927 146.623 54.6888C146.658 54.6849 146.689 54.6677 146.711 54.6409L151.231 49.0976C151.253 49.0703 151.263 49.0353 151.26 49.0002C151.256 48.9652 151.239 48.933 151.212 48.9108C151.184 48.8898 151.149 48.8801 151.115 48.8836C151.08 48.8872 151.048 48.9037 151.025 48.9298L146.505 54.4731C146.483 54.5004 146.473 54.5354 146.476 54.5704C146.48 54.6055 146.497 54.6377 146.524 54.6599L146.527 54.6618Z" fill="#0C0C0C"/>
</g>
<g opacity="0.2">
<path d="M148.835 56.6749C148.862 56.6961 148.897 56.7059 148.931 56.702C148.966 56.6981 148.997 56.6809 149.019 56.654L152.625 52.2322C152.645 52.2047 152.654 52.1705 152.65 52.1366C152.645 52.1027 152.628 52.0717 152.602 52.0502C152.575 52.0286 152.541 52.0181 152.507 52.0208C152.473 52.0235 152.442 52.0392 152.419 52.0647L148.814 56.4865C148.803 56.5 148.794 56.5156 148.789 56.5322C148.784 56.5489 148.783 56.5664 148.784 56.5837C148.786 56.6011 148.791 56.6179 148.8 56.6332C148.808 56.6485 148.819 56.6621 148.833 56.6731L148.835 56.6749Z" fill="#0C0C0C"/>
</g>
<path d="M56.486 37.9795C56.486 37.9795 54.8194 46.3778 52.5135 49.2036C45.8754 57.3383 42.9904 67.0872 47.8089 73.0014C52.6273 78.9156 87.6658 83.5488 91.8772 71.9324C95.4227 62.1528 90.7665 60.4457 90.6809 51.9864C90.6419 48.1588 90.2146 40.0875 90.2146 40.0875" fill="#0A0A0A"/>
<path d="M84.6621 67.2885C84.6007 67.2806 83.924 78.5157 70.8739 77.5341C61.8394 76.8574 58.6182 67.272 58.4111 67.272C59.3851 67.0649 61.0253 66.7637 61.4581 66.533C62.8805 65.7686 64.641 64.9732 65.0996 62.2106C65.3637 60.6182 64.9155 52.4721 65.0532 50.8607L78.9212 53.9558C78.7277 57.3583 77.3712 65.2465 82.1249 66.6425C82.9157 66.8744 83.7676 67.0867 84.6621 67.2885Z" fill="#FFBF9D"/>
<path opacity="0.5" d="M79.1156 63.4198C78.8985 62.7197 78.7586 61.9979 78.6984 61.2674C78.5464 59.6004 78.5773 57.9217 78.7904 56.2615C75.9718 55.8809 73.3163 54.7175 71.1256 52.9034C70.8683 53.8544 69.452 58.0096 69.844 58.9136C70.5842 60.6223 74.0671 63.4198 79.1156 63.4198Z" fill="#0C0C0C"/>
<path d="M76.7061 60.7446C71.2153 60.5639 64.4826 57.4823 63.9688 50.073L63.5053 43.3858C62.9915 35.9765 66.4664 29.7 73.4441 29.2163C80.4203 28.7325 86.0516 34.3774 86.5651 41.7867L86.7704 44.7466C86.9664 47.5911 86.5013 61.067 76.7061 60.7446Z" fill="#FFBF9D"/>
<path d="M76.1411 52.3463C76.9079 52.7267 78.5031 53.2359 80.7166 52.4657C80.958 52.3816 81.142 52.6568 81.0197 52.9288C80.5503 53.9718 79.4773 55.1755 77.5935 54.7632C77.1099 54.6798 76.6662 54.442 76.329 54.0855C75.9917 53.729 75.7789 53.2728 75.7223 52.7853C75.6717 52.5064 75.9257 52.2396 76.1411 52.3463Z" fill="white"/>
<path d="M84.8286 45.3201C85.3044 45.3201 85.69 44.9345 85.69 44.4588C85.69 43.9831 85.3044 43.5974 84.8286 43.5974C84.3529 43.5974 83.9673 43.9831 83.9673 44.4588C83.9673 44.9345 84.3529 45.3201 84.8286 45.3201Z" fill="#0C0C0C"/>
<path d="M75.9878 45.3201C76.4635 45.3201 76.8492 44.9345 76.8492 44.4588C76.8492 43.9831 76.4635 43.5974 75.9878 43.5974C75.5121 43.5974 75.1265 43.9831 75.1265 44.4588C75.1265 44.9345 75.5121 45.3201 75.9878 45.3201Z" fill="#0C0C0C"/>
<path opacity="0.5" d="M80.0541 50.9518H80.0676C80.3504 50.9303 80.6318 50.8931 80.9105 50.8405C81.3271 50.7589 81.8777 50.6074 81.8523 50.2371C81.8216 49.8147 80.3507 45.3398 80.1829 44.8309C80.1669 44.7882 80.1349 44.7533 80.0938 44.7336C80.0526 44.7139 80.0054 44.7109 79.9621 44.7252C79.9188 44.7395 79.8826 44.7701 79.8613 44.8104C79.84 44.8507 79.8351 44.8978 79.8476 44.9416C80.4762 46.8475 81.4805 49.9773 81.5001 50.2613C81.4388 50.384 80.7446 50.5509 80.043 50.5988C79.9979 50.6024 79.9558 50.6234 79.9256 50.6572C79.8954 50.691 79.8794 50.7351 79.8808 50.7804C79.8822 50.8257 79.901 50.8687 79.9332 50.9006C79.9655 50.9325 80.0088 50.9507 80.0541 50.9515V50.9518Z" fill="#0C0C0C"/>
<path d="M57.777 45.0204L64.0264 44.6217C68.8808 43.2953 71.2308 35.4415 71.2308 35.4415C71.2308 35.4415 76.2088 41.5919 90.2142 40.0863C90.2142 40.0863 89.7305 20.7459 68.9308 23.8913C62.224 24.9055 56.7871 30.8997 56.3325 39.7173C56.0138 45.8962 57.777 45.0204 57.777 45.0204Z" fill="#0A0A0A"/>
<path d="M64.5589 52.3002C62.4389 52.4471 60.5628 50.2983 60.4159 48.1781C60.269 46.0578 61.9064 44.7697 64.0264 44.6228L65.2175 45.9676L66.3832 52.1738L64.5589 52.3002Z" fill="#FFBF9D"/>
<path d="M81.8664 41.2838C82.5099 40.9666 83.2268 40.8283 83.9422 40.8832C84.295 40.9079 84.6422 40.9855 84.9719 41.1136C85.2993 41.2389 85.6095 41.405 85.8953 41.6081C85.9288 41.6309 85.9521 41.6659 85.9603 41.7057C85.9685 41.7455 85.9609 41.7868 85.939 41.8211C85.9172 41.8553 85.8829 41.8797 85.8434 41.889C85.8039 41.8984 85.7623 41.892 85.7275 41.8713L85.717 41.8651C85.448 41.6894 85.158 41.5481 84.8538 41.4446C84.5527 41.3408 84.2376 41.283 83.9192 41.2731C83.2869 41.2491 82.6594 41.3929 82.1007 41.69L82.0851 41.6986C82.0307 41.7286 81.9665 41.7358 81.9068 41.7186C81.847 41.7014 81.7966 41.6611 81.7665 41.6067C81.7365 41.5523 81.7293 41.4881 81.7465 41.4284C81.7637 41.3686 81.804 41.3182 81.8584 41.2881L81.8664 41.2838Z" fill="#0C0C0C"/>
<path d="M76.2511 42.1118C75.6576 41.8924 75.0166 41.8337 74.3931 41.9419C74.0789 41.994 73.7744 42.0935 73.49 42.237C73.2022 42.38 72.9335 42.5587 72.6903 42.7689L72.6814 42.7762C72.6658 42.7895 72.6476 42.7995 72.6281 42.8058C72.6086 42.812 72.588 42.8144 72.5676 42.8127C72.5471 42.811 72.5272 42.8053 72.509 42.7959C72.4908 42.7865 72.4746 42.7736 72.4613 42.758C72.4481 42.7423 72.438 42.7242 72.4318 42.7047C72.4255 42.6852 72.4232 42.6646 72.4249 42.6442C72.4265 42.6237 72.4322 42.6038 72.4416 42.5856C72.451 42.5673 72.4639 42.5511 72.4796 42.5379C72.7357 42.2985 73.021 42.0924 73.3287 41.9244C73.6383 41.7535 73.9719 41.6302 74.3182 41.5584C75.0199 41.4087 75.7488 41.4501 76.429 41.6784C76.4878 41.6987 76.5361 41.7416 76.5632 41.7975C76.5904 41.8535 76.5943 41.9179 76.5739 41.9767C76.5536 42.0355 76.5107 42.0838 76.4548 42.1109C76.3989 42.1381 76.3344 42.142 76.2756 42.1216L76.268 42.1189L76.2511 42.1118Z" fill="#0C0C0C"/>
<path d="M71.1711 34.5845C71.1711 34.5845 72.2861 42.5527 64.0283 44.4588" stroke="#0C0C0C" stroke-width="0.5" stroke-miterlimit="10"/>
<path opacity="0.1" d="M76.1443 49.6483C76.1514 48.9837 75.4225 48.4372 74.5164 48.4275C73.6102 48.4179 72.8699 48.9489 72.8629 49.6135C72.8558 50.278 73.5847 50.8246 74.4908 50.8342C75.397 50.8438 76.1373 50.3129 76.1443 49.6483Z" fill="#0C0C0C"/>
<path opacity="0.1" d="M84.2608 49.4448C84.2559 50.1086 84.9844 50.6546 85.8905 50.6654C86.0472 50.6671 86.2035 50.6525 86.3571 50.6218C86.5001 49.8479 86.6001 49.0985 86.6675 48.4015C86.4278 48.3075 86.1726 48.259 85.9151 48.2586C85.0074 48.2475 84.2672 48.7798 84.2608 49.4448Z" fill="#0C0C0C"/>
<path d="M41.016 134.033L38.6543 148.43H97.5532L95.3517 133.947L41.016 134.033Z" fill="#262626"/>
<path d="M70.5744 74.7427C61.5335 74.3166 61.1528 66.6444 61.1528 66.6444C61.1528 66.6444 56.6742 66.934 53.6954 67.3368C48.8198 67.9966 45.6039 69.6497 43.0443 72.2092C40.6633 74.5902 39.2139 77.166 40.7477 93.6129C41.8584 105.522 41.0158 134.035 41.0158 134.035L95.3514 133.948C95.3514 133.948 100.421 97.3832 100.877 92.0217C101.748 81.7882 99.8926 73.1371 97.768 71.0126C93.3999 66.6444 85.8801 66.6444 82.1237 66.645C82.0635 66.6435 82.8866 75.323 70.5744 74.7427Z" fill="#367CFF"/>
<path d="M135.197 55.6599L117.627 87.8668L96.6604 70.0938L83.7676 85.3036L114.068 110.989L114.285 111.175C115.426 112.13 116.769 112.813 118.213 113.171C119.657 113.529 121.163 113.554 122.618 113.243C124.073 112.932 125.437 112.293 126.609 111.376C127.78 110.459 128.727 109.287 129.377 107.949L150.838 63.7149L135.197 55.6599Z" fill="#367CFF"/>
<path d="M46.2671 120.755L49.5749 147.904H29.6381L26.3129 119.061C26.3019 117.825 26.5203 116.598 26.9571 115.442L41.3959 74.6807L60.3502 81.1255L46.2671 120.755Z" fill="#367CFF"/>
<path d="M49.4222 147.923L46.1099 120.734L46.124 120.698L55.2361 97.5734L55.5216 97.6863L46.4237 120.775L49.7265 147.886L49.4222 147.923Z" fill="#0C0C0C"/>
<path d="M100.958 90.8124L99.8584 99.5525L100.122 99.5856L101.221 90.8455L100.958 90.8124Z" fill="#0C0C0C"/>
</svg>
