<svg width="570" height="498" viewBox="0 0 570 498" fill="none" xmlns="http://www.w3.org/2000/svg">
<mask id="mask0_1404_1363" style="mask-type:alpha" maskUnits="userSpaceOnUse" x="175" y="0" width="218" height="218">
<rect x="175" width="218" height="218" fill="#D9D9D9"/>
</mask>
<g mask="url(#mask0_1404_1363)">
<path d="M247.667 172.583H320.333V154.417H247.667V172.583ZM247.667 145.333H320.333V127.167H247.667V145.333ZM284 111.725C293.992 102.642 302.545 94.5802 309.661 87.5406C316.776 80.501 320.333 73.1208 320.333 65.4C320.333 59.95 318.365 55.2569 314.429 51.3208C310.493 47.3847 305.8 45.4166 300.35 45.4166C297.171 45.4166 294.105 46.06 291.153 47.3468C288.201 48.6336 285.817 50.4125 284 52.6833C282.183 50.4125 279.799 48.6336 276.847 47.3468C273.895 46.06 270.829 45.4166 267.65 45.4166C262.2 45.4166 257.507 47.3847 253.571 51.3208C249.635 55.2569 247.667 59.95 247.667 65.4C247.667 73.1208 251.111 80.3875 257.999 87.2C264.887 94.0125 273.554 102.187 284 111.725ZM338.5 199.833H229.5C224.504 199.833 220.228 198.054 216.67 194.497C213.112 190.939 211.333 186.662 211.333 181.667V36.3333C211.333 31.3375 213.112 27.0607 216.67 23.5031C220.228 19.9454 224.504 18.1666 229.5 18.1666H338.5C343.496 18.1666 347.773 19.9454 351.33 23.5031C354.888 27.0607 356.667 31.3375 356.667 36.3333V181.667C356.667 186.662 354.888 190.939 351.33 194.497C347.773 198.054 343.496 199.833 338.5 199.833ZM229.5 181.667H338.5V36.3333H229.5V181.667Z" fill="#262626"/>
</g>
<path d="M570 498H0C6.24598 465.64 17.7778 438.189 34.0395 430.045C57.8243 418.148 82.9952 450.862 106.727 438.56C120.21 431.579 130.825 411.236 141.979 394.342C184.059 330.601 241.725 311.761 291.518 345.5C317.546 363.126 341.262 393.951 367.924 407.056C402.401 424.009 438.456 409.948 473.911 407.634C508.442 405.38 557.917 433.965 570 498Z" fill="#F3F5FD"/>
<path d="M207.867 408.183C202.867 406.547 197.735 408.388 192.826 412.118C199.293 395.788 201.962 381.038 190.906 380.373C183.17 379.909 177.244 385.843 172.742 394.281C171.159 379.446 167.074 368.381 157.923 372.05C147.877 376.077 146.349 389.879 147.873 404.321C143.447 396.945 138.682 392.831 134.355 397.158C121.442 410.071 153.138 446.458 153.138 446.458C153.138 446.458 180.401 456.816 191.015 445.708C205.4 430.653 219.808 412.092 207.867 408.183Z" fill="#8DDBE0"/>
<path d="M193.754 492.022H149.204L141.746 440.015H201.211L193.754 492.022Z" fill="#C1D8ED"/>
<path d="M478.482 492.022H317.388C305.57 482.591 304.756 461.344 317.004 451.855C326.445 444.543 340.717 446.499 349.591 454.105C347.931 448.443 347.896 442.428 349.491 436.747C352.377 426.517 358.791 416.125 368.584 411.988C393.574 401.443 411.332 423.537 414.891 435.888C421.291 426.479 435.602 421.506 444.591 427.84C455.972 435.862 455.457 448.51 446.379 457.588C458.479 455.333 467.585 457.073 475.979 466.078C482.361 472.935 483.339 484.615 478.482 492.022Z" fill="#8DDBE0"/>
<path d="M125.145 128.442C125.145 128.442 132.288 125.374 132.288 106.608L146.647 105.145C146.647 105.145 143.687 121.727 150.408 127.618L125.145 128.442Z" fill="#FFBF9D"/>
<path d="M124.856 98.7212C125.371 104.457 128.018 110.066 132.858 112.302C138.118 114.906 143.936 116.183 149.804 116.022C165.391 116.022 165.215 80.5655 158.425 73.1247C151.634 65.6838 129.706 68.2447 126.144 79.4676C124.302 85.2714 124.365 93.262 124.856 98.7212Z" fill="#FFBF9D"/>
<path d="M157.604 87.5258C160.63 87.5032 163.65 87.2493 166.638 86.7663C166.638 86.7663 165.723 63.7413 141.27 65.0541C138.095 64.909 134.913 65.0966 131.777 65.6137C124.427 66.7409 114.012 74.2554 112.324 93.0604C111.553 101.688 108.578 109.821 106.31 114.97C106.042 115.574 105.928 116.236 105.981 116.895C106.033 117.554 106.249 118.19 106.609 118.745C106.97 119.299 107.463 119.755 108.044 120.071C108.625 120.386 109.275 120.552 109.937 120.552L162.324 120.138C162.944 120.138 163.555 119.994 164.109 119.716C164.662 119.438 165.143 119.034 165.513 118.537C165.883 118.04 166.131 117.463 166.237 116.853C166.344 116.242 166.306 115.615 166.127 115.022C163.278 105.582 158.067 99.7986 157.604 87.5258Z" fill="#0F1011"/>
<path d="M174.596 252.025C192.318 330.091 208.363 408.681 221.026 487.736L203.226 491.397C183.657 413.765 167.377 335.221 152.846 256.499L174.596 252.025Z" fill="#FFBF9D"/>
<path d="M137.967 256.865C139.594 334.42 139.477 412.149 135.951 489.651H117.777C114.253 412.15 114.135 334.418 115.761 256.865H137.967Z" fill="#FFBF9D"/>
<path d="M159.461 496.812C159.963 496.81 160.459 496.704 160.918 496.501C161.377 496.298 161.789 496.003 162.129 495.634C162.468 495.265 162.728 494.83 162.892 494.356C163.056 493.882 163.121 493.379 163.082 492.879C163.028 492.186 162.777 491.522 162.359 490.967C161.94 490.412 161.372 489.987 160.721 489.744L139.013 482.473C138.593 482.334 138.147 482.287 137.707 482.336C137.266 482.385 136.842 482.528 136.462 482.756C133.477 484.828 129.907 485.886 126.276 485.776C123.448 485.575 120.733 484.584 118.441 482.914C118.24 482.749 117.996 482.645 117.737 482.613C117.478 482.581 117.216 482.624 116.981 482.736C116.745 482.847 116.547 483.024 116.408 483.244C116.269 483.464 116.195 483.72 116.196 483.98V494.597C116.196 494.91 116.257 495.22 116.377 495.51C116.497 495.799 116.673 496.062 116.895 496.283C117.117 496.504 117.38 496.679 117.67 496.798C117.96 496.918 118.27 496.978 118.583 496.977L159.461 496.812Z" fill="#C1D8ED"/>
<path d="M242.72 496.812C243.221 496.809 243.717 496.703 244.176 496.501C244.635 496.298 245.047 496.003 245.387 495.634C245.726 495.265 245.987 494.83 246.151 494.356C246.315 493.882 246.379 493.379 246.34 492.879C246.286 492.185 246.035 491.522 245.617 490.967C245.198 490.412 244.63 489.987 243.978 489.744L222.268 482.473C221.847 482.333 221.401 482.287 220.961 482.336C220.521 482.384 220.096 482.528 219.716 482.756C216.732 484.827 213.161 485.886 209.53 485.776C206.702 485.575 203.987 484.584 201.695 482.914C201.494 482.749 201.25 482.644 200.991 482.613C200.732 482.581 200.47 482.623 200.235 482.735C199.999 482.847 199.801 483.023 199.662 483.244C199.523 483.464 199.45 483.72 199.451 483.98V494.597C199.451 494.91 199.512 495.22 199.632 495.509C199.753 495.799 199.929 496.061 200.151 496.282C200.373 496.503 200.636 496.678 200.926 496.797C201.216 496.916 201.526 496.977 201.839 496.975L242.72 496.812Z" fill="#C1D8ED"/>
<path d="M104.504 223.378C104.504 223.378 94.4134 268.565 94.4134 306.566C94.4134 344.567 82.8271 403.425 82.8271 403.425C82.8271 403.425 115.663 398.114 137.938 403.425C176.319 412.574 210.732 392.647 210.732 392.647L172.079 227.553L104.504 223.378Z" fill="#262626"/>
<path d="M83.7579 254.132C83.7579 256.779 85.1551 265.628 82.9079 266.26C81.5595 266.639 79.9678 260.042 79.9678 260.042" fill="#FFBF9D"/>
<path d="M73.1453 252.742C73.1453 252.742 65.8048 270.608 74.1774 280.872C74.391 281.133 74.6783 281.323 75.0018 281.419C75.3254 281.514 75.6702 281.509 75.9911 281.406C76.3121 281.302 76.5943 281.104 76.801 280.837C77.0076 280.571 77.1291 280.248 77.1495 279.911C77.5563 272.991 78.9526 258.771 83.5147 260.437V249.277" fill="#FFBF9D"/>
<path d="M172.892 176.419C172.558 179.762 172.315 183.046 172.279 186.184C171.938 215.023 179.724 220.456 175.888 229.273C172.157 237.822 99.0333 241.378 98.0562 226.326C97.4345 216.754 105.873 208.393 105.873 189.735C105.802 186.189 105.333 182.663 104.476 179.222L96.2416 201.611L88.1585 256.06L69 253.218L77.2296 197.779C77.3283 197.125 77.4941 196.482 77.7243 195.861L98.1122 140.422L98.2348 140.467C99.1209 137.737 100.65 135.261 102.694 133.246C106.752 129.188 113.779 126.561 122.338 126.561C135.079 126.561 152.481 126.589 156.047 126.739C166.475 127.183 171.587 131.679 173.832 138.386C173.832 138.389 174.987 151.525 172.892 176.419Z" fill="#367CFF"/>
<path d="M247.351 168.446C247.351 168.446 259.999 165.064 261.83 162.672C263.66 160.28 259.333 152.124 259.333 152.124C259.333 152.124 271.995 147.075 270.798 145.026C269.387 142.607 253.559 151.075 253.559 151.075C253.559 151.075 257.023 147.058 255.355 145.972C254.671 145.528 253.769 145.997 251.181 148.781C248.234 151.953 243.151 156.444 243.151 156.444L247.351 168.446Z" fill="#FFBF9D"/>
<path d="M194.831 205.75C193.108 205.749 191.416 205.289 189.93 204.417C188.444 203.545 187.217 202.293 186.376 200.789L154.297 143.368L171.205 133.921L196.64 182.117L241.769 154.214L251.304 169.836C251.304 169.836 215.671 194.344 204.338 201.111C201.949 202.537 197.579 205.75 194.831 205.75Z" fill="#367CFF"/>
<path d="M443.957 488.082C443.957 488.082 443.894 468.765 443.894 467.054H462.547C462.547 468.759 462.61 488.021 462.61 488.021L443.957 488.082Z" fill="#FFBF9D"/>
<path d="M421.281 495.296C420.78 495.294 420.284 495.188 419.825 494.985C419.366 494.783 418.954 494.488 418.614 494.119C418.275 493.749 418.015 493.314 417.851 492.84C417.687 492.366 417.622 491.863 417.661 491.363C417.715 490.67 417.966 490.007 418.384 489.451C418.803 488.896 419.371 488.472 420.023 488.229L441.733 480.958C442.154 480.818 442.6 480.771 443.04 480.82C443.481 480.869 443.905 481.013 444.285 481.241C447.269 483.312 450.84 484.371 454.471 484.261C457.299 484.06 460.014 483.068 462.306 481.399C462.507 481.234 462.751 481.129 463.01 481.097C463.269 481.066 463.531 481.108 463.766 481.22C464.002 481.332 464.2 481.508 464.339 481.728C464.478 481.949 464.551 482.204 464.55 482.465V493.081C464.551 493.394 464.489 493.705 464.369 493.994C464.249 494.283 464.072 494.546 463.851 494.767C463.629 494.988 463.365 495.163 463.075 495.282C462.786 495.401 462.475 495.461 462.162 495.46L421.281 495.296Z" fill="#C1D8ED"/>
<path d="M369.632 485.849C367.666 469.312 367.666 467.611 367.666 467.051H386.319C386.319 466.995 386.319 466.922 386.319 466.834C386.384 468.215 387.326 476.635 388.159 483.646L369.632 485.849Z" fill="#FFBF9D"/>
<path d="M434.669 481.674L467.418 478.907C463.428 417.872 451.085 220.614 451.085 220.614L383.51 224.789L382.815 229.523L382.578 229.453C374.655 271.454 371.283 317.844 364.86 360.144C364.408 399.315 364.284 440.345 362.751 479.41L395.617 479.97C395.512 441.839 396.459 401.942 397.58 363.699C403.187 333.2 407.577 301.282 414.026 270.485C419.655 333.907 428.73 421.09 434.669 481.674Z" fill="#262626"/>
<path d="M346.905 495.296C346.404 495.294 345.908 495.188 345.449 494.986C344.99 494.783 344.578 494.488 344.238 494.119C343.898 493.75 343.638 493.314 343.474 492.84C343.31 492.366 343.246 491.863 343.285 491.363C343.339 490.67 343.59 490.007 344.008 489.452C344.427 488.896 344.995 488.472 345.646 488.229L367.357 480.957C367.778 480.818 368.224 480.771 368.664 480.82C369.104 480.869 369.529 481.013 369.908 481.241C372.893 483.312 376.464 484.371 380.095 484.261C382.923 484.06 385.637 483.068 387.929 481.399C388.131 481.234 388.375 481.129 388.633 481.097C388.892 481.066 389.154 481.108 389.39 481.22C389.625 481.332 389.824 481.508 389.963 481.729C390.102 481.949 390.175 482.204 390.175 482.465V493.081C390.175 493.394 390.113 493.704 389.993 493.994C389.872 494.283 389.696 494.546 389.474 494.767C389.252 494.988 388.989 495.163 388.699 495.282C388.41 495.401 388.099 495.461 387.786 495.46L346.905 495.296Z" fill="#C1D8ED"/>
<path d="M423.639 112.898C423.628 112.81 423.625 112.721 423.623 112.632C423.577 111.016 423.591 109.265 423.696 107.343L409.443 105.106C409.754 108.092 409.806 111.099 409.598 114.094C409.559 114.61 409.512 115.135 409.456 115.671C408.966 120.029 407.701 124.642 404.706 127.161L426.903 126.539C425.432 124.133 423.883 119.955 423.639 112.898Z" fill="#FFBF9D"/>
<path d="M431.543 99.8626C430.721 105.563 427.777 111.022 422.826 112.995C416.947 115.338 412.551 115.608 405.703 115.801C396.358 116.068 396.392 106.31 395.853 96.4961C395.311 86.6428 395.797 76.0434 399.395 72.5037C406.573 65.4369 428.334 69.1702 431.289 80.5681C432.816 86.4625 432.325 94.438 431.543 99.8626Z" fill="#FFBF9D"/>
<path d="M390.332 78.4638C390.332 78.4638 386.48 77.7168 387.421 73.8707C388.043 71.3205 391.303 71.7913 391.303 71.7913C391.303 71.7913 388.217 71.3152 388.141 68.6354C388.093 66.9477 389.31 64.0485 393.272 65.5736C397.919 67.3625 403.152 66.969 407.116 66.1865C409.356 65.6294 411.634 65.2419 413.932 65.0273H413.944C416.589 64.9069 419.237 65.1853 421.8 65.8534C428.98 67.7835 440.105 73.8875 438.054 88.4041C435.839 104.093 426.522 111.223 425.242 112.209C422.833 114.066 407.722 114.855 406.182 113.399C403.872 111.22 402.399 102.237 402.414 86.5157C396.189 85.7092 391.919 85.4107 391.919 85.4107C391.919 85.4107 386.767 85.7492 386.665 81.9848C386.563 78.2204 390.332 78.4638 390.332 78.4638Z" fill="#0F1011"/>
<path d="M398.22 98.2929C398.176 99.0117 398.275 99.7321 398.51 100.413C398.746 101.093 399.114 101.72 399.593 102.258C400.072 102.795 400.653 103.233 401.302 103.545C401.951 103.857 402.655 104.037 403.374 104.076C404.093 104.115 404.813 104.01 405.492 103.769C406.17 103.529 406.794 103.156 407.328 102.673C407.862 102.189 408.295 101.605 408.602 100.954C408.909 100.302 409.084 99.5967 409.117 98.8774C409.168 98.1596 409.074 97.4389 408.84 96.7582C408.607 96.0775 408.239 95.4508 407.758 94.9152C407.277 94.3796 406.694 93.9462 406.042 93.6406C405.391 93.3351 404.684 93.1637 403.965 93.1367C400.07 93.1198 398.382 95.288 398.22 98.2929Z" fill="#FFBF9D"/>
<path d="M476.704 260.413L466.092 261.802C466.092 264.449 464.694 273.298 466.942 273.931C467.797 274.171 468.748 271.611 469.331 269.703C471.566 273.468 472.401 282.494 472.7 287.582C472.72 287.919 472.842 288.242 473.048 288.508C473.255 288.775 473.537 288.973 473.858 289.077C474.179 289.18 474.524 289.185 474.847 289.09C475.171 288.994 475.458 288.804 475.672 288.543C484.045 278.282 476.704 260.413 476.704 260.413Z" fill="#FFBF9D"/>
<path d="M382.453 184.669C382.165 160.036 369.218 126.489 398.686 125.227C402.252 125.074 419.654 125.05 432.394 125.05C440.954 125.05 447.981 127.676 452.039 131.734C466.029 145.725 448.857 169.566 448.857 188.227C448.857 206.888 457.295 215.245 456.674 224.818C455.697 239.87 382.569 236.314 378.843 227.764C375.007 218.941 382.793 213.508 382.453 184.669Z" fill="#367CFF"/>
<path d="M463.044 264.818L455.726 196.483L436.426 142.638L454.657 136.103L474.347 191.035C474.606 191.758 474.778 192.509 474.86 193.272L482.301 262.755L463.044 264.818Z" fill="#367CFF"/>
<path d="M305.484 161.505C306.326 159.746 307.298 157.064 306.106 155.868C304.884 154.646 302.841 157.551 301.589 159.674C298.718 158.459 295.507 157.446 294.498 158.454C292.544 160.408 290.212 166.991 291.37 170.118C292.528 173.246 304.072 173.812 304.072 173.812L307.891 162.124C307.068 162.01 306.26 161.803 305.484 161.505Z" fill="#FFBF9D"/>
<path d="M353.318 191.968C352.391 191.968 351.47 191.835 350.581 191.572L302.074 177.271L307.549 158.694L349.994 171.205L384.369 130.461L399.172 142.95L360.72 188.524C359.811 189.603 358.678 190.469 357.4 191.064C356.121 191.659 354.728 191.967 353.318 191.968Z" fill="#367CFF"/>
</svg>
