<svg width="397" height="396" viewBox="0 0 397 396" fill="none" xmlns="http://www.w3.org/2000/svg">
<mask id="mask0_1405_3186" style="mask-type:luminance" maskUnits="userSpaceOnUse" x="0" y="0" width="397" height="396">
<path d="M0 9.47206e-05H396.694V396H0V9.47206e-05Z" fill="white"/>
</mask>
<g mask="url(#mask0_1405_3186)">
<g opacity="0.100006">
<path d="M396.347 197.999C389.933 307.351 296.087 396.001 186.736 396.001C77.3801 396.001 -6.06649 307.351 0.347549 197.999C6.76159 88.6473 100.608 -0.00290204 209.96 -0.00290204C319.311 -0.00290204 402.762 88.6473 396.347 197.999Z" fill="#007CFF"/>
</g>
</g>
<path d="M59.694 329.153C26.4323 293.885 9.72408 247.03 12.6464 197.226L16.4096 197.448C13.5514 246.204 29.8976 292.06 62.4391 326.566L59.694 329.153Z" fill="#007CFF"/>
<path d="M384.05 198.772L380.287 198.55C381.275 181.702 379.97 165.035 376.411 149.013L380.095 148.195C383.726 164.56 385.061 181.574 384.05 198.772Z" fill="#007CFF"/>
<path d="M365.559 116.223C357.837 99.0092 347.305 83.2663 334.258 69.4315C316.196 50.2798 294.567 35.9586 269.971 26.8673L271.279 23.3303C296.426 32.6252 318.538 47.2633 337.003 66.8447C350.34 80.985 361.106 97.0824 368.998 114.68L365.559 116.223Z" fill="#007CFF"/>
<path d="M370.874 197.999C365.286 293.282 283.513 370.526 188.23 370.526C92.9436 370.526 20.2323 293.282 25.8205 197.999C31.4088 102.716 113.181 25.4726 208.468 25.4726C303.751 25.4726 376.462 102.716 370.874 197.999Z" fill="#007CFF"/>
<path d="M179.159 221.385C179.193 221.378 179.231 221.363 179.265 221.355C187.557 219.534 191.433 212.426 193.198 204.349C193.375 203.516 193.537 202.678 193.677 201.826C193.714 201.581 193.756 201.336 193.79 201.091C194.295 197.678 194.499 194.198 194.551 190.933C178.831 189.217 165.645 176.977 164.906 158.742C164.344 144.952 167.489 127.007 174.977 112.622C173.465 112.825 171.697 113.395 169.883 114.733C169.585 114.952 169.219 115.027 168.88 114.967C168.563 114.911 168.262 114.737 168.054 114.458C167.624 113.874 167.749 113.055 168.33 112.629C171.327 110.416 174.276 109.895 176.474 109.914C177.006 108.994 177.538 108.074 178.111 107.196C175.716 107.248 173.379 107.252 171.12 107.199C173.605 89.7785 207.115 75.1405 229.977 88.5078C240.14 90.5402 256.946 105.069 256.946 105.069C256.946 105.069 257.606 117.667 256.162 132.878L256.158 132.886C254.665 148.621 250.92 167.154 241.852 177.467C244.227 172.128 244.812 166.479 244.246 160.721C241.848 163.055 239.095 164.5 236.41 165.171C235.324 167.565 234.103 169.752 232.711 171.822C229.159 187.991 226.648 209.564 232.048 221.932C236.901 222.237 241.629 222.679 246.101 223.191C246.475 223.237 246.829 223.323 247.198 223.38C250.132 221.649 252.99 219.73 255.735 217.588C289.65 191.17 253.631 160.227 262.134 131.83C270.637 103.432 263.447 92.6594 240.249 91.7205C249.887 76.4037 188.778 51.8675 161.946 99.5146C137.628 142.69 129.77 164.228 138.526 197.999C141.293 208.689 148.906 217.565 159.306 223.991C160.999 223.534 162.726 223.15 164.517 222.924C169.306 222.324 174.28 221.796 179.159 221.385Z" fill="#1A2E35"/>
<path d="M126.405 287.771C124.758 284.961 123.442 282.36 122.491 280.271C119.931 287.869 117.408 295.486 114.901 302.997C112.593 309.792 110.342 316.575 108.019 323.05L104.528 332.22L103 335.84C102.48 336.858 103 336.281 102.944 336.553C102.265 337.552 99.931 339.728 97.6233 341.715C97.1783 342.096 96.6806 342.488 96.2168 342.873C106.537 349.822 117.725 355.652 129.663 360.105C129.92 342.873 132.05 324.961 134.282 320.165C120.972 310.719 123.023 300.444 126.405 287.771Z" fill="#DAA487"/>
<path d="M139.629 236.925C139.305 237.336 138.984 237.792 138.66 238.229C138.977 237.792 139.308 237.373 139.644 236.951L139.629 236.925Z" fill="#1A2E35"/>
<path d="M130.9 262.176C130.885 253.594 133.524 245.532 138.121 238.952C128.551 252.263 120.398 275.125 120.398 275.125C120.398 275.125 121.073 277.146 122.495 280.268C123.441 282.361 124.757 284.959 126.405 287.772C128.426 280.204 130.919 271.784 130.9 262.176Z" fill="#1A2E35"/>
<path d="M262.357 316.88C258.36 311.163 254.212 303.904 250.476 296.242C249.325 296.853 248.175 297.464 246.969 297.984C235.668 286.035 226.007 276.393 226.007 276.393C211.897 246.985 220.623 230.22 247.35 223.418C251.433 224.168 255.362 225.884 259.046 228.12C255.623 225.726 251.614 224.063 247.199 223.38C246.829 223.324 246.475 223.237 246.101 223.192C241.629 222.679 236.901 222.234 232.048 221.932C233.077 224.685 208.877 259.459 193.703 265.194C187.466 249.519 170.012 248.441 170.012 248.441C170.012 248.441 153.729 245.103 148.665 255.349C151.999 234.172 172.395 223.011 179.159 221.385C174.28 221.796 169.306 222.321 164.518 222.924C162.726 223.15 160.999 223.535 159.306 223.991C151.358 226.148 144.585 230.767 139.646 236.951C139.31 237.373 138.978 237.792 138.658 238.229C138.481 238.471 138.292 238.708 138.119 238.953C133.522 245.533 130.883 253.591 130.901 262.177C130.92 271.785 128.424 280.202 126.407 287.769C123.024 300.443 120.969 310.722 134.284 320.164C132.051 324.964 129.917 342.875 129.665 360.104C147.726 366.842 167.44 370.526 188.228 370.526C214.393 370.526 239.522 364.67 262.353 354.248C261.833 342.178 261.656 328.113 262.678 312.125L262.67 312.113C262.568 313.697 262.436 315.334 262.357 316.88Z" fill="#1A2E35"/>
<path d="M170.012 248.441C170.012 248.441 187.467 249.52 193.704 265.195C208.877 259.459 233.078 224.685 232.049 221.933C232.049 221.933 197.716 238.622 170.012 248.441Z" fill="white"/>
<path d="M179.264 221.356C179.234 221.359 179.192 221.378 179.158 221.386C172.394 223.011 151.998 234.172 148.664 255.349C153.728 245.104 170.011 248.441 170.011 248.441C164.788 228.626 179.264 221.356 179.264 221.356Z" fill="white"/>
<path d="M232.71 171.824C229.731 176.251 225.915 180.093 220.504 183.902C218.411 185.376 216.266 186.53 214.098 187.544C209.226 195.979 200.538 202.02 193.072 204.995C193.121 204.784 193.147 204.561 193.196 204.347C191.432 212.427 187.555 219.531 179.263 221.356C179.263 221.356 164.787 228.623 170.01 248.442C197.714 238.619 232.05 221.933 232.05 221.933C226.65 209.565 229.162 187.993 232.71 171.824Z" fill="#DAA487"/>
<path d="M193.197 204.349C193.378 203.515 193.536 202.674 193.676 201.83C193.54 202.678 193.374 203.515 193.197 204.349Z" fill="#1A2E35"/>
<mask id="mask1_1405_3186" style="mask-type:luminance" maskUnits="userSpaceOnUse" x="193" y="201" width="1" height="4">
<path d="M193.198 201.829H193.673V204.348H193.198V201.829Z" fill="white"/>
</mask>
<g mask="url(#mask1_1405_3186)">
<g opacity="0.199997">
<path d="M193.197 204.348C193.378 203.515 193.536 202.674 193.676 201.829C193.54 202.678 193.374 203.515 193.197 204.348Z" fill="black"/>
</g>
</g>
<path d="M194.551 190.934C194.499 194.195 194.295 197.68 193.79 201.088C194.306 197.672 194.514 194.188 194.563 190.934H194.551Z" fill="#1A2E35"/>
<mask id="mask2_1405_3186" style="mask-type:luminance" maskUnits="userSpaceOnUse" x="193" y="190" width="2" height="12">
<path d="M193.79 190.935H194.563V201.09H193.79V190.935Z" fill="white"/>
</mask>
<g mask="url(#mask2_1405_3186)">
<g opacity="0.199997">
<path d="M194.551 190.934C194.499 194.195 194.295 197.68 193.79 201.088C194.306 197.672 194.514 194.188 194.563 190.934H194.551Z" fill="black"/>
</g>
</g>
<path d="M214.097 187.544C207.593 190.587 200.885 191.624 194.561 190.934C194.512 194.188 194.305 197.672 193.792 201.088C193.754 201.337 193.717 201.582 193.675 201.827C193.536 202.676 193.377 203.517 193.196 204.35C193.147 204.561 193.121 204.784 193.072 204.995C200.538 202.02 209.226 195.979 214.097 187.544Z" fill="#DAA487"/>
<mask id="mask3_1405_3186" style="mask-type:luminance" maskUnits="userSpaceOnUse" x="193" y="187" width="22" height="18">
<path d="M193.07 187.546H214.099V204.997H193.07V187.546Z" fill="white"/>
</mask>
<g mask="url(#mask3_1405_3186)">
<g opacity="0.199997">
<path d="M214.097 187.544C207.593 190.587 200.885 191.624 194.561 190.934C194.512 194.188 194.305 197.672 193.792 201.088C193.754 201.337 193.716 201.582 193.675 201.827C193.535 202.676 193.377 203.517 193.196 204.35C193.147 204.561 193.121 204.784 193.072 204.995C200.538 202.02 209.225 195.979 214.097 187.544Z" fill="black"/>
</g>
</g>
<path d="M189.483 158.952C189.128 158.884 188.898 158.541 188.966 158.183C189.03 157.832 189.366 157.602 189.732 157.666C199.317 159.514 205.094 153.665 205.154 153.609C205.403 153.345 205.818 153.341 206.078 153.59C206.338 153.843 206.346 154.254 206.093 154.514C205.874 154.744 201.225 159.453 193.212 159.34C192.039 159.321 190.795 159.201 189.483 158.952ZM182.19 148.846C182.19 148.846 177.043 149.133 174.675 145.886C179.63 142.127 185.15 133.428 185.15 133.428L182.19 148.846ZM173.45 130.554C173.691 129.299 174.306 128.307 175.041 127.692C173.408 127.074 172.447 124.812 172.447 124.812L177.405 127.334C177.379 127.353 177.352 127.353 177.322 127.372C178.401 127.994 178.989 129.665 178.627 131.546C178.208 133.737 176.708 135.283 175.278 135.011C173.849 134.736 173.031 132.741 173.45 130.554ZM204.37 132.112C204.343 132.131 204.317 132.131 204.287 132.149C205.361 132.772 205.953 134.442 205.592 136.327C205.173 138.511 203.672 140.06 202.243 139.785C200.814 139.514 199.996 137.519 200.414 135.332C200.656 134.073 201.266 133.081 202.006 132.47C200.373 131.852 199.411 129.589 199.411 129.589L204.37 132.112ZM205.686 113.481C205.938 113.518 211.911 114.37 215.037 120.901C215.346 121.554 215.071 122.334 214.419 122.647C214.106 122.794 213.763 122.809 213.454 122.708C213.125 122.602 212.839 122.364 212.677 122.029C210.158 116.769 205.399 116.082 205.343 116.075C204.638 115.977 204.125 115.324 204.219 114.608C204.313 113.892 204.969 113.39 205.686 113.481ZM214.098 187.545C216.263 186.531 218.412 185.374 220.505 183.903C225.916 180.091 229.732 176.252 232.711 171.825C234.102 169.751 235.324 167.564 236.41 165.17C235.701 165.347 234.988 165.558 234.306 165.622C228.02 166.222 226.229 159.125 229.102 152.768C229.981 150.83 231.3 148.729 232.877 146.878C231.112 141.399 231.772 135.494 234.012 130.592C228.261 118.82 222.194 108.047 221.64 100.064C206.297 104.819 191.289 106.897 178.11 107.195C177.537 108.073 177.005 108.993 176.474 109.913C178.544 109.932 179.954 110.426 180.067 110.471C180.746 110.724 181.089 111.478 180.837 112.153C180.584 112.828 179.834 113.171 179.159 112.922C179.023 112.87 177.322 112.3 174.977 112.621C167.488 127.006 164.343 144.951 164.905 158.741C165.644 176.976 178.831 189.216 194.551 190.932C194.555 190.935 194.558 190.935 194.562 190.935C200.886 191.625 207.594 190.588 214.098 187.545Z" fill="#DAA487"/>
<path d="M239.234 142.148C237.654 138.234 235.855 134.365 234.011 130.594C231.771 135.492 231.111 141.401 232.876 146.88C234.728 144.712 236.937 142.906 239.234 142.148Z" fill="#1A2E35"/>
<path d="M202.005 132.47C201.27 133.081 200.659 134.073 200.414 135.332C199.995 137.519 200.813 139.514 202.242 139.785C203.672 140.061 205.172 138.511 205.591 136.324C205.953 134.442 205.365 132.772 204.286 132.15C203.423 132.708 202.665 132.719 202.005 132.47Z" fill="#1A2E35"/>
<path d="M178.627 131.548C178.989 129.662 178.401 127.996 177.322 127.374C176.459 127.935 175.701 127.943 175.041 127.694C174.306 128.305 173.691 129.297 173.45 130.552C173.031 132.739 173.849 134.734 175.278 135.009C176.707 135.285 178.208 133.735 178.627 131.548Z" fill="#1A2E35"/>
<path d="M177.323 127.372C177.354 127.353 177.376 127.353 177.406 127.334L172.444 124.812C172.444 124.812 173.409 127.074 175.042 127.693C175.698 127.945 176.46 127.934 177.323 127.372Z" fill="#1A2E35"/>
<path d="M174.674 145.885C177.042 149.136 182.189 148.845 182.189 148.845L185.149 133.427C185.149 133.427 179.629 142.126 174.674 145.885Z" fill="#AE836C"/>
<path d="M206.077 153.591C205.817 153.342 205.402 153.346 205.154 153.606C205.093 153.666 199.32 159.515 189.731 157.667C189.365 157.599 189.03 157.833 188.966 158.184C188.898 158.542 189.128 158.885 189.482 158.953C190.795 159.202 192.039 159.322 193.212 159.341C201.224 159.454 205.874 154.745 206.092 154.515C206.345 154.255 206.338 153.84 206.077 153.591Z" fill="#1A2E35"/>
<path d="M239.234 142.148C236.937 142.906 234.728 144.712 232.876 146.88C231.3 148.728 229.98 150.832 229.102 152.77C226.228 159.127 228.02 166.22 234.305 165.624C234.988 165.557 235.701 165.349 236.409 165.172C239.094 164.497 241.847 163.053 244.245 160.719C243.642 154.58 241.722 148.313 239.234 142.148Z" fill="#DAA487"/>
<path d="M222.422 94.4073C222.656 88.9662 225.744 87.6577 229.975 88.5061C207.112 75.1388 173.606 89.7769 171.117 107.198C173.379 107.251 175.717 107.247 178.108 107.194C191.29 106.896 206.298 104.818 221.641 100.063C221.494 97.9782 221.705 96.0778 222.422 94.4073Z" fill="#1A2E35"/>
<path d="M222.421 94.4072C221.705 96.0777 221.494 97.9781 221.641 100.063C222.195 108.046 228.262 118.823 234.013 130.591C235.856 134.362 237.655 138.235 239.231 142.149C241.724 148.31 243.643 154.581 244.246 160.72C244.812 166.477 244.228 172.126 241.852 177.465C250.921 167.152 254.665 148.619 256.158 132.884L256.162 132.88C257.606 117.665 256.946 105.071 256.946 105.071C256.946 105.071 240.14 90.5422 229.974 88.506C225.743 87.6576 222.655 88.966 222.421 94.4072Z" fill="#1A2E35"/>
<path d="M205.343 116.076C205.399 116.084 210.158 116.77 212.677 122.03C212.839 122.366 213.125 122.6 213.454 122.709C213.763 122.807 214.106 122.796 214.419 122.645C215.071 122.332 215.346 121.552 215.037 120.899C211.911 114.372 205.938 113.516 205.686 113.482C204.969 113.388 204.313 113.889 204.219 114.606C204.125 115.326 204.637 115.975 205.343 116.076Z" fill="#1A2E35"/>
<path d="M179.157 112.923C179.832 113.171 180.582 112.828 180.835 112.153C181.087 111.478 180.744 110.724 180.069 110.472C179.952 110.426 178.542 109.932 176.472 109.914C174.274 109.895 171.325 110.415 168.327 112.628C167.75 113.055 167.626 113.873 168.052 114.457C168.259 114.736 168.561 114.91 168.881 114.966C169.221 115.027 169.583 114.955 169.885 114.733C171.694 113.394 173.467 112.828 174.975 112.621C177.32 112.3 179.021 112.87 179.157 112.923Z" fill="#1A2E35"/>
<path d="M202.004 132.47C202.664 132.719 203.422 132.708 204.285 132.15C204.316 132.131 204.342 132.131 204.368 132.112L199.41 129.59C199.41 129.59 200.371 131.852 202.004 132.47Z" fill="#1A2E35"/>
<path d="M262.357 316.88C262.436 315.334 262.568 313.697 262.67 312.114C260.562 308.743 258.383 305.364 256.169 301.985C254.736 299.84 253.273 297.687 251.818 295.537C251.377 295.786 250.92 296.005 250.475 296.243C254.212 303.905 258.36 311.163 262.357 316.88Z" fill="#1A2E35"/>
<mask id="mask4_1405_3186" style="mask-type:luminance" maskUnits="userSpaceOnUse" x="250" y="295" width="13" height="22">
<path d="M250.475 295.536H262.67V316.879H250.475V295.536Z" fill="white"/>
</mask>
<g mask="url(#mask4_1405_3186)">
<g opacity="0.199997">
<path d="M262.357 316.88C262.436 315.334 262.568 313.697 262.67 312.114C260.562 308.742 258.383 305.364 256.169 301.985C254.736 299.84 253.273 297.687 251.818 295.537C251.377 295.786 250.92 296.005 250.475 296.242C254.212 303.905 258.36 311.163 262.357 316.88Z" fill="black"/>
</g>
</g>
<path d="M273.566 348.121L273.445 348.724C288.49 340.595 302.348 330.417 314.622 318.577C312.487 312.216 310.029 306.394 307.389 300.745C303.668 292.634 299.527 285.089 295.187 277.721C291.45 271.239 287.423 265.044 283.313 258.928C279.463 266.809 268.834 285.787 251.816 295.538C253.275 297.687 254.738 299.84 256.168 301.986C258.385 305.364 260.561 308.743 262.672 312.114L262.676 312.125C264.535 315.093 266.337 318.049 268.023 320.99C270.896 326.088 273.626 331.198 275.7 335.896L275.312 338.468C274.806 341.609 274.214 344.84 273.566 348.121Z" fill="#DAA487"/>
<path d="M226.006 276.392C226.006 276.392 235.67 286.038 246.971 297.987C248.174 297.463 249.328 296.856 250.474 296.241C250.923 296.004 251.379 295.789 251.817 295.536C268.834 285.785 279.46 266.807 283.31 258.93C284.392 256.716 284.969 255.34 284.969 255.34C284.969 255.34 274.057 237.233 259.049 228.123C255.361 225.883 251.432 224.167 247.348 223.417C220.621 230.219 211.896 246.984 226.006 276.392Z" fill="#1A2E35"/>
</svg>
