<svg width="600" height="601" viewBox="0 0 600 601" fill="none" xmlns="http://www.w3.org/2000/svg">
<mask id="mask0_1405_3761" style="mask-type:luminance" maskUnits="userSpaceOnUse" x="0" y="0" width="600" height="601">
<path d="M0 0.66648H600V600.667H0V0.66648Z" fill="white"/>
</mask>
<g mask="url(#mask0_1405_3761)">
<path d="M363.695 53.8349C349.905 43.9109 331.735 42.2249 316.383 49.2857C241.47 83.7401 -5.8103 205.315 46.2829 286.591C107.507 382.113 324.651 532.801 404.326 525.615C484.003 518.429 574.276 384.814 553.992 296.865C536.949 222.967 422.362 96.0545 363.695 53.8349Z" fill="#007CFF"/>
<mask id="mask1_1405_3761" style="mask-type:luminance" maskUnits="userSpaceOnUse" x="39" y="44" width="518" height="482">
<path d="M39.1365 44.9777H556.884V525.863H39.1365V44.9777Z" fill="white"/>
</mask>
<g mask="url(#mask1_1405_3761)">
<g opacity="0.699997">
<path d="M363.695 53.8349C349.905 43.9109 331.735 42.2249 316.383 49.2857C241.47 83.7401 -5.8103 205.315 46.2829 286.591C107.507 382.113 324.651 532.801 404.326 525.615C484.003 518.429 574.276 384.814 553.992 296.865C536.949 222.967 422.362 96.0545 363.695 53.8349Z" fill="white"/>
</g>
</g>
</g>
<mask id="mask2_1405_3761" style="mask-type:luminance" maskUnits="userSpaceOnUse" x="0" y="0" width="600" height="601">
<path d="M0 0.66648H600V600.667H0V0.66648Z" fill="white"/>
</mask>
<g mask="url(#mask2_1405_3761)">
<path d="M433.131 302.997C434.967 307.383 442.839 314.572 442.845 314.577C442.926 314.652 446.007 307.951 446.154 307.506C447.843 302.354 448.076 291.405 443.163 287.835C439.624 285.265 434.884 286.736 432.772 290.362C430.616 294.068 431.568 299.26 433.131 302.997Z" fill="#262626"/>
<path d="M559.134 373.214C555.219 368.573 544.315 369.598 539.299 371.656C538.866 371.836 532.405 375.394 532.486 375.471C532.486 375.471 532.561 375.541 532.581 375.559C530.859 375.707 529.013 375.887 527.002 376.124C523.289 376.589 519.101 377.15 514.583 378.068C510.064 378.974 505.182 380.085 500.145 381.718C495.093 383.348 489.862 385.323 484.737 388.054C484.678 388.084 484.621 388.125 484.563 388.155C485.815 386.89 489.197 383.239 489.423 382.929C492.634 378.56 496.27 368.231 492.715 363.307C490.155 359.761 485.193 359.681 482.055 362.469C478.851 365.317 478.137 370.546 478.457 374.584C478.817 379.137 483.617 387.799 484.002 388.489C479.143 391.132 474.373 394.241 469.719 397.653C467.056 399.602 464.434 401.647 461.831 403.732C462.877 402.602 463.806 401.587 463.919 401.431C467.13 397.06 470.765 386.733 467.211 381.809C464.651 378.262 459.689 378.183 456.551 380.971C453.347 383.817 452.633 389.048 452.952 393.086C453.277 397.181 457.221 404.649 458.292 406.611C457.302 407.42 456.304 408.219 455.316 409.033C450.58 412.935 445.871 416.849 441.135 420.548C439.465 421.853 437.775 423.076 436.087 424.305C437.015 423.303 437.789 422.45 437.895 422.308C441.105 417.939 444.741 407.609 441.187 402.688C438.624 399.14 433.663 399.059 430.524 401.848C427.321 404.693 426.607 409.928 426.927 413.963C427.236 417.873 430.816 424.798 432.077 427.136C430.309 428.343 428.544 429.555 426.777 430.645C425.554 431.362 424.427 432.139 423.159 432.79C421.917 433.462 420.688 434.128 419.47 434.787C417.077 435.968 414.618 437.204 412.258 438.298C410.619 439.073 409.044 439.78 407.461 440.498C409.138 439.217 412.366 436.646 412.612 436.4C415.159 433.853 418.279 428.738 419.283 424.001C419.661 423.628 420.006 423.225 420.309 422.785C422.689 419.329 422.002 414.413 418.167 412.307C412.846 409.384 403.039 414.26 399.1 417.982C398.866 418.202 396.61 420.867 395.213 422.571C395.881 421.443 396.544 420.358 397.216 419.189C398.563 416.889 399.841 414.551 401.226 412.043C401.853 410.809 402.483 409.562 403.121 408.301C403.78 407.066 404.32 405.677 404.931 404.354C406.283 401.259 407.505 398.055 408.661 394.802C410.681 395.978 417.907 400.048 421.951 400.487C425.977 400.924 431.227 400.361 434.166 397.241C437.044 394.187 437.109 389.224 433.638 386.561C428.82 382.865 418.39 386.199 413.928 389.282C413.651 389.474 410.699 392.045 409.104 393.489C409.785 391.529 410.473 389.575 411.099 387.567C412.902 381.775 414.547 375.855 416.213 369.957C416.723 368.151 417.252 366.357 417.775 364.558C418.489 364.985 426.975 370.009 431.505 370.501C435.529 370.939 440.781 370.376 443.718 367.256C446.597 364.201 446.661 359.239 443.19 356.577C438.372 352.88 427.942 356.213 423.481 359.295C423.145 359.529 418.903 363.236 417.87 364.231C419.025 360.272 420.21 356.336 421.539 352.503C423.363 347.213 425.445 342.124 427.825 337.343C428.159 337.541 436.991 342.826 441.629 343.33C445.656 343.767 450.906 343.205 453.845 340.085C456.723 337.03 456.786 332.068 453.315 329.404C448.498 325.708 438.067 329.042 433.607 332.126C433.258 332.367 428.695 336.357 427.92 337.139C428.062 336.855 428.177 336.545 428.322 336.265C430.931 331.191 434.094 326.606 437.266 322.457C439.104 320.043 440.997 317.839 442.885 315.735C444.429 316.888 451.545 322.078 455.669 322.993C459.623 323.87 464.904 323.888 468.166 321.11C471.361 318.388 471.971 313.462 468.814 310.436C464.433 306.233 453.699 308.401 448.926 310.975C448.666 311.115 446.185 312.83 444.397 314.104C445.264 313.168 446.142 312.185 446.989 311.305C450.168 307.99 453.282 305.151 456.06 302.66C457.653 301.255 459.119 300.016 460.504 298.874C462.609 299.213 471.111 300.481 475.12 299.411C479.033 298.367 483.727 295.951 485.343 291.981C486.925 288.093 485.196 283.441 481 282.209C475.173 280.498 466.647 287.369 463.596 291.853C463.335 292.239 459.909 298.773 460.018 298.792C460.018 298.792 460.121 298.809 460.145 298.814C458.79 299.887 457.351 301.055 455.805 302.362C452.964 304.797 449.781 307.576 446.518 310.835C443.25 314.083 439.789 317.702 436.489 321.844C433.176 325.991 429.903 330.524 427.133 335.63C427.103 335.687 427.077 335.751 427.047 335.81C427.392 334.064 428.196 329.152 428.214 328.768C428.483 323.353 425.817 312.733 420.137 310.588C416.045 309.041 411.861 311.713 410.782 315.769C409.68 319.912 411.971 324.669 414.463 327.859C417.277 331.457 426.059 336.034 426.76 336.394C424.167 341.283 421.903 346.508 419.904 351.921C418.757 355.015 417.699 358.167 416.677 361.34C416.927 359.823 417.141 358.462 417.15 358.27C417.418 352.853 414.751 342.232 409.071 340.089C404.979 338.542 400.797 341.213 399.717 345.269C398.614 349.409 400.906 354.17 403.399 357.359C405.929 360.597 413.339 364.648 415.314 365.695C414.935 366.917 414.543 368.133 414.168 369.356C412.371 375.224 410.603 381.087 408.693 386.786C408.021 388.792 407.285 390.746 406.557 392.703C406.777 391.354 406.953 390.217 406.961 390.039C407.229 384.626 404.562 374.003 398.883 371.859C394.789 370.313 390.607 372.985 389.527 377.039C388.426 381.183 390.715 385.94 393.21 389.131C395.625 392.221 402.43 396.022 404.771 397.276C403.963 399.257 403.159 401.243 402.288 403.127C401.663 404.399 401.152 405.669 400.453 406.912C399.789 408.158 399.129 409.39 398.476 410.612C397.135 412.917 395.764 415.305 394.398 417.521C393.46 419.069 392.537 420.529 391.612 422C392.305 420.009 393.577 416.083 393.647 415.741C394.733 410.431 393.706 399.529 388.415 396.545C384.605 394.399 380.065 396.405 378.385 400.251C376.668 404.179 378.21 409.228 380.193 412.76C382.375 416.647 390.023 422.308 390.983 423.009C389.445 425.439 387.923 427.789 386.454 429.982C385.709 431.097 384.984 432.169 384.271 433.21L386.879 435.95C387.721 434.667 388.582 433.339 389.466 431.947C391.041 429.487 392.671 426.825 394.321 424.075C395.029 424.361 399.066 425.966 403.023 426.989C402.945 431.569 405.982 439.917 406.38 440.991C403.757 442.171 401.193 443.29 398.755 444.308C398.073 444.595 396.915 444.895 395.68 445.19L398.458 448.107C399.195 447.939 399.827 447.77 400.185 447.61C402.856 446.426 405.685 445.106 408.577 443.725C409.239 444.686 414.684 452.513 418.511 454.811C421.984 456.895 426.988 458.584 430.963 456.982C434.857 455.415 436.993 450.935 434.957 447.062C432.132 441.689 421.263 440.344 415.921 441.277C415.607 441.331 412.254 442.307 410.151 442.96C411.329 442.389 412.48 441.847 413.686 441.244C416.081 440.069 418.434 438.825 420.971 437.495C422.175 436.811 423.39 436.119 424.618 435.422C425.849 434.753 427.066 433.892 428.305 433.127C431.142 431.291 433.926 429.293 436.687 427.219C437.722 429.311 441.503 436.694 444.634 439.291C447.753 441.877 452.44 444.304 456.612 443.323C460.698 442.363 463.489 438.259 462.064 434.122C460.084 428.383 449.545 425.409 444.124 425.519C443.787 425.525 439.906 426.043 437.779 426.368C439.429 425.108 441.082 423.857 442.709 422.528C447.409 418.691 452.046 414.661 456.69 410.662C458.112 409.437 459.544 408.232 460.972 407.021C461.333 407.77 465.636 416.641 469.145 419.549C472.26 422.137 476.951 424.564 481.122 423.583C485.208 422.623 487.999 418.519 486.573 414.383C484.594 408.641 474.055 405.669 468.634 405.779C468.226 405.789 462.643 406.539 461.232 406.799C464.38 404.133 467.539 401.505 470.76 399.041C475.2 395.636 479.745 392.54 484.368 389.865C484.535 390.214 488.987 399.494 492.579 402.475C495.696 405.059 500.385 407.488 504.558 406.505C508.643 405.545 511.433 401.441 510.009 397.305C508.029 391.565 497.49 388.592 492.069 388.702C491.644 388.712 485.638 389.523 484.559 389.747C484.834 389.589 485.103 389.395 485.379 389.24C490.353 386.447 495.52 384.368 500.454 382.658C503.319 381.658 506.113 380.864 508.849 380.15C509.502 381.964 512.572 390.218 515.508 393.256C518.321 396.169 522.715 399.097 526.971 398.579C531.138 398.074 534.361 394.301 533.399 390.035C532.061 384.111 521.913 379.997 516.513 379.513C516.22 379.486 513.205 379.549 511.009 379.625C512.25 379.322 513.523 378.987 514.716 378.721C519.196 377.709 523.36 377.06 527.052 376.514C529.155 376.221 531.059 375.995 532.847 375.806C534.413 377.251 540.807 382.997 544.74 384.319C548.579 385.605 553.828 386.181 557.367 383.761C560.831 381.391 561.955 376.557 559.134 373.214Z" fill="#262626"/>
<path d="M509.454 379.163C509.48 379.27 515.748 375.381 516.115 375.089C520.366 371.723 526.6 362.721 524.472 357.034C522.938 352.937 518.174 351.549 514.411 353.41C510.57 355.31 508.498 360.167 507.74 364.145C506.851 368.816 509.453 379.155 509.454 379.163Z" fill="#262626"/>
<path d="M160.696 302.997C158.86 307.383 150.989 314.572 150.982 314.577C150.9 314.652 147.819 307.951 147.672 307.506C145.984 302.354 145.751 291.405 150.664 287.835C154.201 285.265 158.943 286.736 161.053 290.362C163.211 294.068 162.258 299.26 160.696 302.997Z" fill="#262626"/>
<path d="M34.6922 373.214C38.6078 368.573 49.5098 369.598 54.527 371.656C54.9602 371.836 61.421 375.394 61.3406 375.471C61.3406 375.471 61.2638 375.541 61.2458 375.559C62.9678 375.707 64.8122 375.887 66.8246 376.124C70.5362 376.589 74.7254 377.15 79.2434 378.068C83.7614 378.974 88.643 380.085 93.6818 381.718C98.7338 383.348 103.963 385.323 109.091 388.054C109.147 388.084 109.204 388.125 109.263 388.155C108.011 386.89 104.629 383.239 104.403 382.929C101.193 378.56 97.5554 368.231 101.111 363.307C103.672 359.761 108.634 359.681 111.772 362.469C114.976 365.317 115.69 370.546 115.369 374.584C115.009 379.137 110.208 387.799 109.824 388.489C114.683 391.132 119.453 394.241 124.108 397.653C126.771 399.602 129.393 401.647 131.995 403.732C130.948 402.602 130.02 401.587 129.907 401.431C126.695 397.06 123.06 386.733 126.616 381.809C129.175 378.262 134.139 378.183 137.275 380.971C140.479 383.817 141.193 389.048 140.874 393.086C140.549 397.181 136.605 404.649 135.534 406.611C136.524 407.42 137.523 408.219 138.51 409.033C143.245 412.935 147.954 416.849 152.692 420.548C154.36 421.853 156.051 423.076 157.739 424.305C156.81 423.303 156.036 422.45 155.932 422.308C152.722 417.939 149.086 407.609 152.639 402.688C155.201 399.14 160.163 399.059 163.301 401.848C166.505 404.693 167.219 409.928 166.899 413.963C166.59 417.873 163.011 424.798 161.749 427.136C163.516 428.343 165.283 429.555 167.05 430.645C168.273 431.362 169.399 432.139 170.668 432.79C171.909 433.462 173.139 434.128 174.357 434.787C176.748 435.968 179.208 437.204 181.569 438.298C183.207 439.073 184.781 439.78 186.365 440.498C184.689 439.217 181.459 436.646 181.215 436.4C178.667 433.853 175.546 428.738 174.543 424.001C174.165 423.628 173.82 423.225 173.518 422.785C171.137 419.329 171.825 414.413 175.66 412.307C180.981 409.384 190.787 414.26 194.727 417.982C194.959 418.202 197.217 420.867 198.612 422.571C197.945 421.443 197.283 420.358 196.609 419.189C195.262 416.889 193.985 414.551 192.599 412.043C191.974 410.809 191.343 409.562 190.705 408.301C190.045 407.066 189.507 405.677 188.895 404.354C187.542 401.259 186.322 398.055 185.164 394.802C183.144 395.978 175.919 400.048 171.875 400.487C167.849 400.924 162.598 400.361 159.66 397.241C156.783 394.187 156.718 389.224 160.188 386.561C165.005 382.865 175.437 386.199 179.897 389.282C180.175 389.474 183.127 392.045 184.722 393.489C184.042 391.529 183.352 389.575 182.728 387.567C180.924 381.775 179.279 375.855 177.613 369.957C177.103 368.151 176.574 366.357 176.051 364.558C175.337 364.985 166.852 370.009 162.322 370.501C158.296 370.939 153.046 370.376 150.107 367.256C147.229 364.201 147.166 359.239 150.636 356.577C155.454 352.88 165.885 356.213 170.345 359.295C170.681 359.529 174.923 363.236 175.955 364.231C174.802 360.272 173.616 356.336 172.288 352.503C170.464 347.213 168.382 342.124 166 337.343C165.667 337.541 156.835 342.826 152.196 343.33C148.17 343.767 142.92 343.205 139.981 340.085C137.104 337.03 137.04 332.068 140.511 329.404C145.329 325.708 155.759 329.042 160.219 332.126C160.569 332.367 165.131 336.357 165.905 337.139C165.765 336.855 165.648 336.545 165.503 336.265C162.894 331.191 159.732 326.606 156.561 322.457C154.722 320.043 152.83 317.839 150.941 315.735C149.397 316.888 142.282 322.078 138.157 322.993C134.202 323.87 128.922 323.888 125.659 321.11C122.464 318.388 121.855 313.462 125.011 310.436C129.394 306.233 140.128 308.401 144.9 310.975C145.161 311.115 147.641 312.83 149.429 314.104C148.563 313.168 147.684 312.185 146.837 311.305C143.658 307.99 140.544 305.151 137.766 302.66C136.174 301.255 134.707 300.016 133.323 298.874C131.217 299.213 122.716 300.481 118.707 299.411C114.793 298.367 110.099 295.951 108.484 291.981C106.901 288.093 108.63 283.441 112.827 282.209C118.653 280.498 127.18 287.369 130.23 291.853C130.492 292.239 133.917 298.773 133.807 298.792C133.807 298.792 133.705 298.809 133.681 298.814C135.036 299.887 136.475 301.055 138.022 302.362C140.861 304.797 144.046 307.576 147.309 310.835C150.576 314.083 154.037 317.702 157.337 321.844C160.649 325.991 163.924 330.524 166.692 335.63C166.723 335.687 166.749 335.751 166.78 335.81C166.434 334.064 165.63 329.152 165.611 328.768C165.342 323.353 168.01 312.733 173.689 310.588C177.781 309.041 181.966 311.713 183.043 315.769C184.145 319.912 181.855 324.669 179.362 327.859C176.549 331.457 167.767 336.034 167.067 336.394C169.659 341.283 171.923 346.508 173.922 351.921C175.069 355.015 176.128 358.167 177.149 361.34C176.898 359.823 176.686 358.462 176.676 358.27C176.409 352.853 179.075 342.232 184.755 340.089C188.848 338.542 193.03 341.213 194.11 345.269C195.213 349.409 192.921 354.17 190.427 357.359C187.896 360.597 180.487 364.648 178.512 365.695C178.891 366.917 179.284 368.133 179.657 369.356C181.455 375.224 183.223 381.087 185.134 386.786C185.806 388.792 186.541 390.746 187.27 392.703C187.049 391.354 186.874 390.217 186.865 390.039C186.598 384.626 189.264 374.003 194.944 371.859C199.037 370.313 203.219 372.985 204.299 377.039C205.399 381.183 203.111 385.94 200.616 389.131C198.201 392.221 191.395 396.022 189.054 397.276C189.863 399.257 190.667 401.243 191.538 403.127C192.163 404.399 192.675 405.669 193.373 406.912C194.038 408.158 194.697 409.39 195.349 410.612C196.691 412.917 198.061 415.305 199.428 417.521C200.367 419.069 201.289 420.529 202.215 422C201.521 420.009 200.248 416.083 200.179 415.741C199.093 410.431 200.121 399.529 205.41 396.545C209.221 394.399 213.761 396.405 215.441 400.251C217.158 404.179 215.616 409.228 213.634 412.76C211.45 416.647 203.802 422.308 202.842 423.009C204.382 425.439 205.902 427.789 207.372 429.982C208.116 431.097 208.842 432.169 209.555 433.21L206.946 435.95C206.105 434.667 205.245 433.339 204.36 431.947C202.786 429.487 201.155 426.825 199.504 424.075C198.796 424.361 194.76 425.966 190.804 426.989C190.882 431.569 187.845 439.917 187.445 440.991C190.069 442.171 192.634 443.29 195.071 444.308C195.754 444.595 196.911 444.895 198.147 445.19L195.369 448.107C194.632 447.939 193.998 447.77 193.642 447.61C190.971 446.426 188.141 445.106 185.249 443.725C184.588 444.686 179.142 452.513 175.314 454.811C171.843 456.895 166.839 458.584 162.862 456.982C158.969 455.415 156.833 450.935 158.869 447.062C161.694 441.689 172.563 440.344 177.904 441.277C178.219 441.331 181.571 442.307 183.676 442.96C182.497 442.389 181.347 441.847 180.141 441.244C177.745 440.069 175.392 438.825 172.854 437.495C171.651 436.811 170.436 436.119 169.209 435.422C167.977 434.753 166.761 433.892 165.521 433.127C162.684 431.291 159.9 429.293 157.139 427.219C156.105 429.311 152.323 436.694 149.193 439.291C146.074 441.877 141.387 444.304 137.213 443.323C133.127 442.363 130.337 438.259 131.763 434.122C133.743 428.383 144.281 425.409 149.703 425.519C150.04 425.525 153.921 426.043 156.046 426.368C154.396 425.108 152.743 423.857 151.116 422.528C146.417 418.691 141.78 414.661 137.136 410.662C135.714 409.437 134.283 408.232 132.855 407.021C132.493 407.77 128.19 416.641 124.681 419.549C121.566 422.137 116.875 424.564 112.704 423.583C108.618 422.623 105.827 418.519 107.254 414.383C109.233 408.641 119.771 405.669 125.193 405.779C125.599 405.789 131.183 406.539 132.594 406.799C129.447 404.133 126.287 401.505 123.065 399.041C118.626 395.636 114.082 392.54 109.457 389.865C109.291 390.214 104.839 399.494 101.248 402.475C98.1302 405.059 93.4418 407.488 89.2682 406.505C85.1834 405.545 82.3922 401.441 83.8178 397.305C85.7978 391.565 96.3362 388.592 101.758 388.702C102.183 388.712 108.189 389.523 109.267 389.747C108.993 389.589 108.724 389.395 108.448 389.24C103.475 386.447 98.3066 384.368 93.3722 382.658C90.5078 381.658 87.713 380.864 84.977 380.15C84.3242 381.964 81.2546 390.218 78.3182 393.256C75.5042 396.169 71.1098 399.097 66.8558 398.579C62.6894 398.074 59.465 394.301 60.4274 390.035C61.7642 384.111 71.9126 379.997 77.3126 379.513C77.6054 379.486 80.621 379.549 82.8158 379.625C81.5762 379.322 80.303 378.987 79.109 378.721C74.6306 377.709 70.4666 377.06 66.7742 376.514C64.6718 376.221 62.7662 375.995 60.9794 375.806C59.4134 377.251 53.0198 382.997 49.0862 384.319C45.2462 385.605 39.9974 386.181 36.4598 383.761C32.9942 381.391 31.871 376.557 34.6922 373.214Z" fill="#262626"/>
<path d="M84.3731 379.163C84.3455 379.27 78.0779 375.381 77.7107 375.089C73.4603 371.723 67.2263 362.721 69.3539 357.034C70.8875 352.937 75.6527 351.549 79.4147 353.41C83.2571 355.31 85.3283 360.167 86.0855 364.145C86.9747 368.816 84.3731 379.155 84.3731 379.163Z" fill="#262626"/>
</g>
<mask id="mask3_1405_3761" style="mask-type:luminance" maskUnits="userSpaceOnUse" x="0" y="0" width="600" height="601">
<path d="M0 0.66648H600V600.667H0V0.66648Z" fill="white"/>
</mask>
<g mask="url(#mask3_1405_3761)">
<path d="M392.299 541.216C392.299 547.415 350.737 552.441 299.47 552.441C248.201 552.441 206.64 547.415 206.64 541.216C206.64 535.016 248.201 529.991 299.47 529.991C350.737 529.991 392.299 535.016 392.299 541.216Z" fill="#262626"/>
</g>
<path d="M532.637 501.904H471.509V480.329H532.637V501.904Z" stroke="#262626" stroke-width="1.33333" stroke-miterlimit="10" stroke-linecap="round" stroke-linejoin="round"/>
<path d="M530.717 536.612H473.43V501.866H530.717V536.612Z" stroke="#262626" stroke-width="1.33333" stroke-miterlimit="10" stroke-linecap="round" stroke-linejoin="round"/>
<path d="M508.638 536.917H495.509V480.441H508.638V536.917Z" stroke="#262626" stroke-width="1.33333" stroke-miterlimit="10" stroke-linecap="round" stroke-linejoin="round"/>
<mask id="mask4_1405_3761" style="mask-type:luminance" maskUnits="userSpaceOnUse" x="0" y="0" width="600" height="601">
<path d="M0 0.66648H600V600.667H0V0.66648Z" fill="white"/>
</mask>
<g mask="url(#mask4_1405_3761)">
<path d="M501.627 480.322C501.627 480.322 495.062 466.512 487.365 468.098C479.668 469.683 483.516 481.001 501.627 480.322Z" stroke="#262626" stroke-width="1.33333" stroke-miterlimit="10" stroke-linecap="round" stroke-linejoin="round"/>
<path d="M502.176 480.322C502.176 480.322 508.741 466.512 516.438 468.098C524.134 469.683 520.286 481.001 502.176 480.322Z" stroke="#262626" stroke-width="1.33333" stroke-miterlimit="10" stroke-linecap="round" stroke-linejoin="round"/>
<path d="M519.285 451.119C519.739 454.289 518.153 457.685 513.4 459.722C508.646 461.759 506.156 456.099 501.175 461.306C496.195 466.512 502.175 480.322 502.175 480.322C502.175 480.322 518.607 478.058 519.285 484.396C519.964 490.736 514.759 493.679 516.343 497.528C517.927 501.376 522.908 498.658 523.36 494.357" stroke="#262626" stroke-width="1.33333" stroke-miterlimit="10" stroke-linecap="round" stroke-linejoin="round"/>
</g>
<mask id="mask5_1405_3761" style="mask-type:luminance" maskUnits="userSpaceOnUse" x="0" y="0" width="600" height="601">
<path d="M0 0.66648H600V600.667H0V0.66648Z" fill="white"/>
</mask>
<g mask="url(#mask5_1405_3761)">
<path d="M544.612 79.1703C544.612 61.9239 530.632 47.9427 513.386 47.9427C496.138 47.9427 482.157 61.9239 482.157 79.1703C482.157 96.4167 496.138 110.398 513.386 110.398C530.632 110.398 544.612 96.4167 544.612 79.1703Z" stroke="#262626" stroke-width="1.33333" stroke-miterlimit="10" stroke-linecap="round" stroke-linejoin="round"/>
<path d="M513.563 104.461V100.213C510.089 100.079 507.501 98.9497 505.8 96.8257C504.097 94.7017 503.162 91.6861 502.993 87.7741L509.466 86.5105C509.534 88.0957 509.719 89.4937 510.023 90.7081C510.326 91.9213 510.806 92.8561 511.464 93.5137C512.121 94.1713 512.988 94.5001 514.068 94.5001C515.282 94.5001 516.149 94.1377 516.672 93.4129C517.194 92.6881 517.455 91.7689 517.455 90.6565C517.455 88.8709 517.041 87.4045 516.217 86.2573C515.39 85.1113 514.321 83.9653 513.006 82.8193L507.797 78.2677C506.853 77.4265 506.028 76.5409 505.32 75.6133C504.612 74.6869 504.055 73.6417 503.651 72.4789C503.246 71.3149 503.043 69.9589 503.043 68.4085C503.043 65.3401 503.921 62.9389 505.674 61.2025C507.427 59.4661 509.786 58.5145 512.753 58.3453V54.2497H514.928V58.2949C516.647 58.3957 518.063 58.7749 519.175 59.4325C520.287 60.0901 521.173 60.9325 521.829 61.9609C522.487 62.9893 522.975 64.1437 523.296 65.4241C523.616 66.7057 523.809 68.0365 523.878 69.4189L517.506 70.5313C517.437 69.2509 517.304 68.0965 517.101 67.0681C516.899 66.0397 516.521 65.2309 515.964 64.6405C515.407 64.0513 514.59 63.7897 513.511 63.8569C512.365 63.8905 511.496 64.2613 510.907 64.9693C510.318 65.6773 510.023 66.5713 510.023 67.6489C510.023 69.0997 510.342 70.2709 510.984 71.1637C511.623 72.0577 512.415 72.9421 513.36 73.8181L518.517 78.3181C519.595 79.2973 520.598 80.3593 521.527 81.5041C522.452 82.6513 523.195 83.9317 523.751 85.3477C524.307 86.7625 524.586 88.3813 524.586 90.2017C524.586 92.0221 524.223 93.6493 523.497 95.0821C522.773 96.5149 521.754 97.6693 520.439 98.5453C519.125 99.4225 517.556 99.9613 515.737 100.163V104.461H513.563Z" fill="#262626"/>
</g>
<mask id="mask6_1405_3761" style="mask-type:luminance" maskUnits="userSpaceOnUse" x="0" y="0" width="600" height="601">
<path d="M0 0.66648H600V600.667H0V0.66648Z" fill="white"/>
</mask>
<g mask="url(#mask6_1405_3761)">
<path d="M123.879 68.4196C123.879 62.7136 119.254 58.0876 113.548 58.0876C107.842 58.0876 103.216 62.7136 103.216 68.4196C103.216 74.1256 107.842 78.7504 113.548 78.7504C119.254 78.7504 123.879 74.1256 123.879 68.4196Z" stroke="#262626" stroke-width="1.33333" stroke-miterlimit="10" stroke-linecap="round" stroke-linejoin="round"/>
<path d="M128.312 98.1454C128.035 88.6582 121.539 81.0634 113.547 81.0634C105.555 81.0634 99.061 88.6582 98.7838 98.1454" stroke="#262626" stroke-width="1.33333" stroke-miterlimit="10" stroke-linecap="round" stroke-linejoin="round"/>
<path d="M145.889 66.6746C145.889 61.9322 142.044 58.0874 137.302 58.0874C132.561 58.0874 128.716 61.9322 128.716 66.6746C128.716 71.417 132.561 75.2618 137.302 75.2618C142.044 75.2618 145.889 71.417 145.889 66.6746Z" stroke="#262626" stroke-width="1.33333" stroke-miterlimit="10" stroke-linecap="round" stroke-linejoin="round"/>
<path d="M149.573 91.3807C149.343 83.4955 143.945 77.1823 137.302 77.1823C132.959 77.1823 129.149 79.8811 126.967 83.9515" stroke="#262626" stroke-width="1.33333" stroke-miterlimit="10" stroke-linecap="round" stroke-linejoin="round"/>
<path d="M81.4875 66.6746C81.4875 61.9322 85.3323 58.0874 90.0747 58.0874C94.8159 58.0874 98.6619 61.9322 98.6619 66.6746C98.6619 71.417 94.8159 75.2618 90.0747 75.2618C85.3323 75.2618 81.4875 71.417 81.4875 66.6746Z" stroke="#262626" stroke-width="1.33333" stroke-miterlimit="10" stroke-linecap="round" stroke-linejoin="round"/>
<path d="M77.8031 91.3807C78.0335 83.4955 83.4311 77.1823 90.0743 77.1823C94.4171 77.1823 98.2271 79.8811 100.41 83.9515" stroke="#262626" stroke-width="1.33333" stroke-miterlimit="10" stroke-linecap="round" stroke-linejoin="round"/>
</g>
<mask id="mask7_1405_3761" style="mask-type:luminance" maskUnits="userSpaceOnUse" x="0" y="0" width="600" height="601">
<path d="M0 0.66648H600V600.667H0V0.66648Z" fill="white"/>
</mask>
<g mask="url(#mask7_1405_3761)">
<path d="M137.055 495.535C137.055 478.289 123.074 464.309 105.828 464.309C88.5814 464.309 74.6002 478.289 74.6002 495.535C74.6002 512.782 88.5814 526.763 105.828 526.763C123.074 526.763 137.055 512.782 137.055 495.535Z" stroke="#262626" stroke-width="1.33333" stroke-miterlimit="10" stroke-linecap="round" stroke-linejoin="round"/>
<path d="M105.828 477.97V513.1" stroke="#262626" stroke-width="5.33333" stroke-miterlimit="10" stroke-linecap="round" stroke-linejoin="round"/>
<path d="M123.393 495.535H88.2631" stroke="#262626" stroke-width="5.33333" stroke-miterlimit="10" stroke-linecap="round" stroke-linejoin="round"/>
</g>
<mask id="mask8_1405_3761" style="mask-type:luminance" maskUnits="userSpaceOnUse" x="0" y="0" width="600" height="601">
<path d="M0 0.66648H600V600.667H0V0.66648Z" fill="white"/>
</mask>
<g mask="url(#mask8_1405_3761)">
<path d="M397.918 109.032V473.175C397.918 483.17 389.816 491.272 379.821 491.272H222.478C212.484 491.272 204.381 483.17 204.381 473.175V109.022C204.381 99.0319 212.48 90.9343 222.469 90.9343H290.005L290.061 91.1407C291.745 97.1983 295.62 101.139 299.918 101.139H302.383C306.68 101.139 310.555 97.1983 312.238 91.1407L312.304 90.9343H379.821C389.816 90.9343 397.918 99.0367 397.918 109.032Z" fill="white"/>
<path d="M397.918 109.032V473.175C397.918 483.17 389.816 491.272 379.821 491.272H222.478C212.484 491.272 204.381 483.17 204.381 473.175V109.022C204.381 99.0319 212.48 90.9343 222.469 90.9343H290.005L290.061 91.1407C291.745 97.1983 295.62 101.139 299.918 101.139H302.383C306.68 101.139 310.555 97.1983 312.238 91.1407L312.304 90.9343H379.821C389.816 90.9343 397.918 99.0367 397.918 109.032Z" stroke="#262626" stroke-width="1.33333" stroke-miterlimit="10" stroke-linecap="round" stroke-linejoin="round"/>
<path d="M397.918 462.567C397.918 478.425 385.061 491.272 369.214 491.272H233.086C217.238 491.272 204.381 478.425 204.381 462.567V119.63C204.381 103.781 217.238 90.9341 233.086 90.9341H290.005L290.061 91.1417C291.745 97.1981 295.619 101.139 299.918 101.139H302.383C306.68 101.139 310.555 97.1981 312.238 91.1417L312.304 90.9341H369.214C385.061 90.9341 397.918 103.781 397.918 119.63V462.567ZM410.225 196.005V159.634H406.935V113.072C406.935 97.2197 394.085 84.3701 378.235 84.3701H224.067C208.215 84.3701 195.365 97.2197 195.365 113.072V483.07C195.365 498.921 208.215 511.772 224.067 511.772H378.235C394.085 511.772 406.935 498.921 406.935 483.07V227.002H410.225V205.51H406.935V196.005H410.225Z" fill="#007CFF"/>
<path d="M397.918 462.567C397.918 478.425 385.061 491.272 369.214 491.272H233.086C217.238 491.272 204.381 478.425 204.381 462.567V119.63C204.381 103.781 217.238 90.9341 233.086 90.9341H290.005L290.061 91.1417C291.745 97.1981 295.619 101.139 299.918 101.139H302.383C306.68 101.139 310.555 97.1981 312.238 91.1417L312.304 90.9341H369.214C385.061 90.9341 397.918 103.781 397.918 119.63V462.567ZM410.225 196.005V159.634H406.935V113.072C406.935 97.2197 394.085 84.3701 378.235 84.3701H224.067C208.215 84.3701 195.365 97.2197 195.365 113.072V483.07C195.365 498.921 208.215 511.772 224.067 511.772H378.235C394.085 511.772 406.935 498.921 406.935 483.07V227.002H410.225V205.51H406.935V196.005H410.225Z" stroke="#262626" stroke-width="1.33333" stroke-miterlimit="10" stroke-linecap="round" stroke-linejoin="round"/>
<path d="M397.918 463.588C397.918 478.877 385.524 491.272 370.236 491.272H232.065C216.776 491.272 204.381 478.877 204.381 463.588V118.608C204.381 103.325 216.771 90.9347 232.056 90.9347H290.005L290.061 91.1411C291.745 97.1975 295.62 101.138 299.918 101.138H302.383C306.68 101.138 310.555 97.1975 312.238 91.1411L312.304 90.9347H370.236C385.524 90.9347 397.918 103.328 397.918 118.618V463.588ZM375.932 88.3235H226.369C211.081 88.3235 198.688 100.717 198.688 116.005V480.137C198.688 495.425 211.081 507.817 226.369 507.817H375.932C391.219 507.817 403.612 495.425 403.612 480.137V116.005C403.612 100.717 391.219 88.3235 375.932 88.3235Z" fill="#262626"/>
<path d="M397.918 463.588C397.918 478.877 385.524 491.272 370.236 491.272H232.065C216.776 491.272 204.381 478.877 204.381 463.588V118.608C204.381 103.325 216.771 90.9347 232.056 90.9347H290.005L290.061 91.1411C291.745 97.1975 295.62 101.138 299.918 101.138H302.383C306.68 101.138 310.555 97.1975 312.238 91.1411L312.304 90.9347H370.236C385.524 90.9347 397.918 103.328 397.918 118.618V463.588ZM375.932 88.3235H226.369C211.081 88.3235 198.688 100.717 198.688 116.005V480.137C198.688 495.425 211.081 507.817 226.369 507.817H375.932C391.219 507.817 403.612 495.425 403.612 480.137V116.005C403.612 100.717 391.219 88.3235 375.932 88.3235Z" stroke="#262626" stroke-width="1.33333" stroke-miterlimit="10" stroke-linecap="round" stroke-linejoin="round"/>
<path d="M303.253 92.3065C303.253 90.8185 302.047 89.6113 300.559 89.6113C299.071 89.6113 297.864 90.8185 297.864 92.3065C297.864 93.7945 299.071 95.0005 300.559 95.0005C302.047 95.0005 303.253 93.7945 303.253 92.3065Z" fill="white"/>
<path d="M221.584 102.632C221.584 105.358 218.521 106.34 218.508 108.42V108.561H221.481V109.479H217.515V108.704C217.515 105.784 220.577 105.216 220.577 102.67C220.577 101.74 220.266 101.251 219.517 101.251C218.781 101.251 218.458 101.78 218.458 102.58V103.382H217.515V102.645C217.515 101.263 218.148 100.345 219.543 100.345C220.95 100.345 221.584 101.251 221.584 102.632Z" fill="#262626"/>
<path d="M226.533 102.619V102.852C226.533 103.782 226.159 104.44 225.435 104.712C226.197 104.996 226.533 105.681 226.533 106.585V107.283C226.533 108.666 225.887 109.569 224.492 109.569C223.11 109.569 222.464 108.666 222.464 107.283V106.663H223.407V107.347C223.407 108.162 223.743 108.652 224.467 108.652C225.203 108.652 225.527 108.174 225.527 107.257V106.56C225.527 105.668 225.151 105.242 224.389 105.216H223.847V104.311H224.441C225.111 104.286 225.527 103.86 225.527 103.071V102.657C225.527 101.727 225.203 101.25 224.467 101.25C223.743 101.25 223.407 101.754 223.407 102.567V103.033H222.464V102.619C222.464 101.236 223.11 100.345 224.492 100.345C225.887 100.345 226.533 101.236 226.533 102.619Z" fill="#262626"/>
<path d="M228.486 109.479H227.516V108.226H228.486V109.479ZM228.486 104.558H227.516V103.305H228.486V104.558Z" fill="#262626"/>
<path d="M230.527 104.118C230.812 103.627 231.263 103.368 231.871 103.368C233.034 103.368 233.55 104.221 233.55 105.513V107.283C233.55 108.666 232.891 109.569 231.51 109.569C230.128 109.569 229.481 108.666 229.481 107.283V106.676H230.424V107.347C230.424 108.162 230.76 108.653 231.484 108.653C232.207 108.653 232.543 108.162 232.543 107.347V105.59C232.543 104.777 232.207 104.286 231.484 104.286C230.928 104.286 230.554 104.595 230.462 105.254V105.462H229.52L229.765 100.436H233.33V101.34H230.67L230.527 104.118Z" fill="#262626"/>
<path d="M235.464 105.991V107.347C235.464 108.162 235.8 108.653 236.536 108.653C237.26 108.653 237.608 108.162 237.608 107.347V105.991C237.608 105.177 237.26 104.687 236.536 104.687C235.8 104.687 235.464 105.177 235.464 105.991ZM238.578 102.606V102.774H237.634V102.541C237.634 101.727 237.298 101.25 236.563 101.25C235.8 101.25 235.464 101.741 235.464 102.71V104.738C235.71 104.118 236.2 103.769 236.924 103.769C238.087 103.769 238.604 104.609 238.604 105.913V107.283C238.604 108.666 237.918 109.569 236.536 109.569C235.14 109.569 234.456 108.666 234.456 107.283V102.671C234.456 101.237 235.102 100.345 236.536 100.345C237.932 100.345 238.578 101.223 238.578 102.606Z" fill="#262626"/>
<path d="M337.304 109.388H334.751V103.005H337.304V109.388Z" fill="#262626"/>
<path d="M340.71 109.388H338.156V101.726H340.71V109.388Z" fill="#262626"/>
<path d="M344.114 109.388H341.561V100.817H344.114V109.388Z" fill="#262626"/>
<path d="M347.519 109.388H344.965V99.2381H347.519V109.388Z" fill="#262626"/>
<path d="M364.648 108.362H378.266V100.701H364.648V108.362ZM379.118 109.212H363.797V99.85H379.118V109.212Z" fill="#262626"/>
<path d="M374.011 107.435H365.926V101.627H374.011V107.435Z" fill="#262626"/>
<path d="M380.513 105.634H378.587V103.428H380.513V105.634Z" fill="#262626"/>
<path d="M358.179 107.175C358.079 107.175 357.978 107.15 357.886 107.095C354.768 105.242 352.707 106.962 352.622 107.035C352.384 107.241 352.023 107.215 351.815 106.977C351.609 106.74 351.632 106.382 351.868 106.174C351.98 106.076 354.614 103.82 358.472 106.112C358.744 106.273 358.833 106.624 358.671 106.896C358.563 107.076 358.373 107.175 358.179 107.175Z" fill="#262626"/>
<path d="M359.332 105.252C359.232 105.252 359.132 105.227 359.04 105.172C354.532 102.491 351.502 105.084 351.471 105.108C351.234 105.32 350.873 105.294 350.663 105.058C350.456 104.822 350.477 104.459 350.715 104.252C350.753 104.218 354.407 101.087 359.625 104.188C359.897 104.35 359.986 104.702 359.824 104.973C359.716 105.153 359.526 105.252 359.332 105.252Z" fill="#262626"/>
<path d="M360.38 103.025C360.28 103.025 360.178 103 360.087 102.945C354.377 99.5498 350.582 102.745 350.422 102.883C350.184 103.091 349.822 103.065 349.616 102.828C349.407 102.592 349.431 102.231 349.668 102.024C349.713 101.983 354.222 98.1254 360.672 101.961C360.945 102.123 361.034 102.474 360.872 102.745C360.764 102.925 360.574 103.025 360.38 103.025Z" fill="#262626"/>
<path d="M356.456 108.135C356.456 108.928 355.814 109.57 355.022 109.57C354.229 109.57 353.586 108.928 353.586 108.135C353.586 107.341 354.229 106.699 355.022 106.699C355.814 106.699 356.456 107.341 356.456 108.135Z" fill="#262626"/>
</g>
<path d="M110.977 157.281H124.973" stroke="#262626" stroke-width="1.33333" stroke-miterlimit="10" stroke-linecap="round" stroke-linejoin="round"/>
<path d="M219.438 157.281H233.434" stroke="#262626" stroke-width="1.33333" stroke-miterlimit="10" stroke-linecap="round" stroke-linejoin="round"/>
<path d="M124.972 120.545L132.844 126.667" stroke="#262626" stroke-width="1.33333" stroke-miterlimit="10" stroke-linecap="round" stroke-linejoin="round"/>
<path d="M217.689 120.545L209.817 126.667" stroke="#262626" stroke-width="1.33333" stroke-miterlimit="10" stroke-linecap="round" stroke-linejoin="round"/>
<path d="M156.461 105.675L157.336 118.795" stroke="#262626" stroke-width="1.33333" stroke-miterlimit="10" stroke-linecap="round" stroke-linejoin="round"/>
<path d="M187.075 107.424L185.326 118.795" stroke="#262626" stroke-width="1.33333" stroke-miterlimit="10" stroke-linecap="round" stroke-linejoin="round"/>
<path d="M206.922 206.072H131.4V140.895H206.922V206.072Z" fill="white" stroke="#262626" stroke-width="1.33333" stroke-miterlimit="10" stroke-linecap="round" stroke-linejoin="round"/>
<path d="M159.449 206.072H145.204V140.895H159.449V206.072Z" fill="#007CFF" stroke="#262626" stroke-width="1.33333" stroke-miterlimit="10" stroke-linecap="round" stroke-linejoin="round"/>
<path d="M206.922 206.072H173.819V140.895H206.922V206.072Z" fill="white" stroke="#262626" stroke-width="1.33333" stroke-miterlimit="10" stroke-linecap="round" stroke-linejoin="round"/>
<mask id="mask9_1405_3761" style="mask-type:luminance" maskUnits="userSpaceOnUse" x="0" y="0" width="600" height="601">
<path d="M0 0.66648H600V600.667H0V0.66648Z" fill="white"/>
</mask>
<g mask="url(#mask9_1405_3761)">
<path d="M163.832 135.581L152.765 130.735C152.466 130.693 152.198 130.686 151.944 130.693L151.759 130.608H140.617L149.3 134.68C149.345 135.288 149.444 135.907 149.58 136.498C150.091 138.713 152.169 139.801 153.531 140.289L153.6 140.631H154.724C154.735 140.632 154.753 140.635 154.753 140.635L174.035 140.895C174.035 140.895 169.087 138.238 163.832 135.581Z" fill="#007CFF"/>
<path d="M163.832 135.581L152.765 130.735C152.466 130.693 152.198 130.686 151.944 130.693L151.759 130.608H140.617L149.3 134.68C149.345 135.288 149.444 135.907 149.58 136.498C150.091 138.713 152.169 139.801 153.531 140.289L153.6 140.631H154.724C154.735 140.632 154.753 140.635 154.753 140.635L174.035 140.895C174.035 140.895 169.087 138.238 163.832 135.581Z" stroke="#262626" stroke-width="1.33333" stroke-miterlimit="10" stroke-linecap="round" stroke-linejoin="round"/>
<path d="M162.948 140.895C162.948 140.895 150.907 134.428 144.442 131.584C137.976 128.739 137.717 133.136 138.493 136.498C139.27 139.86 143.666 140.636 143.666 140.636L162.948 140.895Z" fill="#007CFF"/>
<path d="M162.948 140.895C162.948 140.895 150.907 134.428 144.442 131.584C137.976 128.739 137.717 133.136 138.493 136.498C139.27 139.86 143.666 140.636 143.666 140.636L162.948 140.895Z" stroke="#262626" stroke-width="1.33333" stroke-miterlimit="10" stroke-linecap="round" stroke-linejoin="round"/>
<path d="M165.809 136.18H161.571C159.029 136.18 156.968 138.24 156.968 140.782H170.411C170.411 138.24 168.351 136.18 165.809 136.18Z" fill="#007CFF"/>
<path d="M165.809 136.18H161.571C159.029 136.18 156.968 138.24 156.968 140.782H170.411C170.411 138.24 168.351 136.18 165.809 136.18Z" stroke="#262626" stroke-width="1.33333" stroke-miterlimit="10" stroke-linecap="round" stroke-linejoin="round"/>
<path d="M192.28 130.735H182.488L181.212 135.581C175.957 138.238 171.01 140.894 171.01 140.894L190.291 140.635C190.291 140.635 190.309 140.633 190.321 140.63H191.446L191.514 140.288C192.876 139.801 194.953 138.713 195.464 136.498C196.109 133.705 196.027 130.212 192.28 130.735Z" fill="#007CFF"/>
<path d="M192.28 130.735H182.488L181.212 135.581C175.957 138.238 171.01 140.894 171.01 140.894L190.291 140.635C190.291 140.635 190.309 140.633 190.321 140.63H191.446L191.514 140.288C192.876 139.801 194.953 138.713 195.464 136.498C196.109 133.705 196.027 130.212 192.28 130.735Z" stroke="#262626" stroke-width="1.33333" stroke-miterlimit="10" stroke-linecap="round" stroke-linejoin="round"/>
<path d="M159.448 140.895C159.448 140.895 171.488 134.428 177.953 131.584C184.42 128.739 184.678 133.136 183.902 136.498C183.127 139.86 178.73 140.636 178.73 140.636L159.448 140.895Z" fill="#007CFF"/>
<path d="M159.448 140.895C159.448 140.895 171.488 134.428 177.953 131.584C184.42 128.739 184.678 133.136 183.902 136.498C183.127 139.86 178.73 140.636 178.73 140.636L159.448 140.895Z" stroke="#262626" stroke-width="1.33333" stroke-miterlimit="10" stroke-linecap="round" stroke-linejoin="round"/>
</g>
<mask id="mask10_1405_3761" style="mask-type:luminance" maskUnits="userSpaceOnUse" x="0" y="0" width="600" height="601">
<path d="M0 0.66648H600V600.667H0V0.66648Z" fill="white"/>
</mask>
<g mask="url(#mask10_1405_3761)">
<path d="M133.864 210.61C133.864 210.61 127.552 206.405 128.932 205.078C130.312 203.751 137.088 206.668 138.631 208.639C140.175 210.609 139.398 211.989 138.126 212.11C136.852 212.231 133.864 210.61 133.864 210.61Z" fill="white"/>
<path d="M133.864 210.61C133.864 210.61 127.552 206.405 128.932 205.078C130.312 203.751 137.088 206.668 138.631 208.639C140.175 210.609 139.398 211.989 138.126 212.11C136.852 212.231 133.864 210.61 133.864 210.61Z" stroke="#262626" stroke-width="1.33333" stroke-miterlimit="10" stroke-linecap="round" stroke-linejoin="round"/>
<path d="M139.19 205.776C139.19 205.776 129.408 200.689 131.756 205.385C134.103 210.081 139.972 214.384 142.32 215.557C144.668 216.732 157.58 216.341 157.58 216.341C157.58 216.341 155.232 212.037 152.884 210.863C150.537 209.689 139.19 205.776 139.19 205.776Z" fill="white"/>
<path d="M139.19 205.776C139.19 205.776 129.408 200.689 131.756 205.385C134.103 210.081 139.972 214.384 142.32 215.557C144.668 216.732 157.58 216.341 157.58 216.341C157.58 216.341 155.232 212.037 152.884 210.863C150.537 209.689 139.19 205.776 139.19 205.776Z" stroke="#262626" stroke-width="1.33333" stroke-miterlimit="10" stroke-linecap="round" stroke-linejoin="round"/>
<path d="M148.58 205.776C148.58 205.776 135.668 198.733 135.277 201.472C134.886 204.211 145.451 213.21 148.971 214.776C152.493 216.341 157.58 216.341 157.58 216.341L148.58 205.776Z" fill="white"/>
<path d="M148.58 205.776C148.58 205.776 135.668 198.733 135.277 201.472C134.886 204.211 145.451 213.21 148.971 214.776C152.493 216.341 157.58 216.341 157.58 216.341L148.58 205.776Z" stroke="#262626" stroke-width="1.33333" stroke-miterlimit="10" stroke-linecap="round" stroke-linejoin="round"/>
<path d="M199.442 217.831C199.442 217.831 194.746 206.875 191.224 205.31C187.704 203.745 156.01 206.875 156.01 206.875C156.01 206.875 140.75 194.354 141.924 200.614C143.097 206.875 152.88 214.309 155.618 216.266C158.358 218.222 178.704 217.44 178.704 217.44L184.965 223.309L199.442 217.831Z" fill="white"/>
<path d="M199.442 217.831C199.442 217.831 194.746 206.875 191.224 205.31C187.704 203.745 156.01 206.875 156.01 206.875C156.01 206.875 140.75 194.354 141.924 200.614C143.097 206.875 152.88 214.309 155.618 216.266C158.358 218.222 178.704 217.44 178.704 217.44L184.965 223.309L199.442 217.831Z" stroke="#262626" stroke-width="1.33333" stroke-miterlimit="10" stroke-linecap="round" stroke-linejoin="round"/>
<path d="M392.066 235.457C392.066 235.457 390.777 237.851 391.514 240.062C392.251 242.272 394.277 244.113 394.277 244.113L395.197 249.823L407.721 250.376L402.565 231.221L392.066 235.457Z" fill="white"/>
<path d="M392.066 235.457C392.066 235.457 390.777 237.851 391.514 240.062C392.251 242.272 394.277 244.113 394.277 244.113L395.197 249.823L407.721 250.376L402.565 231.221L392.066 235.457Z" stroke="#262626" stroke-width="1.33333" stroke-miterlimit="10" stroke-linecap="round" stroke-linejoin="round"/>
<path d="M383.552 199.839C383.552 199.839 388.777 233.798 389.561 235.889C390.344 237.978 396.353 240.329 398.442 239.285C400.532 238.239 396.876 233.276 396.876 233.276L397.92 200.623C397.92 200.623 389.038 197.227 383.552 199.839Z" fill="#262626"/>
<path d="M383.552 199.839C383.552 199.839 388.777 233.798 389.561 235.889C390.344 237.978 396.353 240.329 398.442 239.285C400.532 238.239 396.876 233.276 396.876 233.276L397.92 200.623C397.92 200.623 389.038 197.227 383.552 199.839Z" stroke="#262626" stroke-width="1.33333" stroke-miterlimit="10" stroke-linecap="round" stroke-linejoin="round"/>
<path d="M398.181 210.549C398.181 210.549 390.867 210.027 390.606 211.333C390.345 212.64 390.345 217.08 391.652 217.602C392.956 218.125 401.838 218.908 403.406 218.386C404.973 217.863 406.802 214.729 405.234 212.378C403.666 210.027 398.181 210.549 398.181 210.549Z" fill="white"/>
<path d="M398.181 210.549C398.181 210.549 390.867 210.027 390.606 211.333C390.345 212.64 390.345 217.08 391.652 217.602C392.956 218.125 401.838 218.908 403.406 218.386C404.973 217.863 406.802 214.729 405.234 212.378C403.666 210.027 398.181 210.549 398.181 210.549Z" stroke="#262626" stroke-width="1.33333" stroke-miterlimit="10" stroke-linecap="round" stroke-linejoin="round"/>
<path d="M398.181 218.908C398.181 218.908 391.129 218.908 391.39 220.477C391.652 222.043 390.867 225.439 393.741 225.962C396.614 226.484 401.577 226.223 404.189 225.7C406.802 225.178 407.585 222.043 405.496 220.215C403.406 218.386 398.181 218.908 398.181 218.908Z" fill="white"/>
<path d="M398.181 218.908C398.181 218.908 391.129 218.908 391.39 220.477C391.652 222.043 390.867 225.439 393.741 225.962C396.614 226.484 401.577 226.223 404.189 225.7C406.802 225.178 407.585 222.043 405.496 220.215C403.406 218.386 398.181 218.908 398.181 218.908Z" stroke="#262626" stroke-width="1.33333" stroke-miterlimit="10" stroke-linecap="round" stroke-linejoin="round"/>
<path d="M386.846 220.918C386.846 220.918 385.948 214.334 383.822 214.518C382.24 214.656 378.455 215.846 378.8 218.746C379.145 221.646 380.854 226.314 382.121 228.657C383.388 231 386.615 230.828 387.748 228.293C388.882 225.759 386.846 220.918 386.846 220.918Z" fill="white"/>
<path d="M386.846 220.918C386.846 220.918 385.948 214.334 383.822 214.518C382.24 214.656 378.455 215.846 378.8 218.746C379.145 221.646 380.854 226.314 382.121 228.657C383.388 231 386.615 230.828 387.748 228.293C388.882 225.759 386.846 220.918 386.846 220.918Z" stroke="#262626" stroke-width="1.33333" stroke-miterlimit="10" stroke-linecap="round" stroke-linejoin="round"/>
<path d="M398.579 225.959C398.579 225.959 392.198 225.959 392.434 227.466C392.669 228.973 391.96 232.239 394.561 232.741C397.161 233.243 401.653 232.992 404.015 232.489C406.379 231.988 407.089 228.973 405.197 227.215C403.306 225.457 398.579 225.959 398.579 225.959Z" fill="white"/>
<path d="M398.579 225.959C398.579 225.959 392.198 225.959 392.434 227.466C392.669 228.973 391.96 232.239 394.561 232.741C397.161 233.243 401.653 232.992 404.015 232.489C406.379 231.988 407.089 228.973 405.197 227.215C403.306 225.457 398.579 225.959 398.579 225.959Z" stroke="#262626" stroke-width="1.33333" stroke-miterlimit="10" stroke-linecap="round" stroke-linejoin="round"/>
<path d="M398.88 231.695C398.88 231.695 393.542 231.695 393.739 232.956C393.937 234.216 393.344 236.948 395.518 237.369C397.694 237.789 401.451 237.579 403.428 237.159C405.404 236.739 405.999 234.216 404.416 232.745C402.835 231.275 398.88 231.695 398.88 231.695Z" fill="white"/>
<path d="M398.88 231.695C398.88 231.695 393.542 231.695 393.739 232.956C393.937 234.216 393.344 236.948 395.518 237.369C397.694 237.789 401.451 237.579 403.428 237.159C405.404 236.739 405.999 234.216 404.416 232.745C402.835 231.275 398.88 231.695 398.88 231.695Z" stroke="#262626" stroke-width="1.33333" stroke-miterlimit="10" stroke-linecap="round" stroke-linejoin="round"/>
<path d="M382.098 165.474C374.729 165.329 368.402 169.939 365.674 176.317C364.752 178.473 364.244 180.841 364.244 183.333C364.244 187.668 365.785 191.642 368.356 194.731C371.627 198.683 376.998 201.506 382.098 201.193C397.774 200.228 438.859 222.233 438.859 222.233V144.428C438.859 144.428 398.363 165.793 382.098 165.474Z" fill="white"/>
<path d="M382.098 165.474C374.729 165.329 368.402 169.939 365.674 176.317C364.752 178.473 364.244 180.841 364.244 183.333C364.244 187.668 365.785 191.642 368.356 194.731C371.627 198.683 376.998 201.506 382.098 201.193C397.774 200.228 438.859 222.233 438.859 222.233V144.428C438.859 144.428 398.363 165.793 382.098 165.474Z" stroke="#262626" stroke-width="1.33333" stroke-miterlimit="10" stroke-linecap="round" stroke-linejoin="round"/>
<path d="M378.911 183.968C378.911 175.5 383.628 168.134 390.576 164.352C387.372 165.095 384.471 165.519 382.098 165.474C374.73 165.329 368.402 169.939 365.675 176.317C364.752 178.472 364.244 180.841 364.244 183.333C364.244 187.668 365.785 191.642 368.355 194.731C371.628 198.683 376.998 201.506 382.098 201.193C383.671 201.096 385.508 201.239 387.524 201.559C382.29 197.474 378.911 191.123 378.911 183.968Z" fill="#007CFF"/>
<path d="M378.911 183.968C378.911 175.5 383.628 168.134 390.576 164.352C387.372 165.095 384.471 165.519 382.098 165.474C374.73 165.329 368.402 169.939 365.675 176.317C364.752 178.472 364.244 180.841 364.244 183.333C364.244 187.668 365.785 191.642 368.355 194.731C371.628 198.683 376.998 201.506 382.098 201.193C383.671 201.096 385.508 201.239 387.524 201.559C382.29 197.474 378.911 191.123 378.911 183.968Z" stroke="#262626" stroke-width="1.33333" stroke-miterlimit="10" stroke-linecap="round" stroke-linejoin="round"/>
<path d="M477.761 183.33C477.761 204.815 460.344 222.232 438.859 222.232C417.374 222.232 399.956 204.815 399.956 183.33C399.956 161.845 417.374 144.428 438.859 144.428C460.344 144.428 477.761 161.845 477.761 183.33Z" fill="white"/>
<path d="M477.761 183.33C477.761 204.815 460.344 222.232 438.859 222.232C417.374 222.232 399.956 204.815 399.956 183.33C399.956 161.845 417.374 144.428 438.859 144.428C460.344 144.428 477.761 161.845 477.761 183.33Z" stroke="#262626" stroke-width="1.33333" stroke-miterlimit="10" stroke-linecap="round" stroke-linejoin="round"/>
<path d="M472.015 183.333C472.015 201.645 457.167 216.493 438.854 216.493C428.591 216.493 419.413 211.833 413.339 204.496C408.567 198.761 405.705 191.381 405.705 183.333C405.705 178.706 406.649 174.308 408.359 170.306C413.425 158.463 425.169 150.173 438.854 150.173C457.167 150.173 472.015 165.02 472.015 183.333Z" fill="#A8A8A8"/>
<path d="M472.015 183.333C472.015 201.645 457.167 216.493 438.854 216.493C428.591 216.493 419.413 211.833 413.339 204.496C408.567 198.761 405.705 191.381 405.705 183.333C405.705 178.706 406.649 174.308 408.359 170.306C413.425 158.463 425.169 150.173 438.854 150.173C457.167 150.173 472.015 165.02 472.015 183.333Z" stroke="#262626" stroke-width="1.33333" stroke-miterlimit="10" stroke-linecap="round" stroke-linejoin="round"/>
<path d="M438.854 175.23V191.426L413.338 204.496C408.568 198.762 405.706 191.382 405.706 183.333C405.706 178.705 406.649 174.308 408.359 170.306L438.854 175.23Z" fill="white"/>
<path d="M438.854 175.23V191.426L413.338 204.496C408.568 198.762 405.706 191.382 405.706 183.333C405.706 178.705 406.649 174.308 408.359 170.306L438.854 175.23Z" stroke="#262626" stroke-width="1.33333" stroke-miterlimit="10" stroke-linecap="round" stroke-linejoin="round"/>
<path d="M446.957 183.33C446.957 187.804 443.331 191.429 438.859 191.429C434.385 191.429 430.76 187.804 430.76 183.33C430.76 178.858 434.385 175.231 438.859 175.231C443.331 175.231 446.957 178.858 446.957 183.33Z" fill="white"/>
<path d="M446.957 183.33C446.957 187.804 443.331 191.429 438.859 191.429C434.385 191.429 430.76 187.804 430.76 183.33C430.76 178.858 434.385 175.231 438.859 175.231C443.331 175.231 446.957 178.858 446.957 183.33Z" stroke="#262626" stroke-width="1.33333" stroke-miterlimit="10" stroke-linecap="round" stroke-linejoin="round"/>
<path d="M392.572 250.332L391.279 244.897L408.1 242.826L407.721 250.375L392.572 250.332Z" fill="white"/>
<path d="M392.572 250.332L391.279 244.897L408.1 242.826L407.721 250.375L392.572 250.332Z" stroke="#262626" stroke-width="1.33333" stroke-miterlimit="10" stroke-linecap="round" stroke-linejoin="round"/>
<path d="M183.965 225.485L180.083 219.274L197.941 210.215L199.441 217.831L183.965 225.485Z" fill="white"/>
<path d="M183.965 225.485L180.083 219.274L197.941 210.215L199.441 217.831L183.965 225.485Z" stroke="#262626" stroke-width="1.33333" stroke-miterlimit="10" stroke-linecap="round" stroke-linejoin="round"/>
<path d="M292.497 216.493C292.497 216.493 263.799 213.305 261.248 214.58C258.697 215.855 222.346 258.902 222.346 258.902L200.025 214.261L181.212 222.552C181.212 222.552 204.808 302.907 208.634 303.864C212.461 304.819 248.812 280.586 248.812 280.586L246.58 312.473C246.58 312.473 253.276 339.258 282.931 344.36C312.586 349.463 330.124 326.503 333.95 318.851C337.777 311.197 341.284 300.037 341.284 300.037L354.997 259.541C354.997 259.541 393.579 291.109 402.189 294.935C410.798 298.761 418.77 302.268 419.727 300.356C420.684 298.442 411.117 247.423 411.117 247.423L390.709 248.379L391.666 256.351C391.666 256.351 365.199 221.594 362.967 218.088C360.736 214.58 354.039 215.217 346.068 212.985C338.096 210.753 292.497 216.493 292.497 216.493Z" fill="#007CFF"/>
<path d="M292.497 216.493C292.497 216.493 263.799 213.305 261.248 214.58C258.697 215.855 222.346 258.902 222.346 258.902L200.025 214.261L181.212 222.552C181.212 222.552 204.808 302.907 208.634 303.864C212.461 304.819 248.812 280.586 248.812 280.586L246.58 312.473C246.58 312.473 253.276 339.258 282.931 344.36C312.586 349.463 330.124 326.503 333.95 318.851C337.777 311.197 341.284 300.037 341.284 300.037L354.997 259.541C354.997 259.541 393.579 291.109 402.189 294.935C410.798 298.761 418.77 302.268 419.727 300.356C420.684 298.442 411.117 247.423 411.117 247.423L390.709 248.379L391.666 256.351C391.666 256.351 365.199 221.594 362.967 218.088C360.736 214.58 354.039 215.217 346.068 212.985C338.096 210.753 292.497 216.493 292.497 216.493Z" stroke="#262626" stroke-width="1.33333" stroke-miterlimit="10" stroke-linecap="round" stroke-linejoin="round"/>
<path d="M248.812 280.586L270.177 264.642" stroke="#262626" stroke-width="1.33333" stroke-miterlimit="10" stroke-linecap="round" stroke-linejoin="round"/>
<path d="M262.523 270.701L273.365 268.787" stroke="#262626" stroke-width="1.33333" stroke-miterlimit="10" stroke-linecap="round" stroke-linejoin="round"/>
<path d="M354.996 259.54L362.329 233.712" stroke="#262626" stroke-width="1.33333" stroke-miterlimit="10" stroke-linecap="round" stroke-linejoin="round"/>
<path d="M357.866 251.25L365.838 240.09" stroke="#262626" stroke-width="1.33333" stroke-miterlimit="10" stroke-linecap="round" stroke-linejoin="round"/>
<path d="M392.618 274.917L392.942 281.223" stroke="#262626" stroke-width="1.33333" stroke-miterlimit="10" stroke-linecap="round" stroke-linejoin="round"/>
<path d="M391.667 256.351L392.249 267.717" stroke="#262626" stroke-width="1.33333" stroke-miterlimit="10" stroke-linecap="round" stroke-linejoin="round"/>
<path d="M222.346 258.903L229.042 272.933" stroke="#262626" stroke-width="1.33333" stroke-miterlimit="10" stroke-linecap="round" stroke-linejoin="round"/>
<path d="M303.339 212.985L289.308 215.535C289.308 215.535 284.207 219.681 281.337 229.248C278.466 238.813 277.511 247.105 277.511 247.105L289.628 247.742L280.061 257.309C280.061 257.309 282.932 261.453 288.989 270.381C295.048 279.311 304.614 289.514 304.614 289.514L286.758 312.473C286.758 312.473 308.441 307.689 321.833 293.022C335.225 278.353 343.198 256.351 343.198 256.351L332.675 248.06L343.835 245.829C343.835 245.829 346.067 227.653 334.269 215.855C322.47 204.057 303.339 212.985 303.339 212.985Z" fill="#007CFF"/>
<path d="M303.339 212.985L289.308 215.535C289.308 215.535 284.207 219.681 281.337 229.248C278.466 238.813 277.511 247.105 277.511 247.105L289.628 247.742L280.061 257.309C280.061 257.309 282.932 261.453 288.989 270.381C295.048 279.311 304.614 289.514 304.614 289.514L286.758 312.473C286.758 312.473 308.441 307.689 321.833 293.022C335.225 278.353 343.198 256.351 343.198 256.351L332.675 248.06L343.835 245.829C343.835 245.829 346.067 227.653 334.269 215.855C322.47 204.057 303.339 212.985 303.339 212.985Z" stroke="#262626" stroke-width="1.33333" stroke-miterlimit="10" stroke-linecap="round" stroke-linejoin="round"/>
<path d="M334.911 220.638C334.911 220.638 331.183 228.007 330.447 241.681C329.868 252.362 324.264 265.97 319.319 275.598C315.392 283.252 311.883 288.395 311.631 287.605C311.631 287.605 309.559 284.293 306.258 274.655C305.457 272.341 304.591 269.654 303.659 266.551C298.878 250.607 294.733 224.783 296.641 219.684C298.561 214.585 299.832 212.348 299.832 212.348C315.14 233.072 334.911 220.638 334.911 220.638Z" fill="white"/>
<path d="M334.911 220.638C334.911 220.638 331.183 228.007 330.447 241.681C329.868 252.362 324.264 265.97 319.319 275.598C315.392 283.252 311.883 288.395 311.631 287.605C311.631 287.605 309.559 284.293 306.258 274.655C305.457 272.341 304.591 269.654 303.659 266.551C298.878 250.607 294.733 224.783 296.641 219.684C298.561 214.585 299.832 212.348 299.832 212.348C315.14 233.072 334.911 220.638 334.911 220.638Z" stroke="#262626" stroke-width="1.33333" stroke-miterlimit="10" stroke-linecap="round" stroke-linejoin="round"/>
<path d="M315.458 264.325L319.319 275.598C315.392 283.251 311.883 288.394 311.631 287.605C311.631 287.605 309.559 284.294 306.258 274.654L311.631 264.961L306.302 254.994L312.584 248.7L321.193 257.307L315.458 264.325Z" fill="#262626"/>
<path d="M315.458 264.325L319.319 275.598C315.392 283.251 311.883 288.394 311.631 287.605C311.631 287.605 309.559 284.294 306.258 274.654L311.631 264.961L306.302 254.994L312.584 248.7L321.193 257.307L315.458 264.325Z" stroke="#262626" stroke-width="1.33333" stroke-miterlimit="10" stroke-linecap="round" stroke-linejoin="round"/>
<path d="M302.064 259.54L312.587 248.698L325.404 260.788" stroke="#262626" stroke-width="1.33333" stroke-miterlimit="10" stroke-linecap="round" stroke-linejoin="round"/>
<path d="M299.832 212.347C299.832 212.347 300.151 221.914 303.657 231.161C307.165 240.408 312.586 248.698 312.586 248.698L327.573 227.334C327.573 227.334 311.311 228.929 299.832 212.347Z" stroke="#262626" stroke-width="1.33333" stroke-miterlimit="10" stroke-linecap="round" stroke-linejoin="round"/>
<path d="M345.445 178.56C345.445 178.56 349.998 177.841 349.998 184.071C349.998 190.302 347.363 197.97 347.363 197.97L345.445 178.56Z" fill="white"/>
<path d="M345.445 178.56C345.445 178.56 349.998 177.841 349.998 184.071C349.998 190.302 347.363 197.97 347.363 197.97L345.445 178.56Z" stroke="#262626" stroke-width="1.33333" stroke-miterlimit="10" stroke-linecap="round" stroke-linejoin="round"/>
<path d="M343.835 155.589C343.835 155.589 347.024 184.606 347.343 193.215C347.661 201.825 346.706 209.477 343.835 213.304C340.965 217.131 329.487 232.437 323.428 233.074C317.369 233.713 310.672 230.523 308.122 228.291C305.571 226.059 293.454 206.927 293.454 206.927C293.454 206.927 284.207 206.289 281.975 194.171C279.742 182.055 292.179 184.925 292.179 184.925C292.179 184.925 285.483 174.403 284.844 164.198C284.207 153.994 282.293 150.167 309.716 149.53C337.139 148.892 343.835 155.589 343.835 155.589Z" fill="white"/>
<path d="M343.835 155.589C343.835 155.589 347.024 184.606 347.343 193.215C347.661 201.825 346.706 209.477 343.835 213.304C340.965 217.131 329.487 232.437 323.428 233.074C317.369 233.713 310.672 230.523 308.122 228.291C305.571 226.059 293.454 206.927 293.454 206.927C293.454 206.927 284.207 206.289 281.975 194.171C279.742 182.055 292.179 184.925 292.179 184.925C292.179 184.925 285.483 174.403 284.844 164.198C284.207 153.994 282.293 150.167 309.716 149.53C337.139 148.892 343.835 155.589 343.835 155.589Z" stroke="#262626" stroke-width="1.33333" stroke-miterlimit="10" stroke-linecap="round" stroke-linejoin="round"/>
<path d="M329.487 175.997L337.139 202.463L325.341 198.955" stroke="#262626" stroke-width="1.33333" stroke-miterlimit="10" stroke-linecap="round" stroke-linejoin="round"/>
<path d="M313.542 195.766L304.295 197.68" stroke="#262626" stroke-width="1.33333" stroke-miterlimit="10" stroke-linecap="round" stroke-linejoin="round"/>
<path d="M309.078 197.36C309.078 197.36 311.31 205.97 321.514 207.564C331.718 209.159 336.82 207.246 336.82 207.246" stroke="#262626" stroke-width="1.33333" stroke-miterlimit="10" stroke-linecap="round" stroke-linejoin="round"/>
<path d="M311.63 202.463C311.63 202.463 311.31 218.406 317.05 219.043C322.79 219.682 321.514 207.564 321.514 207.564C321.514 207.564 316.094 206.288 311.63 202.463Z" fill="#262626"/>
<path d="M311.63 202.463C311.63 202.463 311.31 218.406 317.05 219.043C322.79 219.682 321.514 207.564 321.514 207.564C321.514 207.564 316.094 206.288 311.63 202.463Z" stroke="#262626" stroke-width="1.33333" stroke-miterlimit="10" stroke-linecap="round" stroke-linejoin="round"/>
<path d="M312.805 213.487C313.589 216.397 314.891 218.804 317.051 219.044C318.326 219.185 319.253 218.696 319.927 217.851C318.82 215.889 314.969 214.265 312.805 213.487Z" fill="white"/>
<path d="M312.805 213.487C313.589 216.397 314.891 218.804 317.051 219.044C318.326 219.185 319.253 218.696 319.927 217.851C318.82 215.889 314.969 214.265 312.805 213.487Z" stroke="#262626" stroke-width="1.33333" stroke-miterlimit="10" stroke-linecap="round" stroke-linejoin="round"/>
<path d="M315.615 183.33C315.615 185.092 314.83 186.52 313.862 186.52C312.892 186.52 312.107 185.092 312.107 183.33C312.107 181.57 312.892 180.142 313.862 180.142C314.83 180.142 315.615 181.57 315.615 183.33Z" fill="#262626"/>
<path d="M336.98 180.461C336.98 182.221 336.195 183.649 335.225 183.649C334.257 183.649 333.472 182.221 333.472 180.461C333.472 178.699 334.257 177.272 335.225 177.272C336.195 177.272 336.98 178.699 336.98 180.461Z" fill="#262626"/>
<path d="M308.122 177.91C308.122 177.91 312.267 172.488 320.24 173.446" stroke="#262626" stroke-width="1.33333" stroke-miterlimit="10" stroke-linecap="round" stroke-linejoin="round"/>
<path d="M330.443 172.17C330.443 172.17 334.588 164.517 341.284 168.344" stroke="#262626" stroke-width="1.33333" stroke-miterlimit="10" stroke-linecap="round" stroke-linejoin="round"/>
<path d="M310.035 156.226C310.035 156.226 300.15 154.632 302.382 157.502C304.614 160.372 309.716 163.879 307.164 166.111C304.614 168.344 298.236 172.17 298.556 174.082C298.875 175.996 299.512 183.968 298.556 185.881C297.599 187.795 295.367 188.113 293.135 187.795C290.903 187.476 287.714 181.736 286.438 180.141C285.164 178.548 273.684 167.068 275.916 157.821C278.148 148.574 302.063 141.24 302.063 141.24C302.063 141.24 317.369 124.021 327.573 123.702C337.776 123.382 333.951 132.949 333.632 133.905C333.312 134.862 348.3 132.949 351.168 142.196C354.039 151.443 353.082 153.994 340.01 157.502C326.936 161.01 310.035 156.226 310.035 156.226Z" fill="#262626"/>
<path d="M310.035 156.226C310.035 156.226 300.15 154.632 302.382 157.502C304.614 160.372 309.716 163.879 307.164 166.111C304.614 168.344 298.236 172.17 298.556 174.082C298.875 175.996 299.512 183.968 298.556 185.881C297.599 187.795 295.367 188.113 293.135 187.795C290.903 187.476 287.714 181.736 286.438 180.141C285.164 178.548 273.684 167.068 275.916 157.821C278.148 148.574 302.063 141.24 302.063 141.24C302.063 141.24 317.369 124.021 327.573 123.702C337.776 123.382 333.951 132.949 333.632 133.905C333.312 134.862 348.3 132.949 351.168 142.196C354.039 151.443 353.082 153.994 340.01 157.502C326.936 161.01 310.035 156.226 310.035 156.226Z" stroke="#262626" stroke-width="1.33333" stroke-miterlimit="10" stroke-linecap="round" stroke-linejoin="round"/>
<path d="M511.17 143.492L485.18 150.215L490.557 152.903L475.77 157.383L505.794 153.35L498.175 149.766L511.17 143.492Z" fill="#262626"/>
<path d="M516.504 206.766L490.217 201.326L493.854 206.111L478.608 203.604L507.328 213.239L502.075 206.66L516.504 206.766Z" fill="#262626"/>
<path d="M488.23 250.099L466.096 234.909L467.598 240.731L454.509 232.52L477.264 252.517L474.966 244.417L488.23 250.099Z" fill="#262626"/>
</g>
<mask id="mask11_1405_3761" style="mask-type:luminance" maskUnits="userSpaceOnUse" x="0" y="0" width="600" height="601">
<path d="M0 0.666517H600V600.667H0V0.666517Z" fill="white"/>
</mask>
<g mask="url(#mask11_1405_3761)">
<path d="M255.402 384.984H257.489C258.788 384.984 259.825 384.796 260.596 384.416C261.367 384.038 261.919 383.435 262.252 382.603C262.584 381.77 262.751 380.705 262.751 379.405C262.751 377.56 262.41 376.176 261.73 375.254C261.049 374.332 259.757 373.87 257.851 373.87H255.402V384.984ZM248.689 406.031V369.289H257.489C259.968 369.289 262.062 369.583 263.771 370.174C265.478 370.763 266.779 371.768 267.672 373.19C268.564 374.611 269.01 376.547 269.01 378.996C269.01 380.478 268.874 381.809 268.602 382.988C268.33 384.167 267.869 385.172 267.218 386.005C266.568 386.837 265.669 387.479 264.52 387.932L269.645 406.031H262.932L258.486 389.202H255.402V406.031H248.689Z" fill="#007CFF"/>
<path d="M274.044 406.031V369.289H289.468V374.007H280.758V384.575H287.608V389.248H280.758V401.405H289.558V406.031H274.044Z" fill="#007CFF"/>
<path d="M293.459 406.031V369.289H308.564V373.915H300.172V384.621H307.022V389.293H300.172V406.031H293.459Z" fill="#007CFF"/>
<path d="M312.056 406.031V369.289H327.48V374.007H318.77V384.575H325.62V389.248H318.77V401.405H327.57V406.031H312.056Z" fill="#007CFF"/>
<path d="M338.184 384.984H340.27C341.571 384.984 342.607 384.796 343.378 384.416C344.149 384.038 344.7 383.435 345.034 382.603C345.365 381.77 345.533 380.705 345.533 379.405C345.533 377.56 345.192 376.176 344.512 375.254C343.831 374.332 342.539 373.87 340.633 373.87H338.184V384.984ZM331.47 406.031V369.289H340.27C342.75 369.289 344.844 369.583 346.553 370.174C348.261 370.763 349.561 371.768 350.454 373.19C351.346 374.611 351.792 376.547 351.792 378.996C351.792 380.478 351.657 381.809 351.384 382.988C351.112 384.167 350.651 385.172 350.001 386.005C349.35 386.837 348.45 387.479 347.302 387.932L352.427 406.031H345.713L341.268 389.202H338.184V406.031H331.47Z" fill="#007CFF"/>
<path d="M229.206 440.517H234.196L231.701 425.095L229.206 440.517ZM220.724 453.263L228.074 416.522H235.239L242.588 453.263H236.374L234.922 444.782H228.526L227.03 453.263H220.724Z" fill="#007CFF"/>
<path d="M257.102 453.263V416.522H272.208V421.148H263.816V431.853H270.665V436.526H263.816V453.263H257.102Z" fill="#007CFF"/>
<path d="M282.414 432.217H284.5C285.799 432.217 286.836 432.028 287.608 431.649C288.379 431.271 288.929 430.667 289.264 429.836C289.595 429.003 289.763 427.937 289.763 426.638C289.763 424.792 289.421 423.409 288.742 422.487C288.061 421.564 286.769 421.102 284.863 421.102H282.414V432.217ZM275.7 453.263V416.522H284.5C286.979 416.522 289.074 416.816 290.782 417.406C292.491 417.995 293.791 419.001 294.684 420.423C295.575 421.844 296.021 423.779 296.021 426.229C296.021 427.711 295.885 429.041 295.614 430.221C295.342 431.399 294.88 432.405 294.229 433.238C293.579 434.069 292.679 434.711 291.531 435.165L296.657 453.263H289.943L285.498 436.435H282.414V453.263H275.7Z" fill="#007CFF"/>
<path d="M301.237 416.522H307.86V453.263H301.237V416.522Z" fill="#007CFF"/>
<path d="M313.531 453.263V416.522H328.954V421.239H320.245V431.807H327.094V436.48H320.245V448.637H329.044V453.263H313.531Z" fill="#007CFF"/>
<path d="M332.944 453.263V416.522H337.617L346.552 437.479V416.522H352.086V453.263H347.64L338.659 431.309V453.263H332.944Z" fill="#007CFF"/>
<path d="M364.379 448.591H366.42C367.962 448.591 369.065 448.319 369.731 447.774C370.397 447.23 370.804 446.437 370.955 445.393C371.106 444.35 371.183 443.072 371.183 441.56V427.499C371.183 426.017 371.076 424.822 370.865 423.916C370.654 423.008 370.215 422.344 369.551 421.919C368.885 421.496 367.81 421.284 366.329 421.284H364.379V448.591ZM357.665 453.264V416.521H366.329C369.323 416.521 371.658 416.929 373.338 417.746C375.016 418.564 376.21 419.818 376.922 421.512C377.632 423.205 377.987 425.352 377.987 427.952V441.379C377.987 444.041 377.632 446.256 376.922 448.024C376.21 449.794 375.032 451.109 373.383 451.97C371.735 452.832 369.474 453.264 366.603 453.264H357.665Z" fill="#007CFF"/>
</g>
</svg>
