<svg width="667" height="667" viewBox="0 0 667 667" fill="none" xmlns="http://www.w3.org/2000/svg">
<mask id="mask0_1404_785" style="mask-type:luminance" maskUnits="userSpaceOnUse" x="0" y="-1" width="667" height="668">
<path d="M0 -0.000123024H666.667V666.667H0V-0.000123024Z" fill="white"/>
</mask>
<g mask="url(#mask0_1404_785)">
<path d="M102.764 594.151C103.92 589.562 100.889 584.978 97.501 581.673C94.1143 578.366 90.069 575.41 88.2916 571.023C85.4116 563.917 89.177 554.673 84.2983 548.757C81.429 545.277 76.3103 544.135 73.7596 540.415C72.4223 538.463 71.9796 536.059 71.445 533.754C68.7183 521.998 62.7636 511.006 54.405 502.301C53.8863 512.787 56.2596 523.401 61.193 532.67C63.1756 536.395 65.6063 540.023 66.2796 544.19C67.3743 550.955 63.6343 557.953 65.3356 564.591C67.281 572.183 75.8516 577.226 76.301 585.051C76.681 591.666 70.9463 597.507 71.413 604.118C71.613 606.931 72.9343 609.538 74.4023 611.949C79.5676 620.425 87.117 626.241 98.509 625.986L112.466 626.395L102.764 594.151Z" fill="#F5F5F5"/>
<path d="M115.294 626.745C115.294 626.745 116.627 627.048 119.137 626.641C120.386 626.45 121.923 626.11 123.663 625.473C125.395 624.829 127.365 623.914 129.247 622.374C130.151 621.574 131.053 620.592 131.534 619.292C132.007 617.996 132.086 616.576 132.166 615.118C132.233 613.66 132.226 612.141 132.466 610.604C132.694 609.065 133.289 607.55 134.146 606.106C135.775 603.206 138.491 600.454 139.351 596.525C140.285 592.66 139.575 588.486 138.903 584.294C138.231 580.113 137.578 575.553 139.154 571.184C140.626 566.812 143.663 562.854 145.166 557.925C146.662 552.946 145.921 547.606 146.213 542.333C146.346 539.685 146.842 537.034 147.987 534.576C149.102 532.1 150.655 529.761 151.863 527.154C154.31 521.882 154.713 515.922 155.358 510.078C155.671 507.136 155.989 504.161 156.309 501.157C156.625 498.138 156.875 495.132 157.809 492.222C158.653 489.294 159.881 486.457 161.098 483.568C161.693 482.114 162.323 480.661 162.691 479.049C162.955 477.402 163.025 475.862 163.114 474.246C163.253 471.048 163.102 467.805 162.687 464.59C162.29 461.372 161.691 458.182 161.326 454.957C161.305 454.766 161.282 454.576 161.261 454.4L161.185 453.758L160.615 454.048C157.635 455.56 155.09 457.805 153.139 460.43C151.155 463.038 149.717 465.977 148.571 468.961C146.275 474.97 145.471 481.258 144.33 487.26C143.218 493.262 141.738 499.168 138.693 504.169C137.178 506.662 135.341 508.942 133.735 511.377C132.134 513.792 130.727 516.444 130.318 519.349C129.526 525.257 132.807 530.424 132.159 535.654C131.933 538.253 130.913 540.686 129.655 542.91C128.401 545.148 126.923 547.222 125.522 549.309C124.122 551.394 122.79 553.51 121.813 555.769C120.819 558.02 120.278 560.425 120.138 562.773C119.825 567.482 120.517 571.941 120.197 576.16C119.938 580.382 118.478 584.217 116.819 587.648C115.15 591.09 113.29 594.205 111.734 597.224C110.951 598.732 110.231 600.205 109.645 601.684C109.023 603.158 108.722 604.666 108.445 606.102C108.003 608.997 108.062 611.693 108.386 614.066C109.021 618.844 110.822 622.276 112.437 624.202C112.807 624.717 113.235 625.078 113.573 625.418C113.902 625.769 114.227 626.005 114.493 626.19C115.015 626.57 115.294 626.745 115.294 626.745C115.355 626.674 114.142 626.041 112.577 624.089C111.03 622.153 109.305 618.745 108.733 614.021C108.438 611.674 108.406 609.013 108.865 606.17C109.151 604.766 109.459 603.286 110.074 601.856C110.661 600.413 111.39 598.948 112.178 597.456C113.746 594.464 115.626 591.361 117.331 587.896C119.022 584.448 120.541 580.537 120.829 576.205C121.171 571.898 120.498 567.422 120.827 562.825C120.974 560.525 121.501 558.233 122.47 556.054C123.425 553.869 124.738 551.794 126.138 549.724C127.538 547.653 129.033 545.568 130.323 543.285C131.614 541.017 132.694 538.482 132.943 535.73C133.585 530.16 130.327 524.958 131.134 519.466C131.522 516.75 132.857 514.214 134.437 511.84C136.017 509.452 137.863 507.17 139.423 504.613C142.566 499.469 144.069 493.449 145.193 487.424C146.346 481.384 147.15 475.161 149.406 469.276C150.53 466.352 151.937 463.488 153.854 460.969C155.739 458.433 158.177 456.294 161.015 454.85L160.37 454.497C160.39 454.674 160.413 454.868 160.435 455.06C160.806 458.324 161.406 461.52 161.799 464.7C162.21 467.88 162.357 471.056 162.223 474.21C162.141 475.766 162.055 477.398 161.821 478.868C161.489 480.337 160.871 481.788 160.279 483.226C159.07 486.105 157.825 488.984 156.965 491.977C156.013 494.956 155.753 498.076 155.446 501.058C155.129 504.064 154.817 507.041 154.506 509.988C153.873 515.854 153.469 521.718 151.113 526.808C149.949 529.341 148.398 531.686 147.251 534.244C146.066 536.796 145.55 539.597 145.426 542.289C145.153 547.676 145.883 552.937 144.454 557.716C143.034 562.47 140.013 566.448 138.499 570.96C136.878 575.52 137.589 580.228 138.277 584.396C138.975 588.594 139.675 592.678 138.797 596.394C138.011 600.148 135.374 602.874 133.711 605.856C132.846 607.334 132.229 608.937 132.007 610.532C131.771 612.122 131.794 613.654 131.739 615.102C131.675 616.54 131.601 617.949 131.167 619.162C130.737 620.369 129.887 621.326 129.019 622.109C127.206 623.628 125.273 624.562 123.571 625.224C121.858 625.881 120.341 626.245 119.107 626.462C117.873 626.693 116.913 626.73 116.27 626.753C115.627 626.732 115.294 626.745 115.294 626.745Z" fill="#E1E1E1"/>
<path d="M158.453 462.101C158.437 462.098 158.393 462.241 158.319 462.523C158.239 462.858 158.141 463.271 158.019 463.782C157.751 464.882 157.433 466.543 156.918 468.619C156.382 470.689 155.129 473.035 154.063 475.923C152.954 478.791 151.831 482.111 150.802 485.842C149.759 489.569 148.839 493.706 147.878 498.138C146.886 502.563 145.898 507.309 143.489 511.793C142.358 514.066 141.083 516.367 140.074 518.883C139.041 521.399 138.49 524.145 138.11 526.902C137.471 532.433 136.489 538.051 135.198 543.801C132.465 555.253 129.862 566.159 127.491 576.09C125.062 585.989 122.873 594.907 121.027 602.426C119.233 609.877 117.774 615.93 116.746 620.199C116.271 622.247 115.897 623.865 115.625 625.042C115.517 625.555 115.427 625.97 115.357 626.307C115.301 626.594 115.279 626.741 115.294 626.745C115.31 626.749 115.361 626.609 115.445 626.33C115.539 625.999 115.657 625.59 115.801 625.086C116.113 623.919 116.541 622.315 117.085 620.283C118.179 616.03 119.731 610.001 121.643 602.579C123.541 595.073 125.794 586.171 128.293 576.291C130.686 566.355 133.314 555.447 136.074 543.993C137.366 538.25 138.358 532.527 138.981 527.023C139.353 524.286 139.877 521.638 140.87 519.198C141.842 516.746 143.097 514.458 144.229 512.159C146.658 507.591 147.651 502.702 148.605 498.295C149.535 493.851 150.415 489.726 151.414 486.007C152.398 482.286 153.473 478.969 154.531 476.101C155.542 473.222 156.754 470.849 157.255 468.709C157.727 466.582 157.983 464.938 158.197 463.817C158.283 463.299 158.353 462.881 158.41 462.542C158.453 462.253 158.467 462.105 158.453 462.101Z" fill="#E1E1E1"/>
<path d="M117.757 626.775C126.841 621.304 129.364 604.846 125.505 594.97C121.647 585.091 114.941 576.086 113.855 565.538C113.02 557.43 115.629 549.088 113.695 541.171C111.084 530.484 100.591 522.255 100.648 511.254C100.68 505.082 104.159 499.255 103.844 493.09C103.459 485.53 97.6188 479.563 93.9855 472.92C88.4241 462.754 87.9948 450.699 86.0481 439.276C84.1015 427.854 79.6748 415.632 69.5081 410.071C68.0668 419.786 65.5495 426.45 66.4268 439.595C66.7428 444.316 72.2801 453.327 73.0855 463.674C73.5668 469.858 73.9108 476.051 74.3241 482.242C74.7268 488.263 75.1508 494.396 77.3428 500.02C79.0228 504.33 81.7028 508.239 82.9575 512.691C85.3161 521.068 82.3308 530.171 84.2468 538.66C85.8681 545.854 90.8881 552.023 91.9481 559.318C93.4361 569.571 86.8575 580.268 90.3108 590.034C92.0255 594.882 96.0415 598.758 97.2041 603.766C98.1055 607.651 97.1708 611.775 97.9881 615.679C99.3081 621.97 111.345 626.791 117.757 626.364" fill="#E1E1E1"/>
<path d="M72.0759 419.693C72.0599 419.694 72.0759 419.881 72.1186 420.24C72.1732 420.648 72.2439 421.173 72.3332 421.834C72.5492 423.234 72.7972 425.293 73.2852 427.952C73.8106 430.626 75.2066 433.632 76.3292 437.26C77.5132 440.876 78.6932 445.049 79.7426 449.721C80.8092 454.392 81.7092 459.562 82.6546 465.129C83.6306 470.653 84.6306 476.758 87.4266 482.542C88.7212 485.448 90.1719 488.356 91.2666 491.457C92.3866 494.546 92.9132 497.873 93.2439 501.294C93.7546 508.168 94.7106 515.314 96.0386 522.512C98.9106 536.881 101.648 550.564 104.139 563.021C106.761 575.428 109.123 586.605 111.111 596.013C113.117 605.354 114.745 612.933 115.887 618.24C116.46 620.814 116.909 622.836 117.229 624.274C117.384 624.922 117.507 625.44 117.601 625.838C117.689 626.19 117.743 626.369 117.757 626.365C117.772 626.362 117.749 626.177 117.691 625.82C117.619 625.416 117.524 624.893 117.407 624.237C117.127 622.79 116.731 620.758 116.228 618.169C115.155 612.848 113.621 605.249 111.732 595.885C109.797 586.464 107.499 575.274 104.948 562.852C102.48 550.4 99.7679 536.72 96.9212 522.356C95.5946 515.15 94.6439 508.109 94.1186 501.208C93.7799 497.766 93.2319 494.338 92.0732 491.172C90.9452 488.005 89.4746 485.086 88.1799 482.204C85.3999 476.505 84.4012 470.544 83.3866 465C82.4106 459.444 81.4719 454.26 80.3599 449.58C79.2679 444.896 78.0386 440.716 76.8052 437.101C75.6266 433.461 74.1879 430.482 73.6266 427.876C73.0919 425.266 72.7839 423.188 72.5119 421.805C72.3852 421.15 72.2866 420.629 72.2092 420.225C72.1359 419.87 72.0906 419.69 72.0759 419.693Z" fill="#ECECEC"/>
<path d="M280.413 73.6364C288.198 64.5551 308.438 70.2631 322.309 77.6924C322.309 77.6924 331.854 82.1937 335.406 84.5271C335.445 84.5364 335.481 84.5457 335.521 84.5551L367.952 80.5044C370.585 80.1764 373.257 80.6444 375.622 81.8511L378.28 83.2071C379.622 83.8911 379.556 85.8311 378.17 86.4231L354.296 96.6311C354.285 96.7631 354.284 96.7924 354.273 96.9244C366.968 105.266 377.841 112.41 377.841 112.41C377.958 112.488 378.076 112.566 378.193 112.642C382.634 115.478 387.99 116.555 393.205 115.623L405.828 113.366C406.468 113.252 407.137 113.279 407.74 113.526C409.981 114.447 410.416 117.394 408.582 118.927L393.962 131.152C391.672 133.068 388.484 133.492 385.772 132.244L378.925 129.092L344.282 112.598L348.257 132.322C348.405 133.135 347.762 133.875 346.937 133.844L345.304 133.786C343.069 133.703 341.032 132.474 339.918 130.532L325.957 103.872L285.088 84.4124C279.637 81.9031 277.692 77.2298 280.413 73.6364Z" fill="#E1E1E1"/>
<path d="M53.312 160.949L156.145 158.626C156.145 158.626 146.679 142.282 120.263 145.289C95.0347 148.161 93.5133 137.749 80.6307 136.754C67.748 135.758 57.2573 145.856 53.312 160.949Z" fill="#F5F5F5"/>
<path d="M534.101 216.555H630.977C630.977 216.555 622.41 200.966 597.474 203.235C573.658 205.402 572.448 195.566 560.338 194.355C548.229 193.143 538.137 202.427 534.101 216.555Z" fill="#F5F5F5"/>
<path d="M111.875 109.915H185.775C185.775 109.915 179.24 98.023 160.218 99.7537C142.051 101.407 141.127 93.903 131.89 92.979C122.652 92.055 114.955 99.1377 111.875 109.915Z" fill="#F5F5F5"/>
<path d="M534.196 265.435H582.539C582.539 265.435 578.264 257.655 565.82 258.787C553.936 259.869 553.332 254.961 547.288 254.357C541.246 253.751 536.211 258.385 534.196 265.435Z" fill="#F5F5F5"/>
<path d="M510.024 131.621H558.368C558.368 131.621 554.092 123.843 541.65 124.975C529.764 126.056 529.16 121.147 523.116 120.543C517.074 119.939 512.039 124.571 510.024 131.621Z" fill="#FAFAFA"/>
</g>
<mask id="mask1_1404_785" style="mask-type:luminance" maskUnits="userSpaceOnUse" x="0" y="-1" width="667" height="668">
<path d="M0 -0.000123024H666.667V666.667H0V-0.000123024Z" fill="white"/>
</mask>
<g mask="url(#mask1_1404_785)">
<path d="M594.835 294.85C574.529 256.05 532.049 228.7 488.287 230.385C463.141 231.353 436.901 241.066 413.651 231.433C384.727 219.446 375.071 184.417 358.903 157.605C328.113 106.545 262.97 80.4225 204.382 91.4931C145.794 102.564 96.1407 147.872 75.0687 203.649C53.998 259.425 60.3073 323.817 87.2873 376.989C114.267 430.16 160.685 472.26 214.045 498.865C222.382 503.022 230.882 506.816 239.517 510.261C303.238 535.684 373.217 540.996 440.383 527.024L471.513 520.546C516.593 511.169 556.758 485.057 582.41 446.817C587.725 438.893 592.395 430.54 596.31 421.797C614.214 381.829 615.143 333.652 594.835 294.85Z" fill="#ECECEC"/>
</g>
<mask id="mask2_1404_785" style="mask-type:luminance" maskUnits="userSpaceOnUse" x="0" y="-1" width="667" height="668">
<path d="M0 -0.000123024H666.667V666.667H0V-0.000123024Z" fill="white"/>
</mask>
<g mask="url(#mask2_1404_785)">
<path d="M632.58 626.853C632.58 627.045 497.995 627.201 332.015 627.201C165.976 627.201 31.4204 627.045 31.4204 626.853C31.4204 626.661 165.976 626.507 332.015 626.507C497.995 626.507 632.58 626.661 632.58 626.853Z" fill="#262626"/>
</g>
<mask id="mask3_1404_785" style="mask-type:luminance" maskUnits="userSpaceOnUse" x="0" y="-1" width="667" height="668">
<path d="M0 -0.000123024H666.667V666.667H0V-0.000123024Z" fill="white"/>
</mask>
<g mask="url(#mask3_1404_785)">
<path d="M540.461 391.729C540.26 389.804 538.636 388.343 536.7 388.344L508.231 388.373C505.861 388.376 504.084 390.541 504.544 392.868C504.897 394.663 506.493 395.944 508.324 395.9L536.704 395.901C538.945 395.901 540.695 393.96 540.461 391.729Z" fill="#262626"/>
<path d="M602.557 617.526C601.83 622.488 605.263 627.1 610.225 627.826C615.187 628.553 619.799 625.12 620.526 620.158C621.251 615.197 617.818 610.585 612.858 609.858C607.895 609.132 603.283 612.564 602.557 617.526Z" fill="#262626"/>
<path d="M609.66 618.892L604.12 607.452L607.021 605.606L612.392 617.547L609.66 618.892Z" fill="#375A64"/>
<path d="M558.368 478.056L523.981 388.34L517.453 391.618L550.78 480.515L558.368 478.056Z" fill="#262626"/>
<path d="M587.028 616.697L637.788 596.532C639.679 595.78 640.603 593.64 639.852 591.749L589.329 464.576C585.352 454.569 574.017 449.68 564.011 453.656L542.644 462.145C532.637 466.12 527.748 477.454 531.723 487.462L582.247 614.634C582.999 616.525 585.139 617.448 587.028 616.697Z" fill="#367CFF"/>
<path d="M582.132 615.27C582.132 615.27 582.055 615 581.871 614.491C581.669 613.954 581.389 613.203 581.028 612.235C580.26 610.227 579.147 607.318 577.717 603.587C574.8 596.062 570.597 585.222 565.408 571.84C560.179 558.438 553.96 542.492 547.055 524.791C543.593 515.939 539.959 506.648 536.192 497.019C535.249 494.61 534.299 492.182 533.34 489.732C532.327 487.348 531.993 484.724 532.273 482.136C532.889 476.952 536.503 472.167 541.519 470.228C546.515 468.238 552.421 469.286 556.399 472.671C558.365 474.376 559.908 476.527 560.784 478.966C561.745 481.414 562.699 483.843 563.644 486.25C567.427 495.878 571.075 505.164 574.551 514.012C581.516 531.692 587.789 547.618 593.063 561.003C598.351 574.346 602.633 585.152 605.607 592.656C607.095 596.363 608.255 599.252 609.053 601.248C609.447 602.204 609.752 602.946 609.969 603.475C610.18 603.975 610.307 604.224 610.307 604.224C610.307 604.224 610.231 603.956 610.045 603.446C609.844 602.908 609.564 602.159 609.203 601.19C608.435 599.183 607.323 596.275 605.893 592.544C602.976 585.019 598.772 574.18 593.584 560.798C588.356 547.396 582.136 531.451 575.229 513.746C571.768 504.892 568.132 495.6 564.365 485.967C563.423 483.559 562.471 481.13 561.512 478.68C560.608 476.156 558.975 473.854 556.907 472.068C552.719 468.499 546.493 467.392 541.229 469.491C535.944 471.532 532.136 476.578 531.493 482.039C531.192 484.755 531.559 487.554 532.611 490.019C533.572 492.466 534.525 494.894 535.471 497.3C539.252 506.926 542.9 516.211 546.376 525.056C553.34 542.736 559.613 558.659 564.885 572.043C570.173 585.387 574.457 596.195 577.432 603.699C578.919 607.408 580.079 610.298 580.88 612.294C581.272 613.248 581.576 613.99 581.795 614.52C582.005 615.02 582.132 615.27 582.132 615.27Z" fill="#262626"/>
<path d="M578.851 524.892C578.958 525.234 585.602 522.616 593.691 519.048C601.78 515.479 608.251 512.31 608.144 511.97C608.036 511.628 601.392 514.246 593.303 517.814C585.214 521.382 578.743 524.552 578.851 524.892Z" fill="#262626"/>
<path d="M533.925 388.34L527.98 376.603C527.322 375.288 526.213 374.255 524.854 373.691L515.505 369.807L490.362 335.692L488.012 361.809L504.054 378.336C504.054 378.336 514.088 399.479 522.288 398.405C522.288 398.405 522.012 395.301 520.644 392.944C517.972 388.34 520.818 388.34 521.188 388.36L527.996 388.373L533.925 388.34Z" fill="#FFBF9D"/>
<path d="M492.861 370.294C493.623 371.432 499.845 379.85 499.845 379.85L517.453 367.041L511.056 360.789L492.861 370.294Z" fill="#367CFF"/>
<path d="M520.644 392.944C520.644 392.944 525.222 395.547 525.793 397.774V399.087L520.304 398.29L520.644 392.944Z" fill="#FFBF9D"/>
<path d="M526.787 395.456C526.034 394.757 525.251 394.011 524.943 393.029C524.635 392.047 525.007 390.772 525.982 390.448C526.935 390.132 527.91 390.817 528.654 391.488C529.596 392.339 530.494 393.24 531.339 394.187C532.039 394.969 532.748 395.959 532.495 396.979C532.292 397.799 531.463 398.372 530.62 398.424C529.778 398.475 528.952 398.077 528.338 397.497C527.723 396.919 527.295 396.171 526.931 395.408" fill="#FFBF9D"/>
<path d="M531.442 395.058C530.689 394.358 529.906 393.611 529.598 392.631C529.29 391.648 529.662 390.374 530.637 390.05C531.59 389.734 532.565 390.418 533.309 391.088C534.253 391.939 535.149 392.84 535.996 393.787C536.694 394.571 537.404 395.56 537.15 396.58C536.948 397.399 536.118 397.972 535.276 398.024C534.433 398.076 533.608 397.678 532.993 397.098C532.378 396.519 531.95 395.771 531.586 395.01" fill="#FFBF9D"/>
<path d="M517.454 375.021C517.439 374.862 518.642 374.926 520.007 376.112C520.655 376.784 521.076 377.704 521.604 378.704C522.092 379.716 522.604 380.95 522.51 382.361C522.404 383.789 521.628 384.892 521.071 385.829C520.484 386.738 520.176 387.677 519.974 388.474C519.555 390.086 519.876 391.104 519.78 391.13C519.703 391.189 519.175 390.118 519.491 388.376C519.64 387.526 519.923 386.501 520.519 385.504C521.067 384.532 521.739 383.5 521.816 382.31C521.903 381.114 521.47 379.969 521.026 378.976C520.547 377.989 520.148 377.033 519.648 376.446C519.116 375.888 518.499 375.526 518.111 375.309C517.706 375.085 517.463 375.07 517.454 375.021Z" fill="#FF9A6C"/>
<path d="M327.7 254.686L309.016 314.435L363.996 371.873L414.384 358.777L327.7 254.686Z" fill="#F5F5F5"/>
<path d="M327.7 254.686C327.7 254.686 327.841 254.84 328.125 255.174C328.425 255.527 328.845 256.023 329.391 256.668C330.524 258.016 332.171 259.976 334.293 262.502C338.592 267.628 344.812 275.048 352.568 284.3C368.149 302.938 389.899 328.956 414.645 358.558L414.992 358.971L414.469 359.107C405.32 361.487 395.793 363.964 386.064 366.495C378.589 368.438 371.235 370.348 364.081 372.206L363.887 372.256L363.747 372.111C343.023 350.42 324.152 330.67 308.82 314.623L308.708 314.506L308.756 314.354C314.553 296.05 319.287 281.1 322.58 270.702C324.216 265.563 325.493 261.551 326.369 258.798C326.797 257.46 327.127 256.432 327.357 255.712C327.581 255.02 327.7 254.686 327.7 254.686C327.059 256.77 320.475 278.15 309.275 314.516L309.212 314.247C324.573 330.267 343.48 349.982 364.244 371.634L363.908 371.54C371.06 369.68 378.415 367.767 385.889 365.823C395.62 363.296 405.148 360.822 414.297 358.446L414.12 358.995C389.567 329.396 367.987 303.382 352.528 284.747C344.801 275.407 338.605 267.918 334.324 262.742C332.199 260.166 330.548 258.166 329.413 256.791C328.863 256.12 328.44 255.604 328.137 255.235C327.849 254.882 327.7 254.686 327.7 254.686Z" fill="#262626"/>
<path d="M329.41 294.099C332.026 289.586 338.844 288.243 342.976 291.427C346.418 294.076 347.994 299.122 352.13 300.451C355.122 301.412 358.407 300.01 361.5 300.564C365.12 301.214 367.81 304.5 368.855 308.026C369.902 311.551 369.619 315.316 369.326 318.983L351.438 319.23L329.41 294.099Z" fill="#E1E1E1"/>
<path d="M296.354 260.136L412.211 379.531L364.996 374.747L298.954 305.022L296.354 260.136Z" fill="#F5F5F5"/>
<path d="M296.354 260.136C296.464 261.882 297.432 277.242 299.184 305.008L299.122 304.863C316.007 322.651 339.091 346.966 365.244 374.514L365.032 374.41C376.704 375.59 388.826 376.815 401.25 378.072C405.016 378.454 408.755 378.834 412.244 379.187L411.962 379.772C347.53 313.095 298.91 262.782 296.354 260.136C298.919 262.77 347.75 312.882 412.458 379.291L413.123 379.972L412.175 379.876C408.684 379.523 404.946 379.144 401.179 378.763C388.758 377.502 376.635 376.271 364.963 375.084L364.836 375.074L364.751 374.98C338.659 347.372 315.632 323.006 298.787 305.18L298.728 305.119L298.724 305.035C297.258 277.251 296.446 261.882 296.354 260.136Z" fill="#262626"/>
<path d="M341.695 307.589C338.115 311.705 338.637 318.285 341.699 322.801C344.76 327.315 349.792 330.098 354.885 332.054C359.001 333.634 364.079 334.642 367.487 331.841" fill="#E1E1E1"/>
<path d="M335.666 301.1C335.883 302.098 334.631 302.838 333.614 302.741C332.597 302.644 331.662 302.085 330.641 302.028C327.855 301.873 326.339 305.174 324.063 306.789C321.405 308.674 317.237 307.865 315.477 305.122C313.959 302.757 313.997 299.272 311.598 297.808C310.271 296.997 308.587 297.109 307.058 297.397C305.53 297.685 303.981 298.125 302.445 297.882C300.909 297.641 299.373 296.449 299.381 294.894L298.551 293.594L296.567 260.644L335.666 301.1Z" fill="#E1E1E1"/>
<path d="M392.133 377.115C394.752 377.565 397.251 376.232 397.651 373.605C398.049 370.979 395.985 368.232 393.352 367.884C390.992 367.572 388.549 368.943 386.276 368.235C383.696 367.429 382.627 364.425 381.969 361.804C381.313 359.183 380.404 356.173 377.897 355.161C373.741 353.483 369.368 358.799 365.041 357.625C361.831 356.755 360.587 352.899 358.071 350.723C356.053 348.977 353.095 348.396 350.567 349.247C348.039 350.097 346.552 351.529 346.001 354.14L365.128 374.311L392.133 377.115Z" fill="#E1E1E1"/>
<path d="M360.458 578.904L355.698 606.348C355.698 606.348 326.204 610.726 324.83 615.712L377.71 626.853L386.882 584.396L360.458 578.904Z" fill="#367CFF"/>
<mask id="mask4_1404_785" style="mask-type:luminance" maskUnits="userSpaceOnUse" x="369" y="607" width="5" height="5">
<path d="M369.528 607.278H373.682V611.456H369.528V607.278Z" fill="white"/>
</mask>
<g mask="url(#mask4_1404_785)">
<g opacity="0.600006">
<path d="M372.532 607.502C373.497 607.998 373.961 609.298 373.505 610.28C373.052 611.264 371.733 611.75 370.76 611.27C369.787 610.792 369.181 609.25 369.744 608.322C370.307 607.395 371.885 606.912 372.715 607.61" fill="white"/>
</g>
</g>
<mask id="mask5_1404_785" style="mask-type:luminance" maskUnits="userSpaceOnUse" x="324" y="613" width="55" height="14">
<path d="M324.831 613.47H378.625V626.853H324.831V613.47Z" fill="white"/>
</mask>
<g mask="url(#mask5_1404_785)">
<g opacity="0.600006">
<path d="M377.71 626.853L378.626 622.62L327.483 613.47C327.483 613.47 324.913 613.997 324.83 615.713L377.71 626.853Z" fill="white"/>
</g>
</g>
<path d="M354.898 605.899C354.851 606.157 356.118 606.547 357.214 607.645C358.338 608.715 358.758 609.972 359.016 609.92C359.264 609.92 359.204 608.295 357.855 606.988C356.518 605.671 354.891 605.649 354.898 605.899Z" fill="#262626"/>
<path d="M348.868 607.024C348.756 607.262 349.782 607.937 350.429 609.214C351.113 610.47 351.085 611.698 351.344 611.741C351.578 611.833 352.076 610.358 351.241 608.786C350.421 607.208 348.925 606.778 348.868 607.024Z" fill="#262626"/>
<path d="M344.32 612.998C344.542 613.103 345.174 611.888 344.808 610.335C344.454 608.778 343.353 607.964 343.2 608.155C343.009 608.338 343.633 609.26 343.913 610.542C344.224 611.814 344.069 612.918 344.32 612.998Z" fill="#262626"/>
<path d="M356.676 599.765C356.735 600.022 357.994 599.915 359.432 600.322C360.879 600.699 361.912 601.429 362.092 601.237C362.282 601.081 361.375 599.891 359.674 599.437C357.978 598.967 356.592 599.534 356.676 599.765Z" fill="#262626"/>
<mask id="mask6_1404_785" style="mask-type:luminance" maskUnits="userSpaceOnUse" x="358" y="584" width="28" height="11">
<path d="M358.667 584.341H385.661V594.469H358.667V584.341Z" fill="white"/>
</mask>
<g mask="url(#mask6_1404_785)">
<g opacity="0.300003">
<path d="M359.522 584.34L358.667 589.231L384.707 594.469L385.66 590.101L359.522 584.34Z" fill="black"/>
</g>
</g>
<path d="M357.739 594.245C357.712 594.352 358.7 594.725 360.389 594.789C361.231 594.821 362.243 594.757 363.34 594.522C363.888 594.404 364.456 594.245 365.031 594.036C365.308 593.93 365.629 593.833 365.961 593.581C366.305 593.373 366.611 592.721 366.369 592.232C366.184 591.769 365.743 591.493 365.363 591.404C364.976 591.309 364.643 591.321 364.34 591.33C363.721 591.35 363.128 591.43 362.575 591.55C361.468 591.796 360.524 592.205 359.795 592.638C358.328 593.516 357.707 594.392 357.784 594.461C357.883 594.57 358.652 593.888 360.097 593.213C360.819 592.878 361.715 592.562 362.739 592.381C363.252 592.292 363.796 592.236 364.359 592.23C364.949 592.202 365.428 592.298 365.519 592.578C365.549 592.684 365.548 592.722 365.397 592.862C365.244 592.989 364.987 593.089 364.713 593.193C364.181 593.4 363.655 593.565 363.147 593.698C362.127 593.961 361.179 594.088 360.379 594.14C358.775 594.244 357.764 594.105 357.739 594.245Z" fill="#262626"/>
<path d="M357.997 594.687C358.079 594.745 358.787 593.928 359.234 592.275C359.454 591.456 359.579 590.433 359.483 589.3C359.433 588.735 359.326 588.145 359.147 587.549C358.949 586.963 358.718 586.183 357.741 585.857C357.222 585.727 356.701 586.045 356.478 586.363C356.229 586.683 356.13 586.984 356.002 587.276C355.775 587.873 355.659 588.481 355.625 589.059C355.554 590.22 355.817 591.253 356.179 592.033C356.923 593.621 357.937 594.157 357.977 594.075C358.09 593.963 357.295 593.275 356.782 591.791C356.529 591.06 356.362 590.131 356.469 589.127C356.521 588.625 356.637 588.107 356.839 587.605C357.041 587.061 357.347 586.653 357.545 586.755C357.809 586.805 358.167 587.324 358.289 587.817C358.461 588.348 358.575 588.88 358.642 589.391C358.773 590.416 358.725 591.361 358.598 592.141C358.345 593.709 357.865 594.617 357.997 594.687Z" fill="#262626"/>
<path d="M534.218 580.576L522.782 565.644L522.189 564.869L502.706 579.358L520.746 599.176L520.086 619.233C510.038 621.832 508.53 626.853 508.53 626.853L529.415 626.829L548.385 590.289L534.218 580.576Z" fill="#367CFF"/>
<mask id="mask7_1404_785" style="mask-type:luminance" maskUnits="userSpaceOnUse" x="508" y="588" width="41" height="39">
<path d="M508.53 588.223H548.384V626.853H508.53V588.223Z" fill="white"/>
</mask>
<g mask="url(#mask7_1404_785)">
<g opacity="0.600006">
<path d="M548.384 590.289L529.415 626.829L508.53 626.853L510.88 623.711L527.863 622.76L545.37 588.223L548.384 590.289Z" fill="white"/>
</g>
</g>
<path d="M520.214 610.043C520.369 610.256 521.574 609.571 523.188 609.616C524.805 609.615 525.989 610.332 526.15 610.123C526.346 609.964 525.169 608.715 523.201 608.698C521.234 608.662 520.022 609.88 520.214 610.043Z" fill="#262626"/>
<path d="M520.547 605.069C520.757 605.216 521.686 603.984 523.353 603.657C525.015 603.315 526.347 604.093 526.483 603.875C526.554 603.781 526.314 603.432 525.727 603.112C525.151 602.793 524.201 602.551 523.171 602.757C522.142 602.964 521.358 603.556 520.951 604.072C520.533 604.595 520.446 605.009 520.547 605.069Z" fill="#262626"/>
<path d="M520.408 598.68C520.636 598.795 521.348 597.588 522.803 597.084C524.252 596.56 525.563 597.052 525.668 596.819C525.724 596.713 525.46 596.423 524.881 596.207C524.315 595.989 523.412 595.893 522.496 596.217C521.583 596.541 520.94 597.183 520.636 597.708C520.321 598.24 520.299 598.633 520.408 598.68Z" fill="#262626"/>
<path d="M514.814 593.729C515.064 593.816 515.649 592.628 516.946 591.788C518.218 590.911 519.54 590.823 519.554 590.56C519.624 590.317 518.006 589.963 516.436 591.025C514.854 592.071 514.565 593.701 514.814 593.729Z" fill="#262626"/>
<path d="M512.088 589.443C512.193 589.512 512.883 588.671 513.909 587.255C514.489 586.43 515.075 585.596 515.673 584.744C515.976 584.252 516.396 583.827 516.641 583.055C516.749 582.666 516.741 582.203 516.513 581.787C516.299 581.343 515.712 581.064 515.252 581.128C514.341 581.262 513.833 581.731 513.303 582.14C512.792 582.582 512.372 583.082 512.035 583.592C511.363 584.623 511.048 585.7 510.941 586.607C510.739 588.455 511.343 589.507 511.416 589.459C511.577 589.424 511.235 588.358 511.583 586.71C511.757 585.899 512.105 584.954 512.735 584.068C513.052 583.628 513.432 583.203 513.881 582.831C514.32 582.475 514.893 582.083 515.321 582.044C515.528 582.035 515.627 582.09 515.717 582.234C515.804 582.387 515.831 582.612 515.772 582.824C515.66 583.27 515.257 583.787 514.965 584.279C514.423 585.17 513.893 586.038 513.367 586.9C512.479 588.407 511.981 589.372 512.088 589.443Z" fill="#262626"/>
<path d="M511.341 590.064C511.439 590.057 511.359 588.96 510.227 587.704C509.127 586.517 506.713 585.249 504.035 586.591C503.845 586.755 503.694 587.052 503.711 587.337C503.722 587.627 503.846 587.84 503.963 587.999C504.21 588.323 504.483 588.483 504.713 588.655C505.198 588.995 505.698 589.273 506.19 589.499C507.175 589.949 508.133 590.176 508.937 590.264C510.561 590.437 511.538 590.123 511.518 590.021C511.506 589.873 510.529 589.947 509.042 589.624C508.303 589.461 507.438 589.189 506.557 588.736C506.115 588.511 505.67 588.243 505.238 587.925C505.018 587.759 504.798 587.603 504.698 587.453C504.594 587.271 504.622 587.323 504.654 587.268C504.722 587.192 505.002 587.104 505.259 587.044C505.518 586.981 505.778 586.941 506.035 586.924C506.55 586.884 507.054 586.927 507.519 587.029C508.458 587.229 509.218 587.688 509.774 588.169C510.889 589.159 511.202 590.123 511.341 590.064Z" fill="#262626"/>
<mask id="mask8_1404_785" style="mask-type:luminance" maskUnits="userSpaceOnUse" x="531" y="587" width="6" height="6">
<path d="M531.723 587.188H536.679V592.143H531.723V587.188Z" fill="white"/>
</mask>
<g mask="url(#mask8_1404_785)">
<g opacity="0.600006">
<path d="M531.724 589.666C531.724 591.034 532.832 592.143 534.201 592.143C535.569 592.143 536.678 591.034 536.678 589.666C536.678 588.298 535.569 587.188 534.201 587.188C532.832 587.188 531.724 588.298 531.724 589.666Z" fill="white"/>
</g>
</g>
<mask id="mask9_1404_785" style="mask-type:luminance" maskUnits="userSpaceOnUse" x="504" y="565" width="22" height="21">
<path d="M504.521 565.994H525.393V585.755H504.521V565.994Z" fill="white"/>
</mask>
<g mask="url(#mask9_1404_785)">
<g opacity="0.300003">
<path d="M504.52 581.35L508.531 585.756L525.393 569.053L523.049 565.994L504.52 581.35Z" fill="black"/>
</g>
</g>
<path d="M452.605 233.607C463.661 229.747 475.849 229.194 487.207 232.036C492.293 233.308 497.449 235.416 500.709 239.52C504.566 244.371 505.046 250.99 505.637 257.16C506.839 269.71 509.154 282.151 512.547 294.294C515.371 304.4 518.954 314.351 520.479 324.734C522.006 335.116 521.302 346.23 516.013 355.294C507.857 369.266 490.511 375.446 474.335 375.715C465.819 375.856 457.11 374.61 449.559 370.67C442.01 366.73 435.735 359.83 433.893 351.515" fill="#367CFF"/>
<mask id="mask10_1404_785" style="mask-type:luminance" maskUnits="userSpaceOnUse" x="433" y="230" width="89" height="146">
<path d="M433.893 230.245H521.188V375.725H433.893V230.245Z" fill="white"/>
</mask>
<g mask="url(#mask10_1404_785)">
<g opacity="0.5">
<path d="M452.605 233.607C463.661 229.747 475.849 229.194 487.207 232.036C492.293 233.308 497.449 235.416 500.709 239.52C504.566 244.371 505.046 250.99 505.637 257.16C506.839 269.71 509.154 282.151 512.547 294.294C515.371 304.4 518.954 314.351 520.479 324.734C522.006 335.116 521.302 346.23 516.013 355.294C507.857 369.266 490.511 375.446 474.335 375.715C465.819 375.856 457.11 374.61 449.559 370.67C442.01 366.73 435.735 359.83 433.893 351.515" fill="black"/>
</g>
</g>
<path d="M474.835 246.408C474.731 246.525 477.069 247.997 479.462 251.598C480.671 253.38 481.863 255.654 483.071 258.253C484.298 260.84 485.563 263.764 487.371 266.602C489.185 269.433 491.474 271.833 494.057 273.292C496.619 274.796 499.437 275.157 501.629 274.773C503.845 274.417 505.466 273.446 506.358 272.594C506.817 272.178 507.121 271.798 507.297 271.526C507.475 271.254 507.557 271.105 507.531 271.089C507.467 271.038 507.078 271.6 506.141 272.338C505.221 273.078 503.646 273.909 501.542 274.17C499.45 274.453 496.858 274.061 494.453 272.605C492.035 271.192 489.855 268.884 488.095 266.138C486.337 263.378 485.057 260.492 483.786 257.91C482.534 255.318 481.261 253.024 479.961 251.25C478.673 249.468 477.394 248.205 476.43 247.442C475.47 246.677 474.862 246.366 474.835 246.408Z" fill="#E1E1E1"/>
<path d="M498.267 371.301C498.297 371.3 498.31 370.94 498.307 370.257C498.295 369.482 498.278 368.493 498.258 367.269C498.198 364.674 498.065 360.922 497.861 356.288C497.458 347.018 496.727 334.218 495.619 320.105C494.509 305.985 493.23 293.228 492.182 284.009C491.658 279.4 491.203 275.673 490.857 273.102C490.686 271.89 490.549 270.91 490.441 270.142C490.337 269.468 490.267 269.114 490.238 269.118C490.207 269.121 490.219 269.481 490.269 270.162C490.335 270.934 490.419 271.92 490.525 273.138C490.783 275.829 491.139 279.537 491.575 284.073C492.469 293.304 493.65 306.062 494.762 320.172C495.867 334.277 496.694 347.061 497.254 356.32C497.531 360.868 497.758 364.585 497.923 367.284C498.01 368.504 498.079 369.493 498.134 370.265C498.193 370.945 498.238 371.302 498.267 371.301Z" fill="#E1E1E1"/>
<path d="M494.94 314.614C494.951 314.842 500.055 314.78 506.294 314.002C512.535 313.234 517.499 312.047 517.454 311.823C517.406 311.58 512.395 312.384 506.188 313.147C499.984 313.923 494.927 314.367 494.94 314.614Z" fill="#E1E1E1"/>
<path d="M499.067 314.49C498.958 314.466 498.631 315.377 498.371 316.916C498.243 317.688 498.135 318.604 498.095 319.648C498.087 320.173 498.099 320.782 498.382 321.393C498.664 322.02 499.314 322.534 500.11 322.552C500.511 322.561 500.955 322.366 501.204 322.052C501.468 321.736 501.564 321.357 501.59 321.033C501.636 320.372 501.471 319.824 501.352 319.326C501.095 318.318 500.763 317.438 500.439 316.725C499.784 315.297 499.178 314.534 499.084 314.589C498.972 314.653 499.384 315.514 499.874 316.95C500.116 317.669 500.374 318.533 500.58 319.508C500.68 320.001 500.798 320.506 500.75 320.957C500.708 321.414 500.476 321.693 500.112 321.692C499.211 321.672 498.851 320.616 498.888 319.652C498.883 318.658 498.927 317.745 498.975 316.986C499.076 315.464 499.19 314.516 499.067 314.49Z" fill="#E1E1E1"/>
<path d="M441.606 238.457L495.161 232.202C502.178 231.382 507.201 225.03 506.382 218.013L505.221 208.078C504.402 201.062 498.049 196.038 491.033 196.858L437.478 203.113C430.462 203.931 425.438 210.285 426.257 217.301L427.417 227.235C428.238 234.253 434.589 239.275 441.606 238.457Z" fill="#375A64"/>
<path d="M490.151 197.698C490.159 197.672 489.989 197.586 489.641 197.476C489.293 197.368 488.761 197.26 488.065 197.242C486.689 197.196 484.581 197.628 482.578 199.143C480.626 200.61 478.365 202.699 477.058 205.775C475.698 208.788 475.251 212.483 475.539 216.222C475.758 220.004 477.125 223.534 479.143 226.138C481.154 228.768 483.79 230.416 486.142 231.175C488.507 231.959 490.566 231.992 491.925 231.81C492.61 231.732 493.131 231.603 493.477 231.498C493.822 231.39 493.999 231.319 493.991 231.291C493.973 231.216 493.238 231.404 491.897 231.475C490.563 231.554 488.586 231.424 486.346 230.602C484.11 229.798 481.654 228.186 479.775 225.658C477.889 223.148 476.61 219.799 476.398 216.159C476.119 212.511 476.527 208.98 477.786 206.09C478.97 203.174 481.095 201.115 482.943 199.631C484.803 198.127 486.751 197.638 488.069 197.576C489.403 197.516 490.131 197.779 490.151 197.698Z" fill="#262626"/>
<path d="M459.54 200.403L467.797 199.586C465.602 200.193 463.744 201.758 462.498 203.665C461.252 205.571 460.576 207.805 460.226 210.055C458.746 219.555 463.797 229.779 471.924 234.915L465.28 235.802C465.28 235.802 446.212 218.766 459.54 200.403Z" fill="#262626"/>
<path d="M450.168 217.89C454.408 219.059 459.178 218.111 462.646 215.407C466.115 212.703 468.199 208.31 468.1 203.914C468.008 199.807 466.151 195.623 467.427 191.72C468.304 189.039 470.55 186.951 471.304 184.234C472.427 180.178 469.975 176.079 467.634 172.582C466.131 170.336 464.596 168.058 462.503 166.354C460.408 164.648 457.632 163.574 454.991 164.134" fill="#262626"/>
<path d="M412.311 164.493C412.54 167.592 410.493 170.36 408.431 172.685C406.368 175.01 404.073 177.433 403.628 180.509C402.839 185.96 408.175 191.02 407.073 196.416C406.484 199.308 404.116 201.632 403.693 204.552C403.285 207.378 404.8 210.144 406.676 212.296C408.555 214.446 410.841 216.24 412.503 218.562C414.251 221.009 415.213 223.913 416.468 226.646C417.724 229.38 419.413 232.092 422.057 233.525C426.031 235.682 431.599 234.668 434.647 238.008C437.592 241.237 441.2 241.746 444.831 244.181" fill="#262626"/>
<path d="M459.944 169.232C460.026 166.421 457.424 164.249 454.808 163.22C452.192 162.191 449.284 161.803 446.951 160.232C444.886 158.843 443.498 156.675 441.75 154.901C437.462 150.555 430.764 148.752 424.872 150.36C418.98 151.967 414.128 156.92 412.64 162.843C411.636 166.845 412.322 171.579 415.476 174.239C419.139 177.325 424.568 176.64 429.26 175.68C433.954 174.72 439.263 173.772 443.182 176.528C445.544 178.189 446.899 180.893 448.343 183.395C449.787 185.896 451.599 188.451 454.331 189.391C457.062 190.331 460.771 188.707 460.876 185.82" fill="#262626"/>
<path d="M448.86 169.809C451.288 170.071 453.11 172.148 453.057 174.589L450.252 238.107C450.134 245.609 439.168 249.824 431.137 249.637C423.026 249.448 422.765 245.471 422.664 238.333C422.494 226.409 422.508 221.933 422.502 222.003C422.502 222.003 412.258 220.277 410.165 206.9C409.122 200.248 409.481 189.345 410.062 180.435C410.586 172.413 415.922 162.583 423.914 163.445L448.86 169.809Z" fill="#FFBF9D"/>
<path d="M412.597 188.076C412.563 188.982 413.301 189.758 414.246 189.81C415.19 189.863 415.983 189.174 416.017 188.268C416.051 187.362 415.313 186.586 414.37 186.532C413.425 186.48 412.63 187.171 412.597 188.076Z" fill="#262626"/>
<path d="M412.416 186.112C412.627 186.336 413.929 185.377 415.775 185.386C417.617 185.369 418.971 186.321 419.171 186.096C419.269 185.996 419.055 185.592 418.465 185.161C417.887 184.732 416.896 184.314 415.747 184.316C414.597 184.32 413.629 184.741 413.072 185.173C412.504 185.608 412.311 186.012 412.416 186.112Z" fill="#262626"/>
<path d="M430.97 188.55C430.937 189.455 431.674 190.231 432.62 190.283C433.562 190.336 434.357 189.647 434.39 188.742C434.425 187.835 433.686 187.059 432.742 187.006C431.797 186.954 431.004 187.644 430.97 188.55Z" fill="#262626"/>
<path d="M430.554 186.496C430.766 186.72 432.07 185.762 433.914 185.771C435.757 185.752 437.11 186.706 437.31 186.48C437.409 186.38 437.194 185.976 436.603 185.546C436.025 185.116 435.035 184.699 433.886 184.7C432.737 184.704 431.769 185.126 431.211 185.558C430.645 185.992 430.45 186.396 430.554 186.496Z" fill="#262626"/>
<path d="M423.826 200.167C423.836 200.062 422.689 199.862 420.83 199.619C420.36 199.57 419.913 199.475 419.836 199.154C419.725 198.812 419.922 198.306 420.153 197.758C420.598 196.618 421.065 195.424 421.554 194.172C423.501 189.068 424.91 184.87 424.705 184.794C424.498 184.718 422.753 188.792 420.806 193.896C420.338 195.156 419.89 196.356 419.465 197.503C419.285 198.039 418.976 198.646 419.216 199.352C419.342 199.704 419.688 199.962 419.989 200.043C420.292 200.136 420.556 200.142 420.789 200.156C422.66 200.26 423.82 200.272 423.826 200.167Z" fill="#262626"/>
<path d="M422.503 222.002C422.503 222.002 431.498 222.602 440.422 217.265C440.422 217.265 436.058 226.441 422.677 225.16L422.503 222.002Z" fill="#FF9A6C"/>
<path d="M424.597 204.616C425.262 203.74 426.426 203.261 427.581 203.388C428.382 203.476 429.189 203.864 429.676 204.517C430.16 205.171 430.26 206.096 429.817 206.717C429.317 207.416 428.276 207.576 427.396 207.323C426.514 207.071 425.758 206.489 425.04 205.911C424.842 205.751 424.638 205.583 424.514 205.364C424.39 205.144 424.365 204.857 424.518 204.676" fill="#FF9A6C"/>
<path d="M429.254 201.455C428.954 201.438 428.946 203.441 427.228 204.858C425.514 206.281 423.38 206.051 423.362 206.331C423.336 206.457 423.838 206.722 424.738 206.749C425.622 206.781 426.914 206.499 427.965 205.631C429.013 204.762 429.465 203.599 429.536 202.778C429.614 201.941 429.392 201.445 429.254 201.455Z" fill="#262626"/>
<path d="M429.731 183.263C429.912 183.765 431.756 183.531 433.92 183.797C436.09 184.019 437.834 184.657 438.123 184.207C438.251 183.993 437.947 183.521 437.243 183.033C436.544 182.546 435.428 182.083 434.13 181.935C432.83 181.79 431.64 181.994 430.85 182.313C430.054 182.631 429.654 183.025 429.731 183.263Z" fill="#262626"/>
<path d="M413.106 180.772C413.429 181.191 414.701 180.76 416.23 180.743C417.758 180.672 419.053 181.031 419.353 180.592C419.484 180.38 419.281 179.96 418.716 179.562C418.158 179.166 417.228 178.84 416.177 178.87C415.128 178.9 414.216 179.278 413.684 179.707C413.141 180.136 412.964 180.567 413.106 180.772Z" fill="#262626"/>
<path d="M458.197 213.804C454.52 214.545 450.514 213.414 447.768 210.861C445.018 208.306 443.6 204.394 444.07 200.673C444.488 197.388 446.258 194.048 445.118 190.938C443.613 186.829 437.853 185.565 436.324 181.464C435.436 179.08 436.233 176.292 435.225 173.956C434.28 171.76 431.968 170.494 429.718 169.681C427.469 168.868 425.057 168.306 423.169 166.838C421.281 165.37 420.102 162.6 421.321 160.541C431.296 161.737 441.128 164.125 450.541 167.641C452.724 168.456 455.014 169.436 456.305 171.374C457.67 173.428 457.605 176.08 457.49 178.542C456.93 190.549 456.37 202.556 455.809 214.562" fill="#262626"/>
<path d="M465.406 224.917C465.302 224.933 465.587 223.626 464.711 221.585C464.282 220.576 463.527 219.437 462.43 218.326C461.332 217.21 459.855 216.194 458.104 215.266C456.364 214.318 454.352 213.457 452.296 212.278C450.256 211.104 448.146 209.498 446.763 207.129C446.075 205.957 445.646 204.557 445.643 203.114C445.636 201.677 445.962 200.27 446.246 198.873C446.52 197.482 446.802 196.044 446.523 194.674C446.28 193.292 445.323 192.148 444.052 191.428C442.791 190.677 441.348 190.217 439.986 189.574C438.635 188.942 437.267 188.044 436.527 186.682C435.775 185.345 435.576 183.849 435.523 182.457C435.474 181.053 435.563 179.702 435.546 178.398C435.534 177.1 435.422 175.833 435.01 174.71C434.607 173.585 433.899 172.633 432.983 171.968C431.146 170.614 428.971 170.138 427.052 169.644C425.12 169.161 423.34 168.588 422.007 167.641C420.655 166.706 419.911 165.417 419.603 164.326C419.288 163.218 419.438 162.29 419.65 161.737C419.878 161.18 420.11 160.958 420.11 160.958C420.144 160.978 419.958 161.233 419.782 161.782C419.622 162.329 419.526 163.208 419.862 164.249C420.194 165.276 420.934 166.473 422.227 167.321C423.515 168.192 425.239 168.717 427.171 169.166C429.086 169.634 431.331 170.074 433.327 171.506C434.323 172.21 435.136 173.272 435.583 174.498C436.043 175.724 436.162 177.061 436.186 178.39C436.211 179.724 436.131 181.076 436.186 182.432C436.243 183.78 436.447 185.164 437.116 186.342C437.771 187.538 438.972 188.336 440.278 188.949C441.595 189.57 443.044 190.025 444.408 190.832C445.086 191.234 445.726 191.737 446.224 192.372C446.727 193.005 447.044 193.768 447.2 194.538C447.508 196.101 447.19 197.608 446.911 199.01C446.619 200.417 446.304 201.781 446.306 203.112C446.303 204.434 446.683 205.709 447.319 206.813C448.596 209.04 450.606 210.616 452.587 211.781C454.59 212.958 456.592 213.848 458.34 214.836C460.096 215.802 461.604 216.88 462.707 218.056C463.811 219.224 464.556 220.424 464.96 221.482C465.378 222.538 465.483 223.428 465.484 224.018C465.499 224.316 465.463 224.541 465.45 224.692C465.434 224.841 465.418 224.917 465.406 224.917Z" fill="#262626"/>
<path d="M426.429 234.091C426.436 234.115 426.209 234.181 425.77 234.286C425.552 234.349 425.277 234.395 424.948 234.427C424.62 234.477 424.238 234.509 423.808 234.503C422.106 234.545 419.514 234.095 416.934 232.345C415.665 231.466 414.39 230.273 413.465 228.679C412.5 227.098 412.033 225.158 411.681 223.183C411.312 221.214 410.998 219.11 409.949 217.274C408.906 215.427 406.968 214.195 405.224 212.618C403.408 211.066 402.246 208.826 401.948 206.59C401.622 204.347 402.121 202.081 403.182 200.309C404.213 198.535 405.429 197.062 405.977 195.403C406.557 193.763 406.656 192.101 406.545 190.614C406.274 187.623 405.405 185.289 404.854 183.695C404.278 182.099 403.937 181.221 403.985 181.201C404.008 181.191 404.121 181.399 404.314 181.803C404.508 182.209 404.782 182.81 405.108 183.598C405.736 185.173 406.689 187.494 407.034 190.571C407.18 192.102 407.112 193.846 406.521 195.594C405.954 197.371 404.706 198.917 403.74 200.622C402.75 202.313 402.314 204.391 402.621 206.494C402.924 208.593 403.966 210.623 405.692 212.106C407.357 213.626 409.39 214.902 410.537 216.933C411.665 218.933 411.957 221.111 412.31 223.069C412.644 225.042 413.072 226.887 413.962 228.389C414.816 229.911 416.013 231.074 417.217 231.943C419.662 233.677 422.152 234.194 423.812 234.233C425.494 234.282 426.416 234.013 426.429 234.091Z" fill="#262626"/>
<path d="M465.264 170.355C465.264 170.355 465.42 170.51 465.486 170.903C465.565 171.287 465.457 171.924 464.97 172.51C464.5 173.08 463.682 173.658 462.577 173.719C461.478 173.746 460.341 173.264 459.189 172.706C458.038 172.127 456.772 171.614 455.288 171.554C453.817 171.462 452.23 171.687 450.566 171.983C448.902 172.274 447.132 172.656 445.228 172.671C443.349 172.696 441.234 172.132 439.75 170.672C438.25 169.25 437.397 167.44 436.598 165.782C435.805 164.111 435.064 162.498 434.046 161.194C432.068 158.496 428.698 157.755 426.328 158.378C423.882 158.994 422.41 160.66 421.674 161.822C420.922 163.026 420.76 163.826 420.693 163.803C420.672 163.798 420.698 163.599 420.794 163.228C420.898 162.86 421.085 162.323 421.441 161.684C422.133 160.443 423.6 158.632 426.205 157.903C427.486 157.555 429 157.528 430.501 157.988C432.009 158.418 433.472 159.411 434.549 160.799C435.642 162.174 436.412 163.83 437.212 165.488C438.013 167.139 438.854 168.871 440.225 170.164C441.576 171.488 443.448 171.998 445.23 171.991C447.032 171.987 448.778 171.631 450.458 171.352C452.137 171.072 453.777 170.856 455.329 170.979C456.89 171.063 458.288 171.662 459.405 172.266C460.537 172.852 461.601 173.322 462.569 173.331C463.525 173.316 464.313 172.827 464.766 172.332C465.236 171.827 465.376 171.275 465.346 170.916C465.332 170.551 465.225 170.37 465.264 170.355Z" fill="#375A64"/>
<path d="M457.777 166.511C453.414 165.503 450.061 161.179 450.173 156.701C450.283 152.224 453.846 148.072 458.253 147.281C460.381 146.9 462.846 147.372 464.125 149.116C465.35 150.785 465.269 153.276 466.83 154.636C468.502 156.089 471.067 155.463 473.233 155.931C476.586 156.656 478.83 160.332 478.449 163.743C478.067 167.155 475.451 170.067 472.274 171.368C469.098 172.669 465.47 172.523 462.173 171.565C458.877 170.608 455.858 168.889 452.941 167.08" fill="#262626"/>
<path d="M473.846 156.843C473.914 156.863 473.692 157.87 472.866 159.297C472.05 160.721 470.527 162.499 468.382 163.843C466.23 165.178 463.963 165.762 462.324 165.867C460.679 165.982 459.679 165.737 459.691 165.667C459.7 165.547 460.702 165.613 462.27 165.379C463.835 165.154 465.963 164.526 468.015 163.254C470.059 161.971 471.56 160.339 472.452 159.033C473.352 157.727 473.734 156.798 473.846 156.843Z" fill="#375A64"/>
<path d="M466.768 171.629C466.594 171.776 464.552 168.367 460.437 166.048C456.357 163.663 452.385 163.617 452.424 163.392C452.422 163.315 453.402 163.209 454.969 163.423C456.533 163.631 458.676 164.24 460.782 165.445C462.885 166.659 464.49 168.2 465.46 169.445C466.434 170.692 466.836 171.591 466.768 171.629Z" fill="#367CFF"/>
<path d="M369.614 316.843L348.057 312.647L351.946 318.182L342.686 322.802L334.957 319.183C334.957 319.183 335.519 320.877 337.21 323.701C338.901 326.525 341.157 328.785 342.625 328.899C345.211 329.099 344.819 329.069 342.625 328.899C342.625 328.899 343.097 331.523 345.486 334.071C346.913 335.593 350.659 337.986 355.227 336.769L369.745 331.523L369.614 316.843Z" fill="#FFBF9D"/>
<path d="M347.817 327.679C347.95 327.806 346.754 328.921 344.838 329.133C342.922 329.363 341.506 328.549 341.605 328.395C341.678 328.206 343.054 328.655 344.758 328.443C346.466 328.262 347.702 327.511 347.817 327.679Z" fill="#FF9A6C"/>
<path d="M350.635 332.285C350.772 332.407 349.845 333.453 348.24 333.865C346.636 334.29 345.319 333.829 345.377 333.655C345.415 333.457 346.644 333.577 348.064 333.193C349.492 332.834 350.505 332.13 350.635 332.285Z" fill="#FF9A6C"/>
<path d="M356.099 315.952C356.133 316.052 355.361 316.368 354.215 317.048C353.058 317.712 351.569 318.803 349.857 319.972C348.145 321.143 346.423 322.015 345.079 322.359C343.738 322.724 342.867 322.643 342.867 322.563C342.858 322.452 343.69 322.356 344.929 321.892C346.177 321.444 347.779 320.549 349.47 319.396C351.161 318.241 352.735 317.185 353.985 316.615C355.229 316.025 356.074 315.869 356.099 315.952Z" fill="#FF9A6C"/>
<path d="M487.197 352.719C487.197 352.719 487.937 353.182 489.772 356.452C495.416 366.519 497.694 390.644 476.418 412.17C448.916 439.992 416.722 485.503 416.722 485.503L391.441 592.38L353.254 584.111L372.932 473.022L426.898 372.922L487.197 352.719Z" fill="#262626"/>
<path d="M529.326 559.577L470.497 469.549L452.65 391.838L407.214 414.166L430.005 493.044L502.706 583.606L529.326 559.577Z" fill="#262626"/>
<path d="M391.441 592.38C391.429 592.378 391.459 592.199 391.529 591.852C391.61 591.475 391.718 590.967 391.857 590.32C392.167 588.94 392.611 586.967 393.179 584.446C394.366 579.314 396.069 571.951 398.17 562.867C402.457 544.631 408.363 519.499 414.89 491.739C415.402 489.575 415.91 487.428 416.385 485.423L416.402 485.35L416.449 485.291C433.123 463.968 448.302 445.098 459.482 431.696C465.079 425.003 469.649 419.654 472.89 416.04C474.486 414.214 475.787 412.852 476.649 411.914C477.069 411.47 477.397 411.122 477.643 410.859C477.87 410.626 477.99 410.51 477.999 410.518C478.007 410.524 477.905 410.656 477.693 410.907C477.459 411.179 477.146 411.542 476.747 412.004C475.918 412.971 474.65 414.359 473.085 416.212C469.909 419.876 465.395 425.268 459.85 432C448.77 445.475 433.657 464.394 416.995 485.716L417.059 485.583C416.585 487.587 416.078 489.736 415.566 491.899C408.963 519.64 402.985 544.756 398.647 562.98C396.457 572.042 394.681 579.388 393.442 584.508C392.819 587.018 392.333 588.979 391.993 590.352C391.826 590.994 391.695 591.495 391.598 591.868C391.506 592.21 391.453 592.383 391.441 592.38Z" fill="#375A64"/>
<path d="M460.428 381.138C460.445 381.177 460.123 381.372 459.503 381.645C458.883 381.921 457.955 382.252 456.768 382.529C454.415 383.093 450.936 383.309 447.332 382.26C443.725 381.209 440.905 379.16 439.223 377.42C438.372 376.55 437.765 375.773 437.391 375.208C437.013 374.644 436.845 374.308 436.883 374.282C436.98 374.212 437.815 375.456 439.564 377.066C441.292 378.674 444.055 380.581 447.525 381.592C450.996 382.602 454.348 382.476 456.671 382.048C459.011 381.626 460.383 381.024 460.428 381.138Z" fill="#375A64"/>
<path d="M492.861 357.264C469.857 369.38 432.5 376.624 420.564 371.706L420.147 327.379C420.147 327.379 403.78 300.396 403.72 290.196C403.631 275.494 421.935 241.968 421.935 241.968L449.411 234.684C455.876 234.656 461.108 236.136 465.317 238.374C475.9 243.995 481.669 255.815 480.479 267.739L473.557 311.834L492.861 357.264Z" fill="#367CFF"/>
<mask id="mask11_1404_785" style="mask-type:luminance" maskUnits="userSpaceOnUse" x="431" y="236" width="35" height="64">
<path d="M431.252 236.924H465.016V299.741H431.252V236.924Z" fill="white"/>
</mask>
<g mask="url(#mask11_1404_785)">
<g opacity="0.300003">
<path d="M463.377 238.332C464.97 238.089 465.566 240.7 464.421 241.836C463.278 242.97 461.495 243.036 459.902 243.285C452.746 244.404 447.215 250.536 444.609 257.292C442.002 264.048 441.759 271.444 441.333 278.673C440.905 285.902 440.195 293.346 436.798 299.742C430.477 288.533 429.491 274.462 434.187 262.482C438.885 250.501 449.171 240.849 461.426 236.924" fill="black"/>
</g>
</g>
<path d="M465.317 238.373C465.317 238.373 461.363 231.852 448.098 234.684C439.234 236.577 419.877 255.169 425.278 285.057C430.678 314.945 445.157 325.517 445.157 325.517C445.157 325.517 431.837 279.772 439.234 259.807C446.631 239.843 465.317 238.373 465.317 238.373Z" fill="#262626"/>
<mask id="mask12_1404_785" style="mask-type:luminance" maskUnits="userSpaceOnUse" x="420" y="299" width="53" height="43">
<path d="M420.652 299.017H472.389V341.958H420.652V299.017Z" fill="white"/>
</mask>
<g mask="url(#mask12_1404_785)">
<g opacity="0.300003">
<path d="M420.652 336.854C426.129 338.618 431.385 340.816 437.089 341.578C442.792 342.342 448.759 342.05 454.055 339.798C461.377 336.685 466.816 330.006 469.617 322.558C472.419 315.109 472.801 306.94 472.059 299.017C467.049 305.198 467.657 314.364 463.403 321.088C460.74 325.296 456.404 328.16 451.953 330.392C442.257 335.25 431.495 337.096 420.652 336.854Z" fill="black"/>
</g>
</g>
<path d="M437.129 291.567C437.129 291.567 435.345 325.22 476.399 318.521L480.536 328.257C480.536 328.257 437.371 337.372 431.252 301.631L437.129 291.567Z" fill="#262626"/>
<path d="M474.541 249.727C478.125 254.84 479.058 261.361 477.585 267.429L467.361 313.205C462.968 326.085 450.45 333.903 442.672 334.951L369.744 342.636V315.457L437.437 305.403L440.612 268.333C440.889 263.345 443.349 254.385 446.52 250.527C450.066 246.212 455.521 240.344 464.421 241.836C469.885 242.751 472.196 246.381 474.541 249.727Z" fill="#367CFF"/>
<path d="M476.658 269.213C476.682 269.216 476.654 269.572 476.581 270.246C476.51 270.921 476.387 271.913 476.215 273.189C475.87 275.741 475.326 279.43 474.522 283.966C473.723 288.502 472.662 293.886 471.297 299.824C470.607 302.792 469.879 305.902 468.993 309.105C468.097 312.301 467.014 315.596 465.418 318.768C463.838 321.94 461.746 324.794 459.253 327.042C456.774 329.302 454.007 331.037 451.226 332.329C445.649 334.946 440.127 335.906 435.555 336.401C430.961 336.873 427.225 336.897 424.651 336.924C423.415 336.918 422.43 336.913 421.686 336.91C421.009 336.897 420.651 336.88 420.651 336.854C420.651 336.83 421.007 336.802 421.685 336.769C422.426 336.741 423.411 336.702 424.645 336.654C427.215 336.545 430.942 336.442 435.501 335.913C440.038 335.36 445.485 334.357 450.953 331.752C453.679 330.465 456.381 328.753 458.794 326.541C461.218 324.341 463.245 321.569 464.798 318.454C466.362 315.345 467.439 312.093 468.338 308.921C469.227 305.742 469.969 302.634 470.675 299.678C472.071 293.761 473.181 288.396 474.039 283.878C474.905 279.36 475.521 275.686 475.949 273.149C476.154 271.932 476.318 270.96 476.442 270.226C476.561 269.558 476.633 269.21 476.658 269.213Z" fill="#262626"/>
<path d="M439.403 313.206C439.22 313.265 438.484 311.491 437.759 309.247C437.032 307.001 436.592 305.133 436.774 305.074C436.956 305.014 437.694 306.787 438.419 309.034C439.146 311.278 439.586 313.147 439.403 313.206Z" fill="#262626"/>
<path d="M443.547 312.163C443.443 312.312 441.629 311.176 439.826 309.272C438.015 307.374 436.974 305.503 437.13 305.406C437.295 305.294 438.566 306.946 440.33 308.794C442.082 310.648 443.669 312.002 443.547 312.163Z" fill="#262626"/>
<path d="M376.093 314.515C376.091 314.504 376.194 314.477 376.398 314.436C376.638 314.392 376.935 314.337 377.301 314.269C378.15 314.128 379.317 313.933 380.798 313.688C383.898 313.203 388.307 312.511 393.767 311.655C404.826 309.984 420.135 307.669 437.386 305.061L437.093 305.369C437.334 302.841 437.589 300.169 437.847 297.46C438.726 287.837 439.646 278.684 440.099 270.324C440.438 266.124 441.229 262.181 442.365 258.611C443.506 255.055 444.999 251.809 447.131 249.379C451.457 244.671 456.293 242.173 459.853 241.725C461.627 241.464 463.023 241.644 463.943 241.797C464.401 241.897 464.743 242.003 464.974 242.065C465.205 242.131 465.321 242.171 465.318 242.181C465.311 242.319 463.394 241.451 459.895 241.992C456.426 242.508 451.709 245.033 447.502 249.703C445.463 252.067 444.014 255.267 442.914 258.784C441.815 262.313 441.054 266.225 440.737 270.371C440.319 278.733 439.417 287.904 438.539 297.525C438.279 300.235 438.022 302.908 437.779 305.436L437.753 305.705L437.486 305.744C420.223 308.263 404.902 310.499 393.835 312.113C388.362 312.881 383.945 313.501 380.835 313.937C379.346 314.133 378.174 314.287 377.321 314.399C376.951 314.44 376.65 314.475 376.406 314.501C376.201 314.521 376.094 314.525 376.093 314.515Z" fill="#262626"/>
<path d="M417.832 336.698C417.64 336.718 416.868 330.551 416.105 322.926C415.342 315.299 414.878 309.103 415.07 309.085C415.261 309.065 416.033 315.23 416.797 322.858C417.558 330.482 418.022 336.679 417.832 336.698Z" fill="#FAFAFA"/>
<path d="M471.208 295.367C471.206 295.463 469.436 295.483 466.572 295.439C463.71 295.395 459.754 295.284 455.389 295.121C451.021 294.957 447.069 294.771 444.212 294.6C441.352 294.429 439.589 294.277 439.594 294.181C439.601 294.087 441.374 294.065 444.236 294.111C447.1 294.155 451.052 294.263 455.414 294.427C459.777 294.591 463.725 294.777 466.582 294.948C469.441 295.117 471.209 295.271 471.208 295.367Z" fill="#FAFAFA"/>
<path d="M424.92 286.703C424.927 286.795 423.775 286.965 421.897 287.101C420.024 287.238 417.425 287.329 414.557 287.274C411.685 287.217 409.093 287.023 407.225 286.813C405.357 286.601 404.212 286.387 404.223 286.295C404.232 286.197 405.392 286.238 407.264 286.322C409.135 286.407 411.716 286.522 414.569 286.579C417.423 286.634 420.007 286.622 421.88 286.61C423.752 286.599 424.913 286.605 424.92 286.703Z" fill="#FAFAFA"/>
<path d="M430.946 255.038C430.845 255.217 428.042 253.746 424.409 252.377C420.779 250.99 417.707 250.231 417.751 250.031C417.781 249.855 420.965 250.318 424.654 251.729C428.35 253.122 431.041 254.887 430.946 255.038Z" fill="#FAFAFA"/>
<path d="M483.904 338.231C483.912 338.255 483.708 338.356 483.308 338.528C482.831 338.724 482.252 338.963 481.549 339.252C480.021 339.873 477.783 340.708 474.995 341.683C469.424 343.632 461.612 346.024 452.827 348.04C444.037 350.048 435.961 351.295 430.096 351.963C427.163 352.3 424.784 352.521 423.137 352.627C422.38 352.672 421.755 352.708 421.24 352.74C420.807 352.759 420.577 352.756 420.575 352.732C420.573 352.707 420.797 352.663 421.228 352.6C421.739 352.535 422.36 352.455 423.111 352.357C424.749 352.169 427.116 351.873 430.035 351.476C435.872 350.684 443.908 349.365 452.672 347.364C461.431 345.353 469.239 343.043 474.839 341.216C477.641 340.305 479.9 339.541 481.456 338.999C482.176 338.759 482.769 338.56 483.259 338.397C483.673 338.267 483.895 338.208 483.904 338.231Z" fill="#FAFAFA"/>
<path d="M479.557 258.488C479.55 258.68 471.69 258.582 462.002 258.268C452.31 257.955 444.462 257.546 444.469 257.355C444.474 257.163 452.333 257.262 462.025 257.574C471.711 257.887 479.562 258.296 479.557 258.488Z" fill="#FAFAFA"/>
<path d="M385.605 340.655C385.413 340.662 385.029 334.706 384.746 327.352C384.465 319.998 384.391 314.031 384.582 314.023C384.774 314.016 385.158 319.971 385.441 327.326C385.723 334.679 385.797 340.647 385.605 340.655Z" fill="#FAFAFA"/>
</g>
<path d="M236.442 204.296C248.223 202.072 260.645 203.366 271.715 207.974C276.668 210.037 281.568 212.957 284.245 217.608C287.411 223.106 286.89 229.881 286.548 236.217C285.855 249.106 286.303 262.057 287.89 274.866C289.211 285.53 291.321 296.149 291.285 306.894C291.249 317.638 288.845 328.784 282.108 337.154C271.724 350.058 253.221 353.674 236.803 351.484C228.16 350.329 219.531 347.742 212.487 342.602C205.442 337.464 200.14 329.522 199.542 320.824" fill="#375A64"/>
<path d="M257 220.641C256.877 220.745 259.02 222.59 260.893 226.601C261.846 228.588 262.708 231.073 263.534 233.889C264.382 236.696 265.218 239.848 266.617 242.998C268.021 246.138 269.974 248.918 272.366 250.788C274.732 252.7 277.53 253.496 279.806 253.441C282.105 253.418 283.894 252.681 284.928 251.954C285.457 251.604 285.821 251.265 286.041 251.017C286.264 250.769 286.368 250.63 286.345 250.609C286.288 250.549 285.806 251.057 284.748 251.664C283.702 252.272 281.982 252.874 279.812 252.817C277.65 252.785 275.085 251.993 272.873 250.153C270.64 248.354 268.784 245.685 267.421 242.638C266.06 239.576 265.204 236.458 264.31 233.65C263.438 230.836 262.498 228.318 261.452 226.325C260.418 224.325 259.316 222.85 258.458 221.933C257.601 221.012 257.032 220.604 257 220.641Z" fill="#262626"/>
<path d="M261.705 350.659C261.736 350.663 261.804 350.3 261.905 349.608C262.011 348.822 262.144 347.816 262.309 346.575C262.644 343.94 263.08 340.12 263.58 335.398C264.583 325.95 265.792 312.88 266.82 298.422C267.845 283.958 268.493 270.847 268.836 261.354C269.009 256.606 269.116 252.764 269.157 250.107C269.169 248.855 269.179 247.842 269.185 247.048C269.183 246.35 269.167 245.982 269.136 245.98C269.105 245.979 269.063 246.346 269.009 247.043C268.957 247.834 268.895 248.846 268.815 250.095C268.667 252.859 268.463 256.667 268.213 261.326C267.712 270.807 266.965 283.904 265.943 298.359C264.915 312.808 263.804 325.879 262.96 335.338C262.549 339.983 262.212 343.783 261.968 346.539C261.871 347.788 261.791 348.799 261.729 349.59C261.684 350.288 261.676 350.656 261.705 350.659Z" fill="#262626"/>
<path d="M266.969 292.759C266.944 292.991 272.121 293.707 278.556 293.868C284.993 294.041 290.2 293.595 290.188 293.361C290.176 293.109 284.98 293.16 278.58 292.987C272.181 292.828 266.993 292.507 266.969 292.759Z" fill="#262626"/>
<path d="M271.166 293.263C271.058 293.221 270.589 294.095 270.091 295.613C269.843 296.373 269.595 297.287 269.397 298.336C269.307 298.867 269.227 299.485 269.421 300.148C269.611 300.825 270.19 301.445 270.994 301.584C271.398 301.653 271.878 301.524 272.177 301.243C272.494 300.964 272.649 300.596 272.722 300.272C272.871 299.608 272.787 299.028 272.743 298.508C272.635 297.447 272.434 296.507 272.215 295.735C271.77 294.189 271.27 293.323 271.167 293.365C271.045 293.412 271.331 294.347 271.609 295.876C271.745 296.64 271.874 297.555 271.934 298.573C271.961 299.088 272.002 299.617 271.885 300.067C271.774 300.524 271.495 300.769 271.127 300.713C270.219 300.555 270.014 299.431 270.199 298.461C270.345 297.455 270.527 296.536 270.693 295.776C271.026 294.249 271.286 293.307 271.166 293.263Z" fill="#262626"/>
<path d="M224.262 207.52L280.046 209.363C287.108 209.596 293.02 204.062 293.253 197.002L293.612 186.158C293.845 179.096 288.31 173.184 281.249 172.951L225.465 171.107C218.405 170.875 212.492 176.41 212.26 183.47L211.901 194.314C211.668 201.375 217.202 207.287 224.262 207.52Z" fill="#262626"/>
<path d="M279.924 173.656C279.936 173.632 279.777 173.518 279.441 173.355C279.105 173.192 278.584 173.002 277.881 172.876C276.496 172.622 274.296 172.738 272.037 173.967C269.837 175.155 267.229 176.926 265.437 179.84C263.601 182.684 262.588 186.358 262.311 190.186C261.955 194.05 262.803 197.831 264.449 200.774C266.084 203.743 268.501 205.814 270.768 206.94C273.043 208.095 275.121 208.44 276.525 208.463C277.231 208.49 277.779 208.438 278.145 208.383C278.511 208.327 278.7 208.283 278.697 208.254C278.689 208.175 277.917 208.254 276.548 208.122C275.187 207.996 273.204 207.566 271.061 206.391C268.92 205.236 266.679 203.23 265.161 200.384C263.633 197.558 262.848 193.971 263.188 190.254C263.461 186.518 264.413 183.006 266.127 180.27C267.771 177.498 270.235 175.736 272.332 174.516C274.445 173.276 276.492 173.078 277.835 173.216C279.195 173.359 279.893 173.735 279.924 173.656Z" fill="#375A64"/>
<path d="M248.52 171.734L257.005 172.165C254.689 172.445 252.57 173.746 251.018 175.486C249.466 177.229 248.441 179.386 247.744 181.611C244.8 191.005 248.356 202.123 255.802 208.563L248.94 208.449C248.94 208.449 232.229 188.297 248.52 171.734Z" fill="#375A64"/>
<path d="M207.074 155.757C203.61 147.379 203.427 132.807 208.724 125.145C214.022 117.483 223.935 112.425 233.042 110.467C234.564 110.141 236.202 109.921 237.636 110.526C239.071 111.13 240.142 112.843 239.527 114.274C241.356 113.131 243.231 111.97 245.332 111.487C247.435 111.005 249.847 111.317 251.392 112.821C252.939 114.325 253.183 117.166 251.543 118.569C254.083 117.642 257.143 118.362 259.003 120.325C260.863 122.287 261.418 125.382 260.355 127.869C259.339 130.25 257.176 132.909 255.268 134.659C253.359 136.409 253.044 138.225 253.358 140.795" fill="#262626"/>
<path d="M209.258 140.39L206.848 191.692C206.437 200.416 213.41 207.706 222.145 207.685C230.294 207.666 236.994 201.244 237.369 193.101C237.546 189.24 237.702 186.02 237.746 185.624C237.746 185.624 250.864 185.009 252.414 172.128C253.164 165.902 253.662 152.956 253.98 141.237C254.318 128.653 244.921 117.922 232.404 116.572L231.16 116.438C217.656 115.774 209.548 126.873 209.258 140.39Z" fill="#FFBF9D"/>
<path d="M237.788 185.44C237.788 185.44 229.566 185.224 221.488 178.848C221.488 178.848 224.06 186.918 237.056 187.145L237.788 185.44Z" fill="#FF9A6C"/>
<path d="M249.29 149.472C249.219 150.448 248.335 151.193 247.314 151.138C246.294 151.082 245.523 150.249 245.594 149.273C245.665 148.297 246.549 147.55 247.569 147.605C248.59 147.66 249.361 148.496 249.29 149.472Z" fill="#262626"/>
<path d="M250.526 147.269C250.271 147.484 248.987 146.301 247.004 146.093C245.027 145.856 243.463 146.719 243.274 146.453C243.179 146.333 243.459 145.925 244.142 145.533C244.815 145.141 245.927 144.809 247.16 144.948C248.395 145.088 249.384 145.653 249.931 146.184C250.491 146.716 250.65 147.173 250.526 147.269Z" fill="#262626"/>
<path d="M229.777 148.048C229.706 149.024 228.821 149.77 227.801 149.714C226.781 149.66 226.01 148.825 226.081 147.849C226.151 146.873 227.035 146.126 228.055 146.181C229.077 146.236 229.847 147.072 229.777 148.048Z" fill="#262626"/>
<path d="M231.002 145.537C230.748 145.753 229.461 144.569 227.48 144.361C225.502 144.124 223.938 144.987 223.749 144.721C223.656 144.603 223.933 144.195 224.618 143.801C225.292 143.409 226.402 143.077 227.637 143.215C228.87 143.356 229.861 143.923 230.408 144.452C230.965 144.985 231.125 145.441 231.002 145.537Z" fill="#262626"/>
<path d="M236.61 161.013C236.613 160.9 237.868 160.819 239.892 160.78C240.404 160.781 240.894 160.733 241.017 160.397C241.174 160.044 241.022 159.476 240.84 158.86C240.497 157.584 240.137 156.247 239.76 154.844C238.273 149.132 237.254 144.459 237.485 144.4C237.716 144.343 239.108 148.925 240.594 154.637C240.949 156.044 241.288 157.385 241.61 158.668C241.74 159.264 242 159.952 241.658 160.683C241.481 161.047 241.081 161.281 240.746 161.333C240.412 161.397 240.126 161.373 239.874 161.36C237.853 161.252 236.606 161.127 236.61 161.013Z" fill="#262626"/>
<path d="M230.629 161.755C230.953 161.771 230.725 163.923 232.402 165.648C234.074 167.379 236.394 167.385 236.378 167.687C236.394 167.825 235.824 168.051 234.852 167.972C233.9 167.903 232.545 167.448 231.52 166.392C230.497 165.335 230.149 164.032 230.17 163.143C230.185 162.233 230.484 161.727 230.629 161.755Z" fill="#262626"/>
<path d="M232.352 137.824C232.098 138.342 230.146 137.874 227.79 137.903C225.434 137.884 223.485 138.363 223.229 137.847C223.117 137.602 223.498 137.13 224.313 136.688C225.12 136.25 226.373 135.883 227.785 135.879C229.198 135.876 230.453 136.236 231.262 136.672C232.078 137.108 232.462 137.578 232.352 137.824Z" fill="#262626"/>
<path d="M250.416 141.453C250.018 141.867 248.704 141.252 247.064 141.052C245.432 140.796 244 141.028 243.729 140.523C243.614 140.279 243.881 139.851 244.534 139.491C245.18 139.131 246.218 138.892 247.342 139.047C248.468 139.204 249.401 139.719 249.922 140.241C250.453 140.767 250.593 141.251 250.416 141.453Z" fill="#262626"/>
<path d="M209.282 150.055C209.073 149.936 200.702 146.478 200.033 155.327C199.363 164.175 208.385 163.022 208.419 162.77C208.454 162.516 209.282 150.055 209.282 150.055Z" fill="#FFBF9D"/>
<path d="M205.97 159.213C205.933 159.182 205.807 159.309 205.538 159.409C205.275 159.506 204.833 159.553 204.385 159.345C203.475 158.931 202.801 157.387 202.878 155.79C202.917 154.982 203.143 154.229 203.477 153.615C203.795 152.989 204.249 152.567 204.726 152.519C205.202 152.447 205.514 152.754 205.603 153.011C205.703 153.267 205.634 153.439 205.679 153.458C205.702 153.482 205.881 153.325 205.837 152.954C205.814 152.775 205.726 152.558 205.53 152.373C205.331 152.185 205.026 152.073 204.695 152.083C204.009 152.078 203.347 152.659 202.981 153.333C202.577 154.007 202.303 154.853 202.261 155.759C202.182 157.546 202.969 159.285 204.221 159.75C204.83 159.961 205.363 159.811 205.647 159.623C205.938 159.425 205.999 159.231 205.97 159.213Z" fill="#FF9A6C"/>
<path d="M260.9 124.97C261.057 136.522 246.563 140.23 240.852 133.34C238.211 130.155 235.993 126.256 232.192 124.622C229.632 123.522 226.631 123.776 224.061 124.854C224.036 124.864 224.011 124.876 223.984 124.887C220.196 126.503 217.719 130.559 216.843 134.584C215.621 140.196 216.148 145.268 214.276 150.363C214.008 151.095 213.696 151.882 213.031 152.287C211.9 152.976 210.407 152.182 209.6 151.132C208.308 149.451 207.976 147.238 207.828 145.124C207.491 140.308 207.899 135.399 209.456 130.83C211.012 126.26 213.76 122.038 217.587 119.096C222.371 115.419 228.679 113.924 234.667 114.664C240.653 115.403 246.289 118.29 250.688 122.419C252.728 124.336 254.555 126.583 255.429 129.242" fill="#262626"/>
<path d="M252.014 117.944C252.014 117.919 252.462 117.872 253.234 118.09C253.999 118.302 255.071 118.86 256.032 119.94C256.979 121.011 257.806 122.628 257.887 124.564C257.971 126.5 257.168 128.594 255.75 130.266C254.324 131.942 252.472 133.064 250.676 133.632C248.879 134.22 247.174 134.352 245.768 134.335C244.358 134.306 243.231 134.136 242.463 133.98C241.695 133.824 241.283 133.687 241.291 133.646C241.31 133.52 243.011 133.902 245.766 133.852C247.135 133.808 248.775 133.63 250.475 133.038C252.171 132.466 253.894 131.392 255.23 129.824C256.554 128.263 257.303 126.339 257.259 124.582C257.219 122.819 256.504 121.29 255.664 120.251C254.812 119.206 253.85 118.616 253.146 118.34C252.438 118.056 252.004 118.012 252.014 117.944Z" fill="#375A64"/>
<path d="M246.403 113.439C246.403 113.406 246.735 113.366 247.235 113.652C247.717 113.938 248.315 114.615 248.471 115.647C248.625 116.684 248.22 117.892 247.537 118.983C246.852 120.074 245.967 121.195 244.855 122.183C242.643 124.187 240.097 125.278 238.22 125.71C236.333 126.171 235.12 126.059 235.123 125.995C235.111 125.872 236.299 125.811 238.093 125.244C239.883 124.707 242.28 123.594 244.399 121.676C245.463 120.732 246.323 119.67 247.005 118.648C247.68 117.632 248.065 116.582 247.991 115.702C247.916 114.819 247.463 114.18 247.083 113.87C246.689 113.554 246.389 113.495 246.403 113.439Z" fill="#375A64"/>
<path d="M208.904 239.427L213.06 209.107L153.462 221.071L99.2371 202.272L84.5918 217.324L142.296 247.044C147.441 249.503 153.24 250.241 158.837 249.153L208.904 239.427Z" fill="#FFBF9D"/>
<path d="M99.2378 202.272C99.2378 202.272 78.5018 192.352 77.1752 192.021C76.1525 191.765 60.4912 190.932 53.3592 190.562C50.5272 190.417 50.1085 194.621 52.9178 195.001C53.0045 195.013 53.0938 195.022 53.1845 195.03C57.1672 195.362 65.9338 197.354 65.9338 197.354L61.9525 206.681C61.5445 207.636 61.8458 208.745 62.6805 209.362L74.7458 218.285C77.9645 219.744 81.7165 219.378 84.5912 217.324L89.9098 218.413L99.2378 202.272Z" fill="#FFBF9D"/>
<path d="M61.8916 207.224C62.2729 208.972 66.4316 212.536 69.5863 212.528C70.2769 212.526 70.9903 212.326 71.4889 211.848C71.9876 211.371 72.2196 210.586 71.9316 209.958C71.7449 209.547 71.3743 209.254 71.0183 208.978C68.6636 207.148 66.3089 205.32 63.9556 203.492" fill="#FFBF9D"/>
<path d="M63.9549 203.492C64.0136 203.416 65.1363 204.178 66.9043 205.472C67.8443 206.173 68.8763 206.944 69.9869 207.772C70.5669 208.232 71.1589 208.617 71.8056 209.204C72.1203 209.501 72.4003 209.989 72.4003 210.494C72.4149 210.993 72.2389 211.474 71.9389 211.866C71.2989 212.656 70.3096 212.896 69.4736 212.861C68.6216 212.836 67.8456 212.604 67.1589 212.312C65.7816 211.72 64.6923 210.929 63.8683 210.18C63.0416 209.429 62.4749 208.71 62.1736 208.156C61.8656 207.6 61.8536 207.225 61.8909 207.224C61.9496 207.213 62.0443 207.533 62.4016 208.012C62.7536 208.492 63.3509 209.13 64.1869 209.806C65.0176 210.48 66.1003 211.2 67.3989 211.718C68.0456 211.977 68.7603 212.169 69.4869 212.181C70.1963 212.209 70.9656 211.976 71.3909 211.438C71.8216 210.877 71.8296 210.136 71.3203 209.681C70.8083 209.201 70.1389 208.726 69.5936 208.277C68.5176 207.406 67.5163 206.597 66.6029 205.858C64.9123 204.466 63.8963 203.568 63.9549 203.492Z" fill="#FF9A6C"/>
<path d="M78.6449 212.608C78.5835 212.664 78.1795 212.372 77.7435 211.706C77.3075 211.047 76.8942 209.987 76.8355 208.766C76.7822 207.543 77.0955 206.45 77.4702 205.754C77.8435 205.05 78.2182 204.722 78.2849 204.772C78.4609 204.876 77.3969 206.487 77.5289 208.734C77.6035 210.982 78.8102 212.488 78.6449 212.608Z" fill="#FF9A6C"/>
<path d="M70.3524 207.82C70.9818 208.799 72.2844 209.285 73.4004 208.959C74.5178 208.632 75.3524 207.52 75.3564 206.357C75.3604 204.837 74.1418 203.628 73.0138 202.609C71.2831 201.047 69.5524 199.485 67.8218 197.924" fill="#FFBF9D"/>
<path d="M67.8214 197.923C67.8854 197.851 68.712 198.481 69.9974 199.557C70.704 200.162 71.4467 200.799 72.2307 201.471C73.044 202.213 74.0267 202.951 74.848 204.034C75.2454 204.575 75.5667 205.202 75.6574 205.874C75.768 206.538 75.6134 207.226 75.3134 207.757C74.716 208.846 73.5534 209.381 72.64 209.303C71.7187 209.251 71.076 208.817 70.74 208.467C70.396 208.11 70.32 207.838 70.352 207.819C70.4 207.787 70.5547 208.002 70.9187 208.263C71.272 208.521 71.8774 208.829 72.648 208.813C73.404 208.815 74.2907 208.345 74.7494 207.453C75.2414 206.573 75.0307 205.397 74.288 204.445C73.5654 203.481 72.5974 202.714 71.8014 201.946C71.0534 201.235 70.3427 200.561 69.668 199.921C68.468 198.753 67.7574 197.994 67.8214 197.923Z" fill="#FF9A6C"/>
<path d="M79.2349 197.138C75.0576 198.13 71.0456 199.807 67.4069 202.084C67.1896 202.222 66.9576 202.38 66.8883 202.627C66.7909 202.971 67.0549 203.312 67.3349 203.535C68.4056 204.391 69.8816 204.536 71.2469 204.423C72.6123 204.308 73.9616 203.972 75.3323 204.003C77.7029 204.055 79.8963 205.191 82.1829 205.82C84.4696 206.45 87.2563 206.435 88.8243 204.656" fill="#FFBF9D"/>
<path d="M88.8253 204.656C88.8426 204.672 88.7693 204.78 88.6079 204.976C88.4399 205.163 88.1653 205.424 87.7479 205.672C86.9266 206.187 85.4973 206.555 83.7799 206.379C82.0399 206.248 80.1493 205.417 78.0586 204.804C77.0079 204.503 75.8919 204.285 74.7306 204.353C73.5613 204.409 72.3399 204.701 71.0173 204.787C69.7106 204.861 68.3013 204.691 67.2226 203.876C66.9586 203.676 66.6693 203.421 66.5559 202.985C66.5013 202.767 66.5426 202.499 66.6653 202.311C66.7853 202.119 66.9386 202.001 67.0733 201.907C67.5933 201.577 68.0719 201.3 68.5639 201.02C70.5173 199.92 72.3719 199.112 73.9573 198.528C75.5453 197.944 76.8666 197.584 77.7866 197.372C78.7066 197.16 79.2253 197.096 79.2359 197.137C79.2653 197.253 77.2319 197.723 74.1359 198.985C72.5919 199.621 70.7866 200.463 68.8826 201.575C68.4133 201.851 67.9106 202.155 67.4519 202.452C67.2346 202.609 67.1786 202.709 67.2119 202.835C67.2453 202.983 67.4119 203.183 67.6306 203.331C68.5119 203.995 69.7519 204.165 70.9773 204.095C72.2146 204.017 73.4466 203.728 74.6973 203.673C75.9586 203.609 77.1639 203.863 78.2386 204.189C80.3906 204.863 82.1986 205.711 83.8359 205.891C85.4639 206.117 86.8079 205.847 87.6186 205.433C88.4453 205.033 88.7746 204.604 88.8253 204.656Z" fill="#FF9A6C"/>
<path d="M154.391 231.559C154.217 231.606 153.509 229.24 153.427 226.219C153.331 223.198 153.901 220.796 154.078 220.832C154.278 220.863 154.027 223.254 154.121 226.199C154.199 229.143 154.59 231.516 154.391 231.559Z" fill="#FF9A6C"/>
<path d="M206.534 195.035L189.621 214.093C189.621 214.093 180.59 279.899 179.945 285.061C179.3 290.222 177.584 306.753 177.584 311.269C177.584 315.785 173.834 348.098 173.834 348.098C173.834 348.098 245.589 362.997 257.594 348.098L253.86 320.431L257.11 251.797C257.11 251.797 262.493 204.159 237.369 193.101C237.369 193.101 221.488 202.675 206.534 195.035Z" fill="#367CFF"/>
<path d="M248.892 199.857C248.892 199.857 243.941 194.969 228.14 199.062C211.486 203.377 202.698 218.965 206.83 263.097C210.237 299.486 224.63 304.725 224.63 304.725C224.63 304.725 216.748 249.832 218.102 226.869C219.813 197.865 248.892 205.085 248.892 205.085C253.032 203.746 248.892 199.857 248.892 199.857Z" fill="#262626"/>
<path d="M206.535 195.035L191.916 199.063L159.033 219.193L168.397 248.927L187.707 246.813L206.535 195.035Z" fill="#367CFF"/>
<path d="M187.512 215.68C187.703 215.697 186.872 226.327 185.653 239.419C184.437 252.516 183.295 263.115 183.104 263.097C182.913 263.079 183.745 252.452 184.963 239.355C186.18 226.263 187.321 215.661 187.512 215.68Z" fill="#262626"/>
<path d="M254.445 308.088C254.445 308.088 249.774 323.089 233.274 298.32C216.775 273.549 219.097 284.627 219.097 284.627L215.715 288.648C215.715 288.648 233.861 329.525 254.222 323.117L254.445 308.088Z" fill="#262626"/>
<mask id="mask13_1404_785" style="mask-type:luminance" maskUnits="userSpaceOnUse" x="173" y="222" width="14" height="27">
<path d="M173.834 222.83H186.848V248.332H173.834V222.83Z" fill="white"/>
</mask>
<g mask="url(#mask13_1404_785)">
<g opacity="0.300003">
<path d="M186.847 222.83L173.835 248.332L184.586 247.154L186.847 222.83Z" fill="black"/>
</g>
</g>
<mask id="mask14_1404_785" style="mask-type:luminance" maskUnits="userSpaceOnUse" x="180" y="259" width="76" height="62">
<path d="M180.88 259.869H255.361V320.729H180.88V259.869Z" fill="white"/>
</mask>
<g mask="url(#mask14_1404_785)">
<g opacity="0.300003">
<path d="M180.879 290.542C190.415 300.937 201.771 309.658 214.275 316.189C219.523 318.929 225.316 321.342 231.188 320.591C237.638 319.766 243.168 315.089 246.216 309.345C249.264 303.601 248.827 300.829 249.554 294.369C250.354 287.249 250.356 277.746 250.731 271.255C250.798 270.103 250.82 268.771 250.82 267.51C250.819 264.689 252.662 262.206 255.362 261.395C255.362 261.395 251.428 259.543 248.794 259.919C246.156 260.294 244.16 262.49 242.78 264.766C235.466 276.83 238.652 294.518 224.69 302.03C220.135 304.481 214.823 305.059 209.718 304.226C198.294 302.362 189.546 294.85 181.12 287.53" fill="black"/>
</g>
</g>
<path d="M202.992 246.531C202.992 257.049 200.159 265.575 196.664 265.575C193.17 265.575 190.336 257.049 190.336 246.531C190.336 236.013 193.17 227.487 196.664 227.487C200.159 227.487 202.992 236.013 202.992 246.531Z" fill="#FAFAFA"/>
<path d="M200.051 577.684L201.502 609.032C201.502 609.032 170.128 621.034 169.831 626.853L230.712 626.221L230.455 577.286L200.051 577.684Z" fill="#367CFF"/>
<mask id="mask15_1404_785" style="mask-type:luminance" maskUnits="userSpaceOnUse" x="217" y="606" width="6" height="5">
<path d="M217.349 606.1H222.097V610.832H217.349V606.1Z" fill="white"/>
</mask>
<g mask="url(#mask15_1404_785)">
<g opacity="0.600006">
<path d="M220.3 606.198C221.482 606.507 222.31 607.825 222.05 609.017C221.788 610.211 220.456 611.063 219.27 610.775C218.083 610.486 217.04 608.937 217.434 607.781C217.827 606.622 219.444 605.706 220.527 606.271" fill="white"/>
</g>
</g>
<mask id="mask16_1404_785" style="mask-type:luminance" maskUnits="userSpaceOnUse" x="169" y="621" width="62" height="6">
<path d="M169.804 621.342H230.712V626.853H169.804V621.342Z" fill="white"/>
</mask>
<g mask="url(#mask16_1404_785)">
<g opacity="0.600006">
<path d="M230.712 626.222L230.686 621.343L172.204 623.74C172.204 623.74 169.505 624.947 169.832 626.854L230.712 626.222Z" fill="white"/>
</g>
</g>
<path d="M200.513 608.732C200.526 609.029 202.013 609.148 203.486 610.089C204.983 610.991 205.75 612.271 206.023 612.149C206.297 612.091 205.835 610.316 204.031 609.209C202.239 608.087 200.445 608.46 200.513 608.732Z" fill="#262626"/>
<path d="M194.155 611.439C194.089 611.728 195.383 612.22 196.404 613.467C197.464 614.684 197.733 616.04 198.029 616.024C198.309 616.068 198.496 614.324 197.195 612.799C195.908 611.262 194.157 611.155 194.155 611.439Z" fill="#262626"/>
<path d="M190.607 619.119C190.878 619.18 191.276 617.691 190.496 616.069C189.727 614.443 188.319 613.816 188.195 614.065C188.03 614.312 188.942 615.176 189.562 616.516C190.214 617.84 190.311 619.092 190.607 619.119Z" fill="#262626"/>
<path d="M200.974 601.551C201.102 601.82 202.461 601.396 204.142 601.492C205.826 601.555 207.14 602.106 207.292 601.85C207.462 601.634 206.173 600.546 204.192 600.46C202.212 600.358 200.826 601.319 200.974 601.551Z" fill="#262626"/>
<mask id="mask17_1404_785" style="mask-type:luminance" maskUnits="userSpaceOnUse" x="200" y="583" width="31" height="7">
<path d="M200.345 583.86H230.516V589.479H200.345V583.86Z" fill="white"/>
</mask>
<g mask="url(#mask17_1404_785)">
<g opacity="0.300003">
<path d="M200.346 583.892L200.596 589.479L230.515 588.896L230.502 583.86L200.346 583.892Z" fill="black"/>
</g>
</g>
<path d="M200.798 595.222C200.797 595.344 201.973 595.516 203.847 595.175C204.779 595.003 205.878 594.686 207.027 594.162C207.602 593.899 208.187 593.584 208.769 593.214C209.047 593.03 209.378 592.846 209.682 592.487C210.007 592.174 210.187 591.383 209.801 590.904C209.485 590.44 208.931 590.244 208.493 590.239C208.043 590.228 207.681 590.323 207.35 590.408C206.674 590.58 206.041 590.811 205.461 591.079C204.303 591.619 203.365 592.299 202.669 592.952C201.27 594.275 200.799 595.391 200.902 595.447C201.037 595.544 201.714 594.606 203.141 593.512C203.853 592.967 204.762 592.403 205.845 591.951C206.386 591.73 206.971 591.536 207.589 591.394C208.233 591.218 208.781 591.207 208.95 591.492C209.01 591.6 209.019 591.643 208.886 591.834C208.747 592.01 208.489 592.183 208.214 592.364C207.679 592.722 207.141 593.032 206.613 593.303C205.557 593.84 204.545 594.21 203.678 594.463C201.938 594.968 200.791 595.06 200.798 595.222Z" fill="#262626"/>
<path d="M201.189 595.643C201.296 595.687 201.873 594.617 201.963 592.69C202.004 591.734 201.892 590.578 201.512 589.357C201.319 588.747 201.057 588.123 200.717 587.513C200.353 586.915 199.911 586.115 198.756 585.994C198.153 585.978 197.657 586.453 197.491 586.858C197.295 587.271 197.257 587.625 197.189 587.979C197.085 588.691 197.105 589.389 197.209 590.033C197.413 591.326 197.956 592.398 198.544 593.169C199.749 594.733 200.995 595.075 201.019 594.975C201.116 594.825 200.073 594.262 199.148 592.755C198.691 592.011 198.281 591.031 198.153 589.899C198.088 589.337 198.091 588.738 198.191 588.138C198.279 587.49 198.517 586.965 198.76 587.029C199.063 587.021 199.581 587.503 199.836 588.015C200.155 588.559 200.409 589.115 200.609 589.662C201.001 590.758 201.179 591.809 201.231 592.698C201.333 594.483 201.027 595.601 201.189 595.643Z" fill="#262626"/>
<path d="M259.038 558.65L283.654 578.111C283.654 578.111 272.141 609.67 276.341 613.709L315.789 567.334L278.677 535.437L259.038 558.65Z" fill="#367CFF"/>
<mask id="mask18_1404_785" style="mask-type:luminance" maskUnits="userSpaceOnUse" x="292" y="561" width="6" height="6">
<path d="M292.863 561.668H297.547V566.248H292.863V561.668Z" fill="white"/>
</mask>
<g mask="url(#mask18_1404_785)">
<g opacity="0.600006">
<path d="M293.844 562.061C294.852 561.372 296.389 561.611 297.119 562.591C297.848 563.571 297.62 565.136 296.623 565.841C295.627 566.548 293.773 566.319 293.157 565.263C292.543 564.208 292.912 562.385 294.048 561.939" fill="white"/>
</g>
</g>
<mask id="mask19_1404_785" style="mask-type:luminance" maskUnits="userSpaceOnUse" x="275" y="564" width="41" height="50">
<path d="M275.323 564.153H315.788V613.708H275.323V564.153Z" fill="white"/>
</mask>
<g mask="url(#mask19_1404_785)">
<g opacity="0.600006">
<path d="M315.788 567.334L312.088 564.152L275.544 609.876C275.544 609.876 274.687 612.704 276.34 613.708L315.788 567.334Z" fill="white"/>
</g>
</g>
<path d="M282.78 578.662C283.013 578.848 284.078 577.802 285.754 577.307C287.418 576.768 288.888 577.028 288.974 576.744C289.108 576.498 287.468 575.684 285.448 576.319C283.425 576.935 282.53 578.534 282.78 578.662Z" fill="#262626"/>
<path d="M280.654 585.237C280.829 585.476 282.049 584.823 283.661 584.869C285.274 584.868 286.475 585.553 286.657 585.32C286.874 585.137 285.681 583.852 283.675 583.833C281.67 583.797 280.442 585.048 280.654 585.237Z" fill="#262626"/>
<path d="M284.125 592.952C284.349 592.788 283.485 591.509 281.75 591.036C280.018 590.551 278.621 591.203 278.729 591.459C278.806 591.745 280.056 591.624 281.474 592.035C282.902 592.411 283.912 593.157 284.125 592.952Z" fill="#262626"/>
<path d="M277.662 573.604C277.948 573.686 278.52 572.38 279.695 571.175C280.847 569.944 282.124 569.314 282.03 569.031C281.978 568.76 280.312 569.02 278.947 570.46C277.572 571.888 277.388 573.564 277.662 573.604Z" fill="#262626"/>
<mask id="mask20_1404_785" style="mask-type:luminance" maskUnits="userSpaceOnUse" x="263" y="539" width="25" height="27">
<path d="M263.918 539.712H287.481V565.973H263.918V539.712Z" fill="white"/>
</mask>
<g mask="url(#mask20_1404_785)">
<g opacity="0.300003">
<path d="M263.918 562.499L268.301 565.972L287.481 543.004L283.669 539.711L263.918 562.499Z" fill="black"/>
</g>
</g>
<path d="M272.768 569.586C272.86 569.669 273.761 568.893 274.732 567.254C275.213 566.438 275.694 565.401 276.052 564.189C276.23 563.584 276.378 562.936 276.478 562.253C276.522 561.922 276.601 561.552 276.529 561.088C276.506 560.636 276.026 559.982 275.413 559.958C274.854 559.893 274.344 560.182 274.05 560.51C273.749 560.842 273.582 561.178 273.43 561.484C273.116 562.108 272.876 562.737 272.697 563.349C272.346 564.578 272.244 565.732 272.281 566.686C272.362 568.612 272.896 569.697 273.006 569.657C273.168 569.617 272.905 568.492 273.013 566.697C273.069 565.802 273.238 564.745 273.608 563.633C273.796 563.077 274.033 562.509 274.33 561.949C274.62 561.348 274.972 560.928 275.297 560.988C275.42 561.013 275.458 561.034 275.514 561.26C275.556 561.478 275.517 561.788 275.474 562.114C275.393 562.753 275.274 563.364 275.132 563.938C274.845 565.089 274.461 566.096 274.082 566.916C273.324 568.558 272.641 569.486 272.768 569.586Z" fill="#262626"/>
<path d="M273.343 569.568C273.446 569.517 273.016 568.377 271.62 567.047C270.927 566.389 269.98 565.715 268.808 565.201C268.222 564.947 267.58 564.736 266.895 564.593C266.206 564.476 265.311 564.284 264.462 565.077C264.055 565.521 264.088 566.207 264.286 566.597C264.468 567.019 264.711 567.277 264.934 567.561C265.403 568.107 265.943 568.548 266.496 568.893C267.608 569.587 268.772 569.881 269.739 569.941C271.712 570.057 272.787 569.343 272.726 569.26C272.676 569.087 271.567 569.504 269.823 569.215C268.963 569.073 267.954 568.739 267.015 568.095C266.547 567.773 266.098 567.379 265.71 566.909C265.279 566.417 265.038 565.895 265.246 565.753C265.438 565.519 266.143 565.443 266.698 565.588C267.316 565.704 267.903 565.875 268.446 566.083C269.531 566.505 270.442 567.061 271.147 567.604C272.562 568.699 273.204 569.661 273.343 569.568Z" fill="#262626"/>
<path d="M190.784 445.06C190.784 445.06 192.412 370.193 190.784 370.193C189.156 370.193 177.614 363.603 177.614 363.603L163.192 474.872C163.192 474.872 161.892 487.364 177.349 496.167C192.808 504.971 261.922 566.421 261.922 566.421L285.309 537.939C285.309 537.939 239.83 490.535 221.253 474.872C206.717 462.617 190.784 445.06 190.784 445.06Z" fill="#262626"/>
<path d="M233.152 427.619L234.727 415.764C234.727 415.764 246.12 391.805 247.748 381.541C249.375 371.277 248.3 349.205 248.3 349.205H176.37C176.37 349.205 176.678 430.413 185.358 453.199C185.358 453.199 189.764 496.803 190.412 500.456C191.787 508.211 196.58 587.597 196.58 587.597L232.852 586.275C232.852 586.275 236.002 513.291 233.484 492.572C232.238 482.313 231.647 471.379 231.376 462.333C231.03 450.728 231.624 439.128 233.152 427.619Z" fill="#262626"/>
<path d="M178.336 372.888C178.348 372.888 178.364 373.01 178.383 373.246C178.4 373.523 178.422 373.867 178.45 374.296C178.496 375.272 178.559 376.623 178.64 378.335C178.778 381.843 179.035 386.916 179.396 393.183C180.119 405.716 181.462 423.008 183.442 442.06C185.419 461.12 187.542 478.338 189.078 490.8C189.836 496.991 190.451 502.02 190.884 505.56C191.08 507.263 191.235 508.606 191.346 509.578C191.388 510.004 191.422 510.348 191.448 510.624C191.468 510.86 191.472 510.982 191.46 510.983C191.448 510.986 191.42 510.866 191.379 510.634C191.334 510.36 191.278 510.019 191.207 509.595C191.064 508.628 190.867 507.291 190.616 505.595C190.131 502.062 189.44 497.042 188.591 490.862C186.931 478.415 184.728 461.2 182.752 442.132C180.77 423.071 179.503 405.756 178.906 393.21C178.607 386.936 178.424 381.856 178.37 378.344C178.344 376.63 178.324 375.278 178.31 374.3C178.311 373.87 178.311 373.526 178.311 373.248C178.316 373.011 178.324 372.888 178.336 372.888Z" fill="#375A64"/>
<path d="M231.305 469.008C231.329 469.005 231.401 469.409 231.515 470.184C231.63 471.019 231.786 472.149 231.983 473.576C232.346 476.527 232.798 480.808 233.21 486.107C234.065 496.705 234.711 511.384 234.953 527.601C235.143 543.824 234.887 558.516 234.31 569.135C234.039 574.443 233.699 578.733 233.413 581.693C233.253 583.123 233.126 584.257 233.031 585.095C232.937 585.871 232.875 586.277 232.853 586.275C232.829 586.273 232.843 585.861 232.893 585.081C232.954 584.241 233.038 583.103 233.143 581.669C233.346 578.707 233.611 574.419 233.819 569.111C234.271 558.5 234.449 543.821 234.258 527.611C234.018 511.407 233.449 496.739 232.719 486.143C232.371 480.844 231.995 476.563 231.715 473.605C231.573 472.175 231.459 471.039 231.377 470.203C231.306 469.423 231.281 469.011 231.305 469.008Z" fill="#375A64"/>
<path d="M245.453 198.184C245.453 198.184 257.227 201.325 259.732 218.868C262.239 236.41 257.595 241.424 257.595 241.424C257.595 241.424 259.508 208.764 244.877 204.306L245.453 198.822" fill="#262626"/>
<path d="M165.241 255.487L104.462 254.311L105.17 257.257L164.946 258.136L165.241 255.487Z" fill="#262626"/>
<path d="M238.927 203.692C236.665 203.09 234.267 203.384 232.109 204.292C227.182 206.365 218.171 212.326 217.529 229.142L216.493 256.309L255.362 261.394C255.362 261.394 258.662 208.94 238.927 203.692Z" fill="#367CFF"/>
<path d="M167.406 261.246L216.682 276.066L217.418 256.223L246.926 260.522L245.281 292.783C244.935 302.247 238.301 310.311 229.081 312.474C223.923 313.684 218.501 312.902 213.897 310.283L161.529 280.508L167.406 261.246Z" fill="#FFBF9D"/>
<path d="M255.362 261.395C255.354 261.385 255.342 261.228 255.328 260.931C255.313 260.597 255.294 260.165 255.272 259.621C255.229 258.437 255.17 256.769 255.096 254.643C254.957 250.309 254.76 244.117 254.516 236.484C254.405 232.663 254.284 228.483 254.154 223.997C254.122 222.876 254.092 221.735 254.06 220.577C254.001 220.008 253.941 219.435 253.881 218.856C253.761 218.287 253.673 217.705 253.526 217.135C252.936 214.847 251.845 212.623 250.313 210.656C247.246 206.775 242.31 203.819 236.865 203.72C234.158 203.651 231.441 204.479 229.064 205.948C226.676 207.408 224.657 209.505 223.041 211.889C220.688 215.327 219.366 219.287 218.597 223.216C217.83 227.159 217.584 231.099 217.393 234.92C217.176 242.576 216.972 249.767 216.785 256.316L216.53 256.019C228.158 257.605 237.821 258.924 244.626 259.853C247.998 260.327 250.66 260.7 252.526 260.961C253.412 261.091 254.108 261.192 254.622 261.268C255.1 261.34 255.352 261.383 255.362 261.395C255.372 261.405 255.141 261.385 254.682 261.336C254.18 261.279 253.501 261.2 252.637 261.1C250.782 260.875 248.14 260.555 244.79 260.148C237.926 259.289 228.181 258.068 216.454 256.599L216.194 256.567L216.2 256.301C216.362 249.752 216.478 242.559 216.728 234.888C216.909 231.059 217.149 227.088 217.922 223.084C218.697 219.099 220.045 215.035 222.465 211.5C224.128 209.048 226.213 206.879 228.701 205.36C231.172 203.833 234.041 202.961 236.874 203.039C242.574 203.159 247.652 206.233 250.817 210.261C252.397 212.303 253.518 214.613 254.118 216.984C254.268 217.576 254.357 218.177 254.477 218.768C254.536 219.367 254.594 219.963 254.653 220.555C254.678 221.727 254.704 222.88 254.729 224.013C254.821 228.545 254.908 232.768 254.985 236.628C255.118 244.275 255.225 250.477 255.301 254.817C255.33 256.912 255.352 258.556 255.368 259.723C255.37 260.247 255.373 260.663 255.376 260.983C255.374 261.264 255.37 261.404 255.362 261.395Z" fill="#262626"/>
<path d="M168.397 261.821L156.56 253.067C154.401 251.471 151.036 251.794 148.361 251.554C143.059 251.077 134.313 254.285 133.981 254.835L137.553 257.691L114.545 256.986C114.545 256.986 116.525 261.789 122.957 262.283C122.957 262.283 123.7 267.479 130.379 268.469C130.379 268.469 132.111 272.675 135.821 273.911C135.821 273.911 136.564 278.613 142.501 278.365L162.652 280.65L168.397 261.821Z" fill="#FFBF9D"/>
<path d="M137.356 263.14C137.344 263.332 134.081 263.294 130.069 263.058C126.056 262.822 122.812 262.476 122.824 262.285C122.834 262.093 126.097 262.129 130.11 262.365C134.122 262.602 137.366 262.948 137.356 263.14Z" fill="#FF9A6C"/>
<path d="M143.171 268.675C143.171 268.867 140.318 269.022 136.8 269.022C133.282 269.022 130.428 268.867 130.428 268.675C130.428 268.483 133.282 268.329 136.8 268.329C140.318 268.329 143.171 268.483 143.171 268.675Z" fill="#FF9A6C"/>
<path d="M149.43 273.91C149.43 274.102 146.576 274.257 143.059 274.257C139.54 274.257 136.687 274.102 136.687 273.91C136.687 273.718 139.54 273.564 143.059 273.564C146.576 273.564 149.43 273.718 149.43 273.91Z" fill="#FF9A6C"/>
<path d="M219.935 286.126C219.762 286.2 218.704 284.064 217.743 281.293C216.779 278.522 216.286 276.192 216.466 276.141C216.655 276.088 217.442 278.317 218.399 281.065C219.352 283.814 220.115 286.052 219.935 286.126Z" fill="#FF9A6C"/>
<path d="M223.505 284.215C223.347 284.33 221.755 282.406 219.785 280.046C217.819 277.682 216.213 275.768 216.356 275.632C216.492 275.503 218.336 277.218 220.319 279.602C222.304 281.98 223.657 284.104 223.505 284.215Z" fill="#FF9A6C"/>
</svg>
